<?xml version="1.0" encoding="utf-8"?>
<!-- Generator: Adobe Illustrator 22.1.0, SVG Export Plug-In . SVG Version: 6.00 Build 0)  -->
<svg version="1.1" id="Layer_1" xmlns="http://www.w3.org/2000/svg" xmlns:xlink="http://www.w3.org/1999/xlink" x="0px" y="0px"
	 viewBox="0 0 500 500" style="enable-background:new 0 0 500 500;" xml:space="preserve">
<style type="text/css">
	.st0{fill:#005577;}
	.st1{fill:#1DADE1;}
	.st2{fill:url(#SVGID_1_);}
	.st3{fill:url(#SVGID_2_);}
</style>
<g>
	<path class="st0" d="M234,299.9h-6.5v-28.2h6.5v1.1c1.5-0.7,2.4-1.1,4.3-1.1c3.2,0,6,1.1,8.2,3.4c2.3,2.3,3.4,5,3.4,8.2
		c0,3.2-1.1,6-3.4,8.2c-2.3,2.3-5,3.4-8.2,3.4c-1.8,0-2.8-0.4-4.3-1.1V299.9z M234,285.9c0.2,0.3,0.5,0.6,0.8,1c1,1,2.2,1.5,3.6,1.5
		c1.4,0,2.6-0.5,3.6-1.5c1-1,1.5-2.2,1.5-3.6c0-1.4-0.5-2.6-1.5-3.6c-1-1-2.2-1.5-3.6-1.5c-1.4,0-2.6,0.5-3.6,1.5
		c-0.3,0.3-0.5,0.6-0.8,1V285.9z"/>
	<path class="st0" d="M265,288.6h-2v-11h4.1v-6.1h-4.1v-7.5l-6.5,0v7.5h-4.1v6.1h4.1c0,0,0,13.4,0,13.8c0,3.2,2.3,3.2,4.1,3.2h4.5
		L265,288.6L265,288.6z"/>
	<path class="st1" d="M276.3,271.5v23.2h-4.3v-23.2H276.3z"/>
	<path class="st1" d="M283.9,289.4c1.8,0.8,3.5,1.2,5.1,1.2c1.5,0,2.7-0.2,3.5-0.7c0.8-0.4,1.2-1,1.2-1.7c0-0.6-0.2-1.1-0.6-1.5
		c-0.4-0.4-1-0.7-1.6-0.9l-4.5-1.2c-1.8-0.5-3.1-1.3-4.1-2.4c-1-1.1-1.4-2.5-1.4-4.1c0-1.8,0.7-3.3,2.1-4.6c1.4-1.3,3.3-1.9,5.6-2
		c2.9,0,5.6,0.9,8.1,2.6l-2.7,3.1c-1.8-1.1-3.6-1.6-5.3-1.6c-1.1,0-2,0.3-2.6,0.7c-0.7,0.5-1,1.1-1,1.7c0,0.6,0.2,1.1,0.7,1.5
		c0.5,0.4,1.1,0.7,1.9,0.9l4.6,1.2c1.6,0.4,2.8,1.2,3.8,2.3c0.9,1.1,1.4,2.5,1.4,4.1c0,1.8-0.7,3.3-2.2,4.6
		c-1.5,1.2-3.7,1.8-6.8,1.8c-2.5,0-5.1-0.7-7.7-2L283.9,289.4z"/>
	<path class="st1" d="M306.2,273.6c1.9-1.4,4.2-2.1,6.7-2.1c3.2,0,6,1.1,8.2,3.4c2.3,2.3,3.4,5,3.4,8.2c0,3.2-1.1,6-3.4,8.2
		c-2.3,2.3-5,3.4-8.2,3.4c-2.5,0-4.7-0.7-6.7-2.1v7.1h-4.2v-28.3h4.2V273.6z M306.2,279.7v6.9c0.4,0.7,0.8,1.3,1.4,1.8
		c1.5,1.5,3.2,2.2,5.3,2.2c2.1,0,3.8-0.7,5.3-2.2c1.5-1.5,2.2-3.2,2.2-5.3c0-2.1-0.7-3.8-2.2-5.3c-1.5-1.5-3.2-2.2-5.3-2.2
		c-2.1,0-3.8,0.7-5.3,2.2C307,278.5,306.6,279.1,306.2,279.7z"/>
	
		<linearGradient id="SVGID_1_" gradientUnits="userSpaceOnUse" x1="461.2714" y1="1964.5933" x2="461.2714" y2="1915.1973" gradientTransform="matrix(1 0 0 1 -273.6104 -1675.0613)">
		<stop  offset="0" style="stop-color:#1DADE1"/>
		<stop  offset="0.1832" style="stop-color:#1DAADD"/>
		<stop  offset="0.3801" style="stop-color:#1AA0D1"/>
		<stop  offset="0.5836" style="stop-color:#138EBB"/>
		<stop  offset="0.7914" style="stop-color:#0B759E"/>
		<stop  offset="1" style="stop-color:#005577"/>
	</linearGradient>
	<path class="st2" d="M211.6,270.7c0-2.1-1.1-4-2.8-5.1l-35.3-24.2l0,0c-1-0.8-2.3-1.3-3.7-1.3c-3.3,0-6,2.7-6,6
		c0,1.9,0.9,3.6,2.2,4.6v0c10,9,25.8,25.7,21.6,38.8l21.2-13.8v0C210.5,274.6,211.6,272.8,211.6,270.7z"/>
	
		<linearGradient id="SVGID_2_" gradientUnits="userSpaceOnUse" x1="440.0853" y1="1974.1334" x2="462.7704" y2="1951.4482" gradientTransform="matrix(1 0 0 1 -273.6104 -1675.0613)">
		<stop  offset="0" style="stop-color:#1DADE1"/>
		<stop  offset="0.2994" style="stop-color:#1CACDF"/>
		<stop  offset="0.4795" style="stop-color:#1BA5D7"/>
		<stop  offset="0.628" style="stop-color:#1A99C9"/>
		<stop  offset="0.7593" style="stop-color:#1388B5"/>
		<stop  offset="0.8793" style="stop-color:#09729B"/>
		<stop  offset="0.9896" style="stop-color:#01587A"/>
		<stop  offset="1" style="stop-color:#005577"/>
	</linearGradient>
	<path class="st3" d="M183.4,270.6l-17.9,19l0,0c-1.1,1.1-1.7,2.6-1.7,4.2c0,3.3,2.7,6,6,6c1.2,0,2.4-0.4,3.3-1l0,0l14.5-9.3
		C190.3,281,184.2,272,183.4,270.6z"/>
	<path class="st0" d="M326.5,271.2c-0.6-0.3-1.1-0.8-1.4-1.4c-0.3-0.6-0.5-1.2-0.5-1.9c0-0.7,0.2-1.3,0.5-1.9
		c0.3-0.6,0.8-1.1,1.4-1.4c0.6-0.3,1.2-0.5,1.9-0.5c0.7,0,1.3,0.2,1.9,0.5c0.6,0.3,1.1,0.8,1.4,1.4c0.3,0.6,0.5,1.2,0.5,1.9
		c0,0.7-0.2,1.3-0.5,1.9c-0.3,0.6-0.8,1.1-1.4,1.4c-0.6,0.3-1.2,0.5-1.9,0.5C327.7,271.8,327.1,271.6,326.5,271.2z M330.1,270.8
		c0.5-0.3,0.9-0.7,1.2-1.2c0.3-0.5,0.4-1.1,0.4-1.7c0-0.6-0.1-1.2-0.4-1.7c-0.3-0.5-0.7-0.9-1.2-1.2c-0.5-0.3-1.1-0.4-1.7-0.4
		c-0.6,0-1.2,0.2-1.7,0.5c-0.5,0.3-0.9,0.7-1.2,1.2c-0.3,0.5-0.5,1.1-0.5,1.7c0,0.6,0.2,1.2,0.5,1.7c0.3,0.5,0.7,0.9,1.2,1.2
		c0.5,0.3,1.1,0.5,1.7,0.5C329,271.3,329.6,271.1,330.1,270.8z M326.9,265.7h1.6c0.5,0,0.9,0.1,1.2,0.3c0.3,0.2,0.4,0.6,0.4,1
		c0,0.4-0.1,0.7-0.3,0.9c-0.2,0.2-0.4,0.3-0.7,0.4l1.2,1.8h-0.8l-1-1.7h-0.9v1.7h-0.7L326.9,265.7L326.9,265.7z M328.6,267.9
		c0.3,0,0.6-0.1,0.7-0.2c0.1-0.1,0.2-0.3,0.2-0.6c0-0.5-0.3-0.8-0.9-0.8h-1v1.5L328.6,267.9L328.6,267.9L328.6,267.9z"/>
	<rect x="272" y="264.1" class="st1" width="4.3" height="4.3"/>
</g>
</svg>
