<?xml version="1.0" encoding="utf-8"?>
<!-- Generator: Adobe Illustrator 15.1.0, SVG Export Plug-In . SVG Version: 6.00 Build 0)  -->
<!DOCTYPE svg PUBLIC "-//W3C//DTD SVG 1.1//EN" "http://www.w3.org/Graphics/SVG/1.1/DTD/svg11.dtd">
<svg version="1.1" id="Layer_1" xmlns="http://www.w3.org/2000/svg" xmlns:xlink="http://www.w3.org/1999/xlink" x="0px" y="0px"
	 width="500px" height="200px" viewBox="0 0 500 200" enable-background="new 0 0 500 200" xml:space="preserve">
<g>
	<g id="Layer_2_2_">
		<g>
			<g id="Layer_2_3_">
				<g id="Layer_1-2_1_">
					<path d="M145.086,173.244c-0.772-0.004-1.515,0.295-2.071,0.834l0,0c-3.561,3.557-8.388,5.556-13.422,5.561h-0.318
						c-4.939,0.028-9.68-1.935-13.155-5.444c-0.606-0.603-1.424-0.943-2.28-0.951c-0.882-0.035-1.729,0.352-2.278,1.043
						l-0.067,0.066c-3.319,3.487-7.926,5.455-12.739,5.443c-4.788,0.065-9.385-1.869-12.689-5.333L86,174.388
						c-0.618-0.748-1.536-1.177-2.505-1.17c-0.873-0.008-1.708,0.346-2.312,0.977l-0.049,0.059
						c-3.555,3.565-8.389,5.561-13.423,5.543c-5.069-0.014-9.929-2.034-13.515-5.617c-0.605-0.605-1.424-0.947-2.279-0.952
						c-1.766,0-3.197,1.432-3.197,3.197c0,0.012,0,0.022,0,0.034c0.034,0.827,0.327,1.625,0.834,2.278
						c4.23,4.841,10.352,7.608,16.78,7.589c4.618,0.047,9.142-1.311,12.972-3.89c2.369-1.872,5.733-1.795,8.014,0.183
						c3.25,2.371,7.163,3.662,11.187,3.689c4.184,0.005,8.251-1.374,11.57-3.923c1.087-0.896,2.455-1.387,3.865-1.385
						c1.387-0.005,2.734,0.46,3.823,1.319c3.744,2.603,8.194,3.995,12.755,3.988c6.492-0.056,12.654-2.868,16.946-7.736
						c1.175-1.318,1.061-3.339-0.256-4.516c-0.586-0.523-1.346-0.812-2.131-0.811L145.086,173.244L145.086,173.244z"/>
					<path d="M173.562,118.456h-10.995l-55.882-75.807h44.244c2.104,0,2.313-0.834,2.313-1.862v-2.571
						c0-1.052-0.21-1.888-2.313-1.888H45.079c-2.105,0-1.92,0.834-1.92,1.888v2.571c0,1.061-0.185,1.862,1.92,1.862h45.079
						l-55.814,75.807H23.491c-1.186,0-1.369-0.134-1.369,1.16v14.267c0,1.295,0.183,1.954,1.369,1.954c0,0,13.731,0,14.192,0
						c8.405,22.48,21.52,30.345,38.4,37.449c1.028-0.636,1.977-1.39,2.83-2.246c2.397-2.531,6.391-2.638,8.921-0.242
						c0.175,0.166,0.34,0.342,0.494,0.526c2.723,2.815,6.487,4.379,10.402,4.323c3.954-0.001,7.732-1.623,10.462-4.482
						c1.147-1.354,2.839-2.122,4.615-2.096c1.661,0.003,3.254,0.661,4.433,1.829c0.717,0.679,1.476,1.311,2.271,1.896
						c16.395-7.314,29.984-17.982,37.306-37.024l15.719,0.042c1.194,0,1.794-0.659,1.794-1.953v-14.242
						C175.356,118.322,174.755,118.456,173.562,118.456z M102.028,42.649l16.78,31.012c-4.262-2.148-8.838-3.608-13.557-4.324
						c0,0-1.804-19.124-3.223-26.714V42.649z M94.832,42.649c-1.484,7.513-3.454,26.379-3.454,26.379
						c-4.523,0.694-8.912,2.076-13.015,4.1L94.824,42.65L94.832,42.649L94.832,42.649z M36.731,118.456l55.765-75.807L75.173,74.863
						c-14.103,8.431-22.753,23.64-22.791,40.07c0,0.993,0,1.386,0.1,3.49L36.731,118.456z M60.173,114.516
						c0.004-5.364,1.142-10.667,3.339-15.56l18.207,49.955c-13.184-6.389-21.558-19.747-21.563-34.395H60.173z M98.422,152.757
						c-3.66,0.002-7.301-0.524-10.811-1.561l11.479-33.333l11.754,32.197c0.082,0.181,0.173,0.356,0.275,0.526
						c-4.083,1.44-8.383,2.176-12.714,2.17H98.422L98.422,152.757z M103.689,96.584c2.305-0.116,4.375-0.358,4.375-0.358
						c0.867-0.127,1.467-0.932,1.34-1.799c-0.115-0.783-0.791-1.363-1.583-1.356c0,0-6.194,0.492-10.193,0.492
						c-3.757,0-10.067-0.492-10.067-0.492c-2.062-0.117-2.304,3.03-0.251,3.156c0,0,1.953,0.243,4.017,0.358l5.96,16.32
						l-8.349,25.103L74.971,96.584c2.305-0.116,4.375-0.358,4.375-0.358c0.867-0.127,1.467-0.932,1.341-1.799
						c-0.115-0.783-0.791-1.363-1.582-1.356c0,0-6.195,0.492-10.203,0.492c-0.708,0-1.561,0-2.454-0.049
						c11.584-17.649,35.282-22.566,52.931-10.982c1.714,1.124,3.335,2.385,4.845,3.769c-0.157,0-0.325,0-0.492,0
						c-3.643,0.11-6.514,3.143-6.419,6.787c0,3.148,1.812,5.842,3.758,8.974c2.009,3.153,3.099,6.806,3.146,10.544
						c0,3.272-0.969,7.392-2.905,12.354l-3.814,12.746L103.689,96.584z M117.647,147.564l11.687-33.766
						c1.858-4.332,2.849-8.986,2.914-13.7c0.001-1.314-0.083-2.628-0.259-3.932c9.938,18.187,3.583,40.979-14.334,51.397H117.647z
						 M144.16,118.456c0.059-2.104,0.092-2.504,0.092-3.465c-0.007-16.125-8.398-31.086-22.155-39.501l-17.748-32.841l55.88,75.807
						H144.16L144.16,118.456z"/>
					<path d="M93.831,32.514c0.442,0.969,0.793,1.712,1.77,1.712h5.484c0.986,0,1.337-0.835,1.77-1.787l3.548-7.08
						c0.444-1.026-0.792-1.627-1.769-1.627h-5.11v-9.517c0-0.709-2.104-0.735-2.104,0v9.476h-5.008c-0.977,0-2.155,0.726-1.77,1.61
						L93.831,32.514z"/>
					<path d="M29.76,112.262c2.088-2.195,5.301-16.779,5.301-16.779l8.508,0.41c0,0,1.208-0.117,0.833-1.102
						c-0.568-1.577-8.23-16.111-18.365-5.543C16.946,100.299,0,119.166,0,119.166l7.806,8.873l9.483-14.751
						C17.289,113.288,25.152,117.112,29.76,112.262z"/>
					<path d="M150.455,94.798c-0.351,0.986,0.834,1.103,0.834,1.103l8.531-0.417c0,0,3.231,14.576,5.318,16.771
						c4.607,4.852,12.472,1.044,12.472,1.044l9.483,14.741l7.805-8.89c0,0-16.946-18.866-26.105-29.91
						C158.694,78.687,151.031,93.221,150.455,94.798z"/>
					<path d="M269.52,88.437l-9.959,34.025h-5.492l-7.579-22.696l-7.513,22.696h-5.843l-9.634-34.025h6.461l6.803,24.159
						l7.58-24.159h4.333l7.872,23.524l6.513-23.524H269.52z"/>
					<path d="M299.999,118.28c-3.147,3.254-7.53,5.021-12.056,4.858c-2.306,0.025-4.595-0.403-6.737-1.261
						c-2.005-0.811-3.817-2.037-5.317-3.598c-1.524-1.606-2.707-3.506-3.472-5.584c-0.853-2.319-1.275-4.775-1.243-7.246
						c-0.032-2.471,0.398-4.926,1.268-7.239c0.775-2.075,1.955-3.978,3.474-5.593c1.486-1.564,3.291-2.79,5.291-3.597
						c2.142-0.857,4.432-1.286,6.737-1.261c2.309-0.027,4.601,0.41,6.736,1.286c2.009,0.826,3.821,2.059,5.325,3.623
						c1.524,1.608,2.704,3.509,3.474,5.585c0.848,2.302,1.267,4.742,1.235,7.195C304.703,110.771,303.134,115.047,299.999,118.28z
						 M295.331,96.91c-1.718-2.143-4.181-3.216-7.388-3.223c-1.471-0.04-2.933,0.246-4.282,0.835
						c-1.203,0.548-2.266,1.365-3.104,2.387c-0.881,1.096-1.535,2.356-1.921,3.706c-0.878,3.145-0.878,6.473,0,9.616
						c0.384,1.352,1.039,2.614,1.921,3.707c0.838,1.031,1.899,1.858,3.104,2.413c2.739,1.135,5.818,1.135,8.556,0
						c1.209-0.549,2.274-1.367,3.114-2.396c0.879-1.097,1.532-2.355,1.922-3.707c0.448-1.562,0.668-3.183,0.649-4.808
						C297.902,101.935,297.047,99.092,295.331,96.91z"/>
					<path d="M336.204,122.462h-6.461l-7.056-12.638h-6.302v12.638h-6.226V88.437h12.445c7.792,0,11.688,3.273,11.688,9.818
						c0.094,2.084-0.433,4.149-1.512,5.936c-1.115,1.625-2.574,2.984-4.274,3.982L336.204,122.462z M321.177,93.639h-4.791v10.352
						h4.565c2.623,0,4.425-0.443,5.393-1.337c1.037-1.045,1.573-2.489,1.462-3.957c0.115-1.415-0.397-2.811-1.402-3.814
						c-0.96-0.826-2.688-1.243-5.218-1.243L321.177,93.639L321.177,93.639z"/>
					<path d="M353.309,122.462h-12.714V88.437h12.73c2.309-0.021,4.603,0.387,6.762,1.203c1.988,0.748,3.795,1.909,5.302,3.406
						c1.508,1.522,2.682,3.341,3.447,5.343c1.666,4.584,1.666,9.606,0,14.19c-1.5,4.049-4.698,7.236-8.749,8.724
						C357.918,122.106,355.62,122.499,353.309,122.462z M353.309,94.372h-6.513v22.165h6.513c3.239,0,5.71-0.969,7.413-2.904
						c1.704-1.938,2.554-4.664,2.554-8.182c0-3.513-0.85-6.235-2.554-8.172C359.019,95.341,356.548,94.372,353.309,94.372z"/>
					<path d="M390.299,123.14c-2.307,0.024-4.596-0.402-6.736-1.261c-2.007-0.811-3.819-2.036-5.318-3.598
						c-1.528-1.604-2.711-3.505-3.474-5.585c-0.852-2.318-1.274-4.774-1.242-7.246c-0.035-2.471,0.392-4.924,1.26-7.238
						c0.781-2.074,1.966-3.976,3.479-5.592c1.487-1.565,3.293-2.791,5.293-3.598c2.141-0.857,4.432-1.285,6.737-1.261
						c3.331-0.075,6.637,0.608,9.668,1.996l-0.678,5.927c-2.837-1.248-5.892-1.925-8.99-1.996c-1.472-0.04-2.935,0.246-4.282,0.835
						c-1.204,0.548-2.266,1.365-3.106,2.387c-0.879,1.096-1.532,2.356-1.92,3.707c-0.88,3.146-0.88,6.472,0,9.617
						c0.387,1.351,1.039,2.612,1.92,3.706c0.841,1.026,1.902,1.845,3.106,2.396c1.351,0.586,2.812,0.87,4.282,0.834
						c3.099-0.065,6.155-0.743,8.99-1.995l0.678,5.937C396.939,122.51,393.633,123.204,390.299,123.14z"/>
					<path d="M431.655,122.462h-6.463l-2.912-8.213h-11.328l-2.913,8.213h-6.504l12.105-34.025h5.843L431.655,122.462z
						 M420.133,108.222l-3.572-9.967l-3.498,9.967H420.133z"/>
					<path d="M470.146,122.462h-6.462l-2.879-22.805l-8.699,15.652l-8.75-15.603l-2.914,22.748h-6.459l4.707-34.026h5.109
						l8.307,15.51l8.264-15.51h5.1L470.146,122.462z"/>
					<path d="M488.086,111.285h-6.077v11.177h-6.175V88.437h9.614c2.156-0.019,4.311,0.121,6.445,0.418
						c1.599,0.209,3.133,0.762,4.501,1.62c1.215,0.815,2.155,1.979,2.695,3.339c0.66,1.746,0.967,3.604,0.901,5.469
						c0.068,2.006-0.314,4.004-1.118,5.843c-1.282,2.797-3.752,4.869-6.729,5.644C490.817,111.111,489.453,111.285,488.086,111.285z
						 M487.109,93.639h-5.101v11.812h5.252c2.298,0,3.939-0.461,4.926-1.386c0.992-0.918,1.486-2.504,1.486-4.782
						c0.015-0.872-0.094-1.739-0.319-2.58c-0.183-0.671-0.554-1.276-1.068-1.745c-0.579-0.495-1.273-0.838-2.02-1.001
						C489.229,93.724,488.17,93.618,487.109,93.639z"/>
					<path d="M246.973,169.979h-20.219V135.96h6.219v27.976h14V169.979z"/>
					<path d="M257.274,169.979h-6.219V135.96h6.219V169.979z"/>
					<path d="M274.646,170.664c-2.247,0.023-4.489-0.221-6.677-0.728c-1.624-0.337-3.182-0.928-4.617-1.751l0.725-7.097
						c1.259,1.151,2.738,2.033,4.35,2.587c2.034,0.733,4.183,1.092,6.345,1.062c4.049,0,6.078-1.246,6.078-3.716
						c0.008-0.677-0.17-1.343-0.51-1.929c-0.347-0.57-0.795-1.073-1.318-1.486c-0.536-0.428-1.123-0.789-1.744-1.076
						c-0.608-0.279-1.234-0.526-1.871-0.734l-4.574-1.61l-1.937-0.835c-1.721-0.615-3.258-1.651-4.476-3.014
						c-1.026-1.41-1.573-3.114-1.553-4.858c-0.002-1.289,0.245-2.568,0.728-3.765c0.496-1.237,1.259-2.35,2.235-3.256
						c1.109-1.025,2.417-1.812,3.841-2.313c1.767-0.604,3.627-0.887,5.493-0.833c1.08-0.002,2.16,0.079,3.231,0.243
						c1.112,0.155,2.14,0.354,3.079,0.6c0.895,0.22,1.773,0.499,2.63,0.836c0.652,0.263,1.286,0.573,1.895,0.927l-0.635,6.37
						c-3.755-2.044-7.075-3.065-9.958-3.065c-0.801-0.002-1.601,0.062-2.39,0.193c-0.68,0.111-1.342,0.325-1.96,0.634
						c-0.537,0.26-1.003,0.642-1.361,1.118c-0.355,0.483-0.539,1.071-0.518,1.671c-0.039,0.706,0.177,1.403,0.609,1.962
						c0.503,0.542,1.118,0.966,1.804,1.244c0.973,0.423,1.971,0.788,2.988,1.092c1.195,0.374,2.587,0.866,4.174,1.479l2.631,1.026
						c0.75,0.293,1.466,0.668,2.135,1.118c0.766,0.503,1.46,1.106,2.062,1.795c0.658,0.748,1.19,1.592,1.586,2.506
						c0.433,1.02,0.644,2.121,0.625,3.229c-0.009,1.123-0.139,2.242-0.383,3.339c-0.295,1.243-0.897,2.392-1.753,3.339
						c-1.096,1.183-2.462,2.086-3.982,2.629C279.417,170.378,277.035,170.74,274.646,170.664z"/>
					<path d="M306.069,169.979h-13.124V135.96h9.183c1.793-0.009,3.587,0.098,5.366,0.319c1.438,0.158,2.831,0.586,4.107,1.261
						c1.116,0.609,2.025,1.534,2.622,2.653c0.678,1.406,0.998,2.957,0.928,4.517c0,3.11-0.959,5.477-2.872,7.095
						c1.758,0.577,3.319,1.64,4.498,3.064c1.025,1.497,1.529,3.288,1.438,5.1c0.051,1.644-0.308,3.272-1.045,4.742
						c-0.657,1.229-1.601,2.284-2.747,3.079c-1.176,0.799-2.497,1.367-3.888,1.671C309.07,169.808,307.57,169.98,306.069,169.979z
						 M304.699,141.263h-5.493v8.348h6.077c1.038,0.021,2.054-0.295,2.897-0.899c0.896-0.761,1.356-1.914,1.234-3.081
						c0-1.671-0.391-2.797-1.193-3.432C307.185,141.502,305.942,141.172,304.699,141.263z M305.674,154.527h-6.468v10.16h6.128
						c1.698,0.11,3.389-0.288,4.859-1.145c1.111-0.757,1.67-2.061,1.67-3.916c-0.04-3.394-2.115-5.094-6.229-5.1H305.674
						L305.674,154.527z"/>
					<path d="M350.154,165.805c-3.15,3.258-7.536,5.023-12.064,4.859c-2.303,0.021-4.589-0.406-6.728-1.261
						c-2.009-0.81-3.824-2.036-5.325-3.597c-1.523-1.611-2.706-3.515-3.474-5.593c-0.853-2.317-1.275-4.77-1.243-7.238
						c-0.032-2.474,0.398-4.931,1.27-7.246c0.778-2.071,1.959-3.97,3.473-5.584c1.488-1.567,3.296-2.794,5.301-3.597
						c2.137-0.86,4.424-1.288,6.727-1.263c2.307-0.023,4.594,0.413,6.729,1.286c2.01,0.824,3.824,2.059,5.325,3.624
						c1.521,1.609,2.704,3.508,3.474,5.585c0.849,2.302,1.268,4.74,1.235,7.195C354.859,158.284,353.292,162.562,350.154,165.805z
						 M345.487,144.435c-1.719-2.154-4.181-3.229-7.389-3.223c-1.468-0.035-2.927,0.249-4.273,0.835
						c-1.207,0.55-2.272,1.369-3.113,2.397c-0.884,1.093-1.536,2.353-1.921,3.705c-0.879,3.146-0.879,6.471,0,9.617
						c0.386,1.352,1.039,2.611,1.921,3.706c0.841,1.024,1.906,1.842,3.113,2.388c2.734,1.147,5.814,1.147,8.548,0
						c1.208-0.545,2.273-1.363,3.112-2.388c0.878-1.097,1.532-2.357,1.921-3.706c0.449-1.562,0.669-3.183,0.652-4.808
						C348.059,149.458,347.2,146.616,345.487,144.435L345.487,144.435z"/>
					<path d="M386.259,169.979h-6.429l-2.913-8.205h-11.363l-2.913,8.205h-6.46l12.094-34.019h5.844L386.259,169.979z
						 M374.746,155.746l-3.548-9.967l-3.505,9.967H374.746z"/>
				</g>
			</g>
		</g>
	</g>
	<g>
		<path d="M226.77,71.396V56.821c-0.875,0.656-1.667,1.012-2.543,1.203l-0.329-2.79c1.258-0.328,3.063-1.667,3.693-2.98h2.461
			v19.143H226.77z"/>
		<path d="M233.879,66.31c0-1.696,0.71-3.61,3.172-5.223c-1.559-1.23-2.078-2.872-2.078-4.403c0-2.434,1.34-4.813,5.714-4.813
			c4.185,0,5.552,2.161,5.552,4.403c0,1.915-0.875,3.2-2.626,4.567c2.27,0.93,3.665,2.652,3.665,5.031
			c0,2.68-2.078,5.908-6.947,5.908C235.792,71.78,233.879,69.044,233.879,66.31z M237.051,66.119c0,1.941,1.285,3.008,3.391,3.008
			c2.216,0,3.61-1.286,3.61-3.2c0-2.023-1.587-3.228-3.391-3.665C238.774,62.591,237.051,63.849,237.051,66.119z M237.816,56.957
			c0,1.122,0.684,2.27,2.598,2.844c2.051-0.574,2.789-1.777,2.789-3.036c0-1.257-0.766-2.27-2.652-2.27
			C238.636,54.496,237.816,55.562,237.816,56.957z"/>
		<path d="M258.159,65.107c0.384,2.926,2.352,3.965,4.375,3.965c1.259,0,2.954-0.437,4.104-1.012l0.218,2.571
			c-1.039,0.52-2.599,1.039-4.539,1.039c-4.896,0-7.356-3.254-7.356-7.083c0-3.774,2.352-7.028,6.562-7.028
			c3.393,0,5.935,2.242,5.935,5.852c0,0.547-0.081,1.094-0.191,1.696H258.159z M258.296,63.001h5.988
			c0-1.422-0.764-2.817-2.707-2.817C259.69,60.185,258.651,61.333,258.296,63.001z"/>
		<path d="M277.573,71.396V56.821c-0.876,0.656-1.668,1.012-2.544,1.203l-0.327-2.79c1.257-0.328,3.062-1.667,3.69-2.98h2.462
			v19.143H277.573z"/>
		<path d="M296.96,59.036c0,7.384-4.923,12.361-8.148,12.361l-2.161-1.258c2.023-0.383,6.536-3.336,6.919-7.575
			c-0.738,0.875-2.734,1.203-3.501,1.203c-3.418,0-5.771-1.805-5.771-5.469c0-3.528,2.571-6.427,6.673-6.427
			C294.226,51.871,296.96,53.758,296.96,59.036z M293.814,57.778c0-2.27-1.64-3.063-3.09-3.063c-2.133,0-3.255,1.75-3.255,3.445
			c0,1.368,0.712,2.954,2.899,2.954C292.257,61.114,293.814,59.965,293.814,57.778z"/>
		<path d="M321.925,71.396l-1.695-13.345l-4.978,9.162l-5.031-9.134l-1.695,13.318h-3.364l2.626-19.143h2.68l4.785,8.97l4.731-8.97
			h2.68l2.626,19.143H321.925z"/>
		<path d="M338.85,71.67h-0.93c-1.777,0-2.651-0.656-3.172-1.695c-0.93,1.066-2.489,1.695-4.156,1.695
			c-2.297,0-4.02-1.559-4.02-4.047c0-3.829,4.948-4.785,7.793-4.84c-0.056-1.859-0.819-2.516-2.625-2.516
			c-1.148,0-2.216,0.301-3.665,1.094l-0.328-2.517c1.478-0.82,3.117-1.285,4.84-1.285c3.173,0,4.896,1.559,4.896,5.798v3.39
			c0,2.024,0.192,2.38,1.313,2.38h0.355L338.85,71.67z M334.365,64.888c-2.517,0.109-4.567,0.875-4.567,2.598
			c0,1.23,0.656,1.778,1.915,1.778c0.821,0,1.941-0.438,2.652-1.231V64.888z"/>
		<path d="M340.681,55.454v-3.2h3.117v3.2H340.681z M340.681,71.396V57.805h3.117v13.592H340.681z"/>
		<path d="M345.819,64.614c0-3.829,2.517-7.055,6.838-7.055s6.836,3.227,6.836,7.055c0,3.856-2.515,7.056-6.836,7.056
			S345.819,68.47,345.819,64.614z M348.992,64.614c0,2.708,1.341,4.458,3.665,4.458s3.664-1.75,3.664-4.458
			c0-2.68-1.34-4.43-3.664-4.43S348.992,61.935,348.992,64.614z"/>
		<path d="M366.931,71.396c7.138-10.255,7.794-12.498,7.794-13.92c0-1.804-1.095-2.843-2.872-2.843
			c-2.352,0-3.773,1.887-4.402,2.816l-0.41-2.898c0.464-0.82,2.324-2.68,5.523-2.68c4.02,0,5.251,2.844,5.251,5.169
			c0,2.516-1.478,5.688-5.278,11.294h5.989v3.063H366.931z"/>
		<path d="M381.313,62.126c0-6.098,3.61-10.255,8.204-10.255c4.513,0,7.875,3.993,7.875,9.79c0,6.099-3.28,10.119-8.203,10.119
			C384.485,71.78,381.313,67.95,381.313,62.126z M384.596,62.126c0,4.676,1.968,6.754,4.647,6.754c2.844,0,4.923-2.161,4.923-7.22
			c0-4.648-2.215-6.918-4.703-6.918S384.596,57.121,384.596,62.126z"/>
		<path d="M402.641,71.396V56.821c-0.875,0.656-1.668,1.012-2.542,1.203l-0.33-2.79c1.259-0.328,3.064-1.667,3.692-2.98h2.462
			v19.143H402.641z"/>
		<path d="M422.028,59.036c0,7.384-4.923,12.361-8.15,12.361l-2.16-1.258c2.023-0.383,6.537-3.336,6.918-7.575
			c-0.736,0.875-2.734,1.203-3.5,1.203c-3.418,0-5.77-1.805-5.77-5.469c0-3.528,2.571-6.427,6.673-6.427
			C419.294,51.871,422.028,53.758,422.028,59.036z M418.884,57.778c0-2.27-1.643-3.063-3.091-3.063c-2.133,0-3.254,1.75-3.254,3.445
			c0,1.368,0.711,2.954,2.898,2.954C417.324,61.114,418.884,59.965,418.884,57.778z"/>
		<path d="M431.132,71.396V52.254h3.227v19.143H431.132z"/>
		<path d="M437.421,70.439l0.411-3.692c1.094,0.985,3.199,1.997,5.988,1.997c2.134,0,3.773-0.629,3.773-2.352
			c0-2.023-2.133-2.734-4.594-3.554c-2.872-0.958-5.852-1.915-5.852-5.278c0-2.516,1.723-5.688,6.918-5.688
			c2.571,0,5.059,0.793,6.071,1.422l-0.328,3.336c-1.997-1.067-3.72-1.723-5.58-1.723c-1.641,0-3.746,0.52-3.746,2.27
			c0,1.614,1.806,2.242,3.938,2.898c3.09,0.93,6.755,1.997,6.755,6.208c0,2.133-0.931,5.497-7.438,5.497
			C440.866,71.78,438.543,71.123,437.421,70.439z"/>
		<path d="M452.623,61.825c0-6.043,3.992-9.954,9.49-9.954c1.968,0,4.019,0.465,5.386,1.122l-0.355,3.036
			c-1.558-0.574-3.062-1.122-5.03-1.122c-3.938,0-5.962,2.954-5.962,6.918c0,3.966,2.023,6.919,5.962,6.919
			c1.968,0,3.473-0.52,5.03-1.121l0.355,3.036c-1.395,0.684-3.418,1.122-5.386,1.122C456.615,71.78,452.623,67.869,452.623,61.825z"
			/>
		<path d="M477.152,55.317v16.08h-3.228v-16.08h-5.471v-3.063h14.167v3.063H477.152z"/>
		<path d="M484.835,71.396V52.254h12.059v3.063h-8.778v4.567h6.865v3.062h-6.865v5.387h9.052v3.063H484.835z"/>
	</g>
</g>
</svg>
