<svg xmlns="http://www.w3.org/2000/svg" viewBox="0 0 453.91 172.28"><title>wclx19-horizontal_02</title><g id="wclx19-horizontal_02"><rect x="132.32" y="64.47" width="284.53" height="80.27" rx="7" ry="7" fill="#010101"/><path d="M192.25,93.16C192.12,93,179.5,79,172.78,70.85l-.33-.37c-4-4.16-8-5-10.61-5a14.4,14.4,0,0,0-10.37,4.83l-17-23h19.45c5.15,0,8.74-3.45,8.74-8.4V36.9c0-4.95-3.59-8.42-8.74-8.42H127.31a7.65,7.65,0,0,0-1.08-5.77,8.2,8.2,0,0,0-4-3.13v-.75a7.81,7.81,0,0,0-15.59,0v.76a8.31,8.31,0,0,0-3.9,3.14,7.62,7.62,0,0,0-1.08,5.75H74.25A8.39,8.39,0,0,0,68,30.88a8,8,0,0,0-2.23,5.94v2.1A8,8,0,0,0,68,44.85a8.36,8.36,0,0,0,6.22,2.39H94.34L76.7,71.2c-2.53-3-6.29-5.75-11.22-5.76h0c-2.64,0-6.63.88-10.62,5-.12.13-.24.26-.35.4C47.84,79,35.23,93,35.1,93.17a7,7,0,0,0,0,9.3l5.87,6.68a7,7,0,0,0,5.26,2.38l.52,0a7,7,0,0,0,3.36-1.17A7.79,7.79,0,0,0,58,117.4h6a49.67,49.67,0,0,0,10.73,15.4A9.37,9.37,0,0,0,70,141c0,.1,0,.22,0,.31A9.92,9.92,0,0,0,72.09,147a3.88,3.88,0,0,0,.26.31,23.71,23.71,0,0,0,17.85,8.11h.23a24.1,24.1,0,0,0,12.47-3.47,21.21,21.21,0,0,0,11.53,3.45h.06a21.39,21.39,0,0,0,11.67-3.48,23.65,23.65,0,0,0,12.39,3.48h.08a24.19,24.19,0,0,0,18-8.19A9.4,9.4,0,0,0,155.8,134,9.61,9.61,0,0,0,153,132.2a51.18,51.18,0,0,0,10.75-14.84l7.23,0a8.16,8.16,0,0,0,8.08-6.19,6.82,6.82,0,0,0,1.63.32l.52,0a7.05,7.05,0,0,0,5.26-2.38l5.87-6.7A7,7,0,0,0,192.25,93.16Z" fill="#010101"/><path d="M149.54,138.56a2.23,2.23,0,0,0-1.56.63h0a14.32,14.32,0,0,1-10.1,4.18h-.24a13.82,13.82,0,0,1-9.91-4.1,2.43,2.43,0,0,0-1.71-.71,2.08,2.08,0,0,0-1.72.78l0,0a13.18,13.18,0,0,1-9.59,4.1,13,13,0,0,1-9.55-4l0-.06a2.43,2.43,0,0,0-1.89-.88,2.38,2.38,0,0,0-1.74.73l0,0a14.16,14.16,0,0,1-10.1,4.17,14.45,14.45,0,0,1-10.18-4.23,2.43,2.43,0,0,0-1.71-.71A2.4,2.4,0,0,0,77,141v0a3,3,0,0,0,.63,1.71,16.7,16.7,0,0,0,12.63,5.72,17.25,17.25,0,0,0,9.77-2.93,4.72,4.72,0,0,1,6,.14,14.48,14.48,0,0,0,8.42,2.77,14.22,14.22,0,0,0,8.71-2.95,4.61,4.61,0,0,1,2.91-1,4.55,4.55,0,0,1,2.88,1,16.74,16.74,0,0,0,9.6,3,17.21,17.21,0,0,0,12.76-5.82,2.4,2.4,0,0,0-1.79-4Z" fill="#ffc91f"/><path d="M171,97.31H162.7L120.63,40.24h33.31c1.58,0,1.74-.63,1.74-1.4V36.9c0-.79-.16-1.42-1.74-1.42H74.25c-1.58,0-1.45.63-1.45,1.42v1.94c0,.8-.13,1.4,1.45,1.4h33.94l-42,57.07H58c-.9,0-1-.1-1,.88v10.74c0,1,.13,1.47,1,1.47H68.68c6.33,16.92,16.2,22.84,28.91,28.19a12,12,0,0,0,2.13-1.69,4.75,4.75,0,0,1,6.72-.18,4.59,4.59,0,0,1,.37.39,10.69,10.69,0,0,0,7.83,3.26,10.88,10.88,0,0,0,7.88-3.38,4.47,4.47,0,0,1,3.47-1.57,4.75,4.75,0,0,1,3.34,1.37,18,18,0,0,0,1.71,1.43c12.34-5.51,22.57-13.54,28.08-27.87l11.84,0c.9,0,1.35-.5,1.35-1.47V98.19C172.33,97.21,171.88,97.31,171,97.31ZM117.12,40.24l12.64,23.35a34,34,0,0,0-10.21-3.26s-1.36-14.39-2.43-20.11Zm-5.41,0c-1.12,5.66-2.6,19.86-2.6,19.86a33.42,33.42,0,0,0-9.8,3.09L111.7,40.24ZM68,97.31l42-57.07-13,24.25A35.25,35.25,0,0,0,79.75,94.66c0,.75,0,1,.07,2.63Zm17.64-3a28.68,28.68,0,0,1,2.52-11.72l13.7,37.61A28.79,28.79,0,0,1,85.6,94.35Zm28.8,28.79a28.72,28.72,0,0,1-8.14-1.18l8.64-25.09,8.85,24.24a3.72,3.72,0,0,0,.21.39,28.65,28.65,0,0,1-9.57,1.64Zm4-42.29c1.74-.09,3.3-.27,3.3-.27a1.2,1.2,0,0,0-.18-2.38s-4.67.37-7.68.37c-2.83,0-7.58-.37-7.58-.37a1.19,1.19,0,0,0-.19,2.38s1.47.18,3,.27l4.48,12.28L107.27,112,96.75,80.85c1.74-.09,3.3-.27,3.3-.27a1.2,1.2,0,0,0-.18-2.38s-4.67.37-7.68.37c-.54,0-1.18,0-1.85,0a28.78,28.78,0,0,1,39.85-8.26,27.72,27.72,0,0,1,3.64,2.83h-.37a5,5,0,0,0-4.83,5.11c0,2.37,1.37,4.4,2.83,6.76a15.18,15.18,0,0,1,2.37,7.94,26.78,26.78,0,0,1-2.19,9.3l-2.87,9.59Zm10.51,38.38,8.8-25.42a27,27,0,0,0,2.19-10.32,20.92,20.92,0,0,0-.19-3,28.8,28.8,0,0,1-10.79,38.7Zm20-21.92c0-1.58.07-1.88.07-2.61A34.87,34.87,0,0,0,132.23,65L118.87,40.24l42.07,57.07Z" fill="#ffc91f"/><path d="M111,32.61c.34.73.6,1.29,1.34,1.29h4.12c.75,0,1-.63,1.34-1.35l2.67-5.33c.33-.77-.6-1.22-1.33-1.22h-3.85V18.83c0-.53-1.59-.55-1.59,0V26h-3.77c-.73,0-1.62.54-1.33,1.21Z" fill="#ffc91f"/><path d="M62.72,92.65c1.57-1.65,4-12.63,4-12.63l6.4.3s.91-.08.63-.82c-.43-1.19-6.2-12.13-13.83-4.18-6.84,8.32-19.6,22.53-19.6,22.53l5.88,6.68,7.14-11.11S59.25,96.3,62.72,92.65Z" fill="#ffc91f"/><path d="M153.58,79.5c-.26.74.63.83.63.83l6.42-.31s2.44,11,4,12.62c3.47,3.66,9.39.79,9.39.79l7.14,11.1,5.87-6.7s-12.76-14.2-19.65-22.51C159.79,67.37,154,78.31,153.58,79.5Z" fill="#ffc91f"/><path d="M232.62,74.71l-7.5,25.62H221l-5.71-17.09-5.65,17.09h-4.4L198,74.71h4.87L208,92.9l5.71-18.19h3.26l5.92,17.71,4.91-17.71Z" fill="#ffc91f"/><path d="M255.57,97.18a12,12,0,0,1-9.08,3.66,13.31,13.31,0,0,1-5.07-1,11.53,11.53,0,0,1-4-2.71A12.34,12.34,0,0,1,234.8,93a15.19,15.19,0,0,1-.93-5.46,14.9,14.9,0,0,1,.95-5.45,12.48,12.48,0,0,1,2.62-4.21,11.23,11.23,0,0,1,4-2.71,13.31,13.31,0,0,1,5.07-1,13,13,0,0,1,5.07,1,11.72,11.72,0,0,1,4,2.73,12.34,12.34,0,0,1,2.62,4.2,15.41,15.41,0,0,1,.93,5.42A13.32,13.32,0,0,1,255.57,97.18Zm-3.52-16.09a6.71,6.71,0,0,0-5.56-2.42,7.55,7.55,0,0,0-3.22.62,6.57,6.57,0,0,0-2.34,1.8,8.09,8.09,0,0,0-1.45,2.79,13.48,13.48,0,0,0,0,7.24,7.92,7.92,0,0,0,1.45,2.79,6.51,6.51,0,0,0,2.34,1.82,8.45,8.45,0,0,0,6.44,0,6.46,6.46,0,0,0,2.34-1.8,8,8,0,0,0,1.45-2.8,12.6,12.6,0,0,0,.49-3.62A10.08,10.08,0,0,0,252.05,81.09Z" fill="#ffc91f"/><path d="M282.82,100.33H278l-5.31-9.52H267.9v9.52h-4.68V74.71h9.37q8.79,0,8.79,7.39a7.88,7.88,0,0,1-1.13,4.47,10,10,0,0,1-3.22,3Zm-11.31-21.7H267.9v7.79h3.44c2,0,3.33-.33,4.06-1a3.85,3.85,0,0,0,1.1-3,3.67,3.67,0,0,0-1.05-2.88c-.73-.62-2-.93-3.93-.93Z" fill="#ffc91f"/><path d="M295.7,100.33h-9.57V74.71h9.58a14,14,0,0,1,5.09.91,11.42,11.42,0,0,1,4,2.56,11.82,11.82,0,0,1,2.59,4,15.71,15.71,0,0,1,0,10.69,11.11,11.11,0,0,1-6.59,6.57A14.07,14.07,0,0,1,295.7,100.33Zm0-21.15h-4.9V95.87h4.9a7,7,0,0,0,5.58-2.19,9,9,0,0,0,1.92-6.16,9,9,0,0,0-1.92-6.15A7,7,0,0,0,295.7,79.18Z" fill="#ffc91f"/><path d="M323.55,100.84a13.12,13.12,0,0,1-5.07-1,11.53,11.53,0,0,1-4-2.71,12.16,12.16,0,0,1-2.61-4.2,15.42,15.42,0,0,1-.94-5.46,15.12,15.12,0,0,1,.95-5.45,12.8,12.8,0,0,1,2.62-4.21,11.36,11.36,0,0,1,4-2.71,13.51,13.51,0,0,1,5.07-1,16.64,16.64,0,0,1,7.28,1.51l-.51,4.46a17.78,17.78,0,0,0-6.77-1.5,7.62,7.62,0,0,0-3.23.62,6.62,6.62,0,0,0-2.33,1.8,7.92,7.92,0,0,0-1.45,2.79,13.48,13.48,0,0,0,0,7.24A7.76,7.76,0,0,0,318,93.91a6.53,6.53,0,0,0,2.33,1.81,7.62,7.62,0,0,0,3.23.62,17.42,17.42,0,0,0,6.77-1.5l.51,4.47A16.63,16.63,0,0,1,323.55,100.84Z" fill="#ffc91f"/><path d="M354.68,100.33h-4.86l-2.19-6.19H339.1l-2.2,6.19H332l9.11-25.62h4.4ZM346,89.61l-2.69-7.51-2.63,7.51Z" fill="#ffc91f"/><path d="M383.66,100.33H378.8l-2.17-17.17-6.55,11.78L363.49,83.2l-2.19,17.12h-4.86L360,74.71h3.85l6.25,11.67,6.22-11.67h3.84Z" fill="#ffc91f"/><path d="M397.17,91.91h-4.58v8.42h-4.65V74.71h7.24A32.66,32.66,0,0,1,400,75a8.24,8.24,0,0,1,3.39,1.22,5.37,5.37,0,0,1,2,2.51,10.5,10.5,0,0,1,.68,4.12,10.24,10.24,0,0,1-.84,4.4,7.72,7.72,0,0,1-5.07,4.24A12.09,12.09,0,0,1,397.17,91.91Zm-.74-13.28h-3.84v8.89h4a5.35,5.35,0,0,0,3.7-1,4.74,4.74,0,0,0,1.12-3.6,7,7,0,0,0-.24-1.94,2.66,2.66,0,0,0-.8-1.32,3.51,3.51,0,0,0-1.52-.75A9.53,9.53,0,0,0,396.43,78.63Z" fill="#ffc91f"/><path d="M215.65,136.1H200.42V110.49h4.69v21.06h10.54Z" fill="#ffc91f"/><path d="M223.4,136.1h-4.68V110.49h4.68Z" fill="#ffc91f"/><path d="M236.48,136.62a21.84,21.84,0,0,1-5-.55,11.69,11.69,0,0,1-3.47-1.32l.54-5.34a9.35,9.35,0,0,0,3.28,2,13.62,13.62,0,0,0,4.77.8c3.05,0,4.58-.94,4.58-2.8a2.83,2.83,0,0,0-.38-1.45,4.11,4.11,0,0,0-1-1.12,5.72,5.72,0,0,0-1.31-.81,14.26,14.26,0,0,0-1.41-.56l-3.44-1.21-1.46-.63a8.23,8.23,0,0,1-3.37-2.27,6.13,6.13,0,0,1-1.17-3.65,7.67,7.67,0,0,1,.55-2.84,6.79,6.79,0,0,1,1.68-2.45,8.46,8.46,0,0,1,2.89-1.74,11.64,11.64,0,0,1,4.14-.63,16.46,16.46,0,0,1,2.43.18,19.84,19.84,0,0,1,2.32.46,13.81,13.81,0,0,1,2,.63A11.06,11.06,0,0,1,245,112l-.48,4.8a16.14,16.14,0,0,0-7.5-2.31,10.93,10.93,0,0,0-1.8.15,5.05,5.05,0,0,0-1.47.47,2.84,2.84,0,0,0-1,.85,2,2,0,0,0-.39,1.25,2.23,2.23,0,0,0,.46,1.48,3.78,3.78,0,0,0,1.36.94,19.47,19.47,0,0,0,2.25.82c.9.28,1.95.65,3.14,1.11l2,.78a8,8,0,0,1,1.61.84,7.41,7.41,0,0,1,1.55,1.35,7,7,0,0,1,1.2,1.89,6.08,6.08,0,0,1,.47,2.43,12.55,12.55,0,0,1-.29,2.51,5.69,5.69,0,0,1-1.32,2.51,7.57,7.57,0,0,1-3,2A14.86,14.86,0,0,1,236.48,136.62Z" fill="#ffc91f"/><path d="M260.14,136.1h-9.88V110.49h6.91a30.32,30.32,0,0,1,4,.24,8.61,8.61,0,0,1,3.09,1,4.89,4.89,0,0,1,2,2,7,7,0,0,1,.69,3.4,6.61,6.61,0,0,1-2.16,5.34,7.29,7.29,0,0,1,3.39,2.31,6.22,6.22,0,0,1,1.08,3.84,7.4,7.4,0,0,1-.79,3.57,6.62,6.62,0,0,1-2.06,2.31,8.49,8.49,0,0,1-2.93,1.26A14.62,14.62,0,0,1,260.14,136.1Zm-1-21.62H255v6.29h4.57a3.71,3.71,0,0,0,2.19-.68,2.69,2.69,0,0,0,.93-2.32,3.1,3.1,0,0,0-.9-2.58A4.17,4.17,0,0,0,259.11,114.48Zm.73,10H255v7.65h4.61a6.51,6.51,0,0,0,3.66-.86,3.31,3.31,0,0,0,1.26-2.95q0-3.84-4.69-3.84Z" fill="#ffc91f"/><path d="M293.33,133a12.08,12.08,0,0,1-9.09,3.66,13.49,13.49,0,0,1-5.06-1,11.66,11.66,0,0,1-4-2.71,12.38,12.38,0,0,1-2.62-4.21,16.3,16.3,0,0,1,0-10.91,12.86,12.86,0,0,1,2.62-4.2,11.36,11.36,0,0,1,4-2.71,13.3,13.3,0,0,1,5.06-1,13.14,13.14,0,0,1,5.07,1,11.72,11.72,0,0,1,4,2.73,12.47,12.47,0,0,1,2.61,4.2,15,15,0,0,1,.93,5.42A13.26,13.26,0,0,1,293.33,133Zm-3.52-16.09a6.69,6.69,0,0,0-5.56-2.43,7.77,7.77,0,0,0-3.22.63,6.48,6.48,0,0,0-2.34,1.81,7.76,7.76,0,0,0-1.45,2.79,13.48,13.48,0,0,0,0,7.24,8.09,8.09,0,0,0,1.45,2.79,6.43,6.43,0,0,0,2.34,1.79,8.27,8.27,0,0,0,6.44,0,6.43,6.43,0,0,0,2.34-1.79,8.26,8.26,0,0,0,1.45-2.79,12.7,12.7,0,0,0,.49-3.62,10.08,10.08,0,0,0-1.94-6.42Z" fill="#ffc91f"/><path d="M320.51,136.1h-4.84l-2.2-6.18h-8.55l-2.19,6.18h-4.87L307,110.49h4.4Zm-8.67-10.71-2.67-7.51-2.64,7.51Z" fill="#ffc91f"/></g></svg>