<svg xmlns="http://www.w3.org/2000/svg" viewBox="0 0 240.72 257.46"><title>wclx19-vertical_01</title><g id="wclx19-vertical_02"><path d="M222.4,162.47H161.92a25.15,25.15,0,0,0,4.29-3.84,8.73,8.73,0,0,0-4.9-14.37,55.66,55.66,0,0,0,13.47-18l8.35,0a8.31,8.31,0,0,0,8.36-7,7.08,7.08,0,0,0,2.33.59l.52,0a7,7,0,0,0,5.26-2.39l6.44-7.33a7,7,0,0,0-.06-9.3c-.13-.15-14-15.57-21.36-24.47a3.8,3.8,0,0,0-.33-.37c-4.2-4.39-8.37-5.31-11.14-5.31-4.93,0-8.76,2.7-11.43,5.68l-19.88-27h22.65c5.25,0,8.91-3.51,8.91-8.53V38.77c0-5-3.66-8.55-8.91-8.55H134.44a7.73,7.73,0,0,0-.88-6.63,8.4,8.4,0,0,0-4.49-3.33V19a7.88,7.88,0,0,0-15.73,0v1.29A8.53,8.53,0,0,0,109,23.6a7.72,7.72,0,0,0-.88,6.62H77.15a8.54,8.54,0,0,0-6.34,2.42,8.12,8.12,0,0,0-2.25,6V41a8.09,8.09,0,0,0,2.24,6,8.55,8.55,0,0,0,6.35,2.42H100.5L79.84,77.5c-2.66-3.34-6.79-6.77-12.3-6.77h0c-2.76,0-6.94.92-11.15,5.31-.12.13-.24.26-.35.4-7.32,8.89-21.15,24.3-21.29,24.46a7,7,0,0,0-.05,9.3l6.44,7.32a7,7,0,0,0,5.26,2.38l.52,0a7.05,7.05,0,0,0,4.3-1.91c.1,4.07,2.65,8.36,8.12,8.36h7a53.31,53.31,0,0,0,13.22,18.38,8.75,8.75,0,0,0-5.53,8.11c0,.09,0,.2,0,.28a9.3,9.3,0,0,0,2,5.37l.22.27a24.52,24.52,0,0,0,4.1,3.73h-62a6.1,6.1,0,0,0-6.1,6.1v34.22a6.1,6.1,0,0,0,6.1,6.1H50.91v27.26a6.46,6.46,0,0,0,6.46,6.46H183.92a6.46,6.46,0,0,0,6.46-6.46V208.89h32a6.1,6.1,0,0,0,6.09-6.1V168.57A6.1,6.1,0,0,0,222.4,162.47Z" fill="#ffc91f"/><path d="M159.67,150.2a2.43,2.43,0,0,0-1.71.69h0a15.74,15.74,0,0,1-11.07,4.59h-.27a15.16,15.16,0,0,1-10.85-4.5,2.75,2.75,0,0,0-1.88-.78,2.28,2.28,0,0,0-1.88.86l-.06.05a14.46,14.46,0,0,1-10.51,4.5,14.24,14.24,0,0,1-10.47-4.4l-.06-.07a2.64,2.64,0,0,0-2.06-1,2.6,2.6,0,0,0-1.91.8l0,.05a15.61,15.61,0,0,1-11.08,4.58A15.87,15.87,0,0,1,84.67,151a2.72,2.72,0,0,0-1.88-.79,2.64,2.64,0,0,0-2.64,2.64v0a3.3,3.3,0,0,0,.69,1.88A18.28,18.28,0,0,0,94.69,161a18.79,18.79,0,0,0,10.7-3.21,5.19,5.19,0,0,1,6.61.15,15.8,15.8,0,0,0,9.23,3,15.62,15.62,0,0,0,9.55-3.24A5,5,0,0,1,134,156.6a5.09,5.09,0,0,1,3.16,1.09A18.33,18.33,0,0,0,147.65,161a18.92,18.92,0,0,0,14-6.38,2.65,2.65,0,0,0-2-4.4Z" fill="#010101"/><path d="M183.17,105H174.1L128,42.43h36.51c1.74,0,1.91-.69,1.91-1.53V38.77c0-.86-.17-1.55-1.91-1.55H77.15c-1.74,0-1.59.68-1.59,1.55V40.9c0,.87-.15,1.53,1.59,1.53h37.19L68.29,105h-9c-1,0-1.13-.11-1.13,1v11.77c0,1.07.15,1.61,1.13,1.61H71c6.94,18.55,17.76,25,31.69,30.9a12.62,12.62,0,0,0,2.34-1.85,5.2,5.2,0,0,1,7.36-.2,4.18,4.18,0,0,1,.4.44,11.72,11.72,0,0,0,8.59,3.56,11.93,11.93,0,0,0,8.63-3.7,4.93,4.93,0,0,1,3.81-1.73,5.26,5.26,0,0,1,3.66,1.51,19.92,19.92,0,0,0,1.87,1.57c13.53-6,24.75-14.84,30.79-30.55l13,0c1,0,1.48-.54,1.48-1.61V106C184.65,104.88,184.15,105,183.17,105Zm-59-62.56L138,68a37.71,37.71,0,0,0-11.19-3.57s-1.49-15.78-2.66-22Zm-5.94,0c-1.22,6.2-2.85,21.77-2.85,21.77a36.92,36.92,0,0,0-10.74,3.38l13.58-25.15ZM70.26,105l46-62.56L102,69a38.6,38.6,0,0,0-18.81,33.06c0,.82,0,1.14.08,2.88Zm19.34-3.25A31.2,31.2,0,0,1,92.36,88.9l15,41.22a31.54,31.54,0,0,1-17.79-28.38Zm31.56,31.55a31.69,31.69,0,0,1-8.92-1.28l9.48-27.51,9.69,26.57c.07.15.15.29.23.43a31.26,31.26,0,0,1-10.49,1.79Zm4.35-46.35c1.9-.1,3.61-.3,3.61-.3a1.31,1.31,0,0,0-.2-2.6s-5.11.41-8.41.41c-3.1,0-8.31-.41-8.31-.41a1.3,1.3,0,0,0-.21,2.6s1.62.2,3.32.3l4.92,13.47-6.89,20.71L101.81,86.94c1.9-.1,3.61-.3,3.61-.3a1.31,1.31,0,0,0-.2-2.6s-5.11.41-8.42.41c-.58,0-1.28,0-2,0a31.54,31.54,0,0,1,43.68-9.07,32.46,32.46,0,0,1,4,3.11h-.41a5.47,5.47,0,0,0-5.3,5.6c0,2.6,1.5,4.83,3.1,7.41a16.58,16.58,0,0,1,2.6,8.7,29.38,29.38,0,0,1-2.4,10.2l-3.15,10.51ZM137,129l9.64-27.87a29.67,29.67,0,0,0,2.41-11.3,23.41,23.41,0,0,0-.22-3.24A31.55,31.55,0,0,1,137,129Zm21.88-24c.05-1.74.07-2.07.07-2.86a38.23,38.23,0,0,0-18.28-32.6l-14.65-27.1L172.17,105Z" fill="#010101"/><path d="M117.38,34.07c.36.8.65,1.41,1.46,1.41h4.52c.81,0,1.1-.69,1.46-1.47l2.93-5.85c.37-.84-.65-1.34-1.46-1.34h-4.22V19c0-.59-1.73-.61-1.73,0v7.82H116.2c-.8,0-1.77.6-1.46,1.33Z" fill="#010101"/><path d="M64.5,99.88C66.23,98.07,68.88,86,68.88,86l7,.34s1-.1.69-.91c-.47-1.3-6.8-13.3-15.16-4.58C53.93,90,40,105.57,40,105.57l6.44,7.33,7.82-12.18S60.7,103.88,64.5,99.88Z" fill="#010101"/><path d="M164.1,85.47c-.29.81.69.91.69.91l7-.35s2.67,12,4.39,13.84c3.8,4,10.29.86,10.29.86l7.83,12.17,6.44-7.34s-14-15.57-21.55-24.68C170.9,72.17,164.58,84.16,164.1,85.47Z" fill="#010101"/><path d="M55,174.17l-7.06,24.12H44L38.66,182.2l-5.33,16.09H29.19l-6.83-24.12h4.58l4.82,17.12,5.38-17.12h3.07l5.58,16.67,4.61-16.67Z" fill="#010101"/><path d="M76.59,195.32A11.34,11.34,0,0,1,68,198.77a12.4,12.4,0,0,1-4.77-.9,10.76,10.76,0,0,1-3.77-2.55A11.52,11.52,0,0,1,57,191.37a15.34,15.34,0,0,1,0-10.27,11.89,11.89,0,0,1,2.47-4,10.59,10.59,0,0,1,3.75-2.55,12.58,12.58,0,0,1,4.77-.89,12.24,12.24,0,0,1,4.78.91,11.09,11.09,0,0,1,3.77,2.57,11.75,11.75,0,0,1,2.47,4,14.29,14.29,0,0,1,.87,5.1A12.55,12.55,0,0,1,76.59,195.32Zm-3.31-15.15A6.38,6.38,0,0,0,68,177.89a7,7,0,0,0-3,.59,6.1,6.1,0,0,0-2.2,1.69,7.52,7.52,0,0,0-1.37,2.63,12.74,12.74,0,0,0,0,6.82,7.52,7.52,0,0,0,1.37,2.63A6.15,6.15,0,0,0,65,194a8,8,0,0,0,6.06,0,6.13,6.13,0,0,0,2.21-1.7,7.5,7.5,0,0,0,1.36-2.63,11.59,11.59,0,0,0,.46-3.41A9.5,9.5,0,0,0,73.28,180.17Z" fill="#010101"/><path d="M102.25,198.29H97.67l-5-9H88.2v9H83.79V174.17h8.82q8.3,0,8.29,7a7.59,7.59,0,0,1-1.07,4.21,9.61,9.61,0,0,1-3,2.82ZM91.6,177.86H88.2v7.33h3.24c1.86,0,3.14-.31,3.82-.94a3.59,3.59,0,0,0,1-2.81,3.43,3.43,0,0,0-1-2.7,5.77,5.77,0,0,0-3.7-.88Z" fill="#010101"/><path d="M114.38,198.29h-9V174.17h9a13,13,0,0,1,4.79.85,10.56,10.56,0,0,1,3.76,2.42,10.74,10.74,0,0,1,2.44,3.78,14.62,14.62,0,0,1,0,10.06,10.48,10.48,0,0,1-6.2,6.19A13.28,13.28,0,0,1,114.38,198.29Zm0-19.91h-4.62v15.71h4.62a6.62,6.62,0,0,0,5.25-2.06,10.18,10.18,0,0,0,0-11.59A6.59,6.59,0,0,0,114.38,178.38Z" fill="#010101"/><path d="M140.6,198.77a12.42,12.42,0,0,1-4.78-.9,10.85,10.85,0,0,1-3.77-2.55,11.43,11.43,0,0,1-2.46-3.95,14.55,14.55,0,0,1-.88-5.14,14.25,14.25,0,0,1,.89-5.13,12.22,12.22,0,0,1,2.47-4,10.73,10.73,0,0,1,3.75-2.55,12.6,12.6,0,0,1,4.78-.89,15.71,15.71,0,0,1,6.85,1.41l-.48,4.21a16.69,16.69,0,0,0-6.37-1.42,7.08,7.08,0,0,0-3,.59,6.19,6.19,0,0,0-2.2,1.7A7.45,7.45,0,0,0,134,182.8a12.74,12.74,0,0,0,0,6.82,7.5,7.5,0,0,0,1.36,2.63,6.42,6.42,0,0,0,2.2,1.7,7.39,7.39,0,0,0,3,.59,16.69,16.69,0,0,0,6.37-1.42l.48,4.21A15.7,15.7,0,0,1,140.6,198.77Z" fill="#010101"/><path d="M169.92,198.29h-4.59l-2.06-5.82h-8l-2.07,5.82h-4.61l8.59-24.12h4.14Zm-8.17-10.1-2.53-7.06-2.48,7.06Z" fill="#010101"/><path d="M197.2,198.29h-4.58l-2-16.17-6.17,11.1-6.2-11.06-2.07,16.12h-4.57l3.33-24.12h3.62l5.89,11,5.86-11h3.62Z" fill="#010101"/><path d="M209.92,190.36h-4.31v7.93h-4.38V174.17h6.82a31.78,31.78,0,0,1,4.57.29,8.11,8.11,0,0,1,3.19,1.15,5.22,5.22,0,0,1,1.91,2.37,10.05,10.05,0,0,1,.64,3.88,9.68,9.68,0,0,1-.8,4.14,7.27,7.27,0,0,1-4.77,4A11.58,11.58,0,0,1,209.92,190.36Zm-.7-12.5h-3.61v8.37h3.72a5.05,5.05,0,0,0,3.49-1,4.45,4.45,0,0,0,1.06-3.39,6.61,6.61,0,0,0-.23-1.83,2.54,2.54,0,0,0-.76-1.24,3.32,3.32,0,0,0-1.43-.71A9.31,9.31,0,0,0,209.22,177.86Z" fill="#010101"/><path d="M78.16,232H63.83V207.86h4.41v19.83h9.92Z" fill="#010101"/><path d="M85.46,232H81.05V207.86h4.41Z" fill="#010101"/><path d="M97.78,232.46a20.38,20.38,0,0,1-4.74-.52,11.27,11.27,0,0,1-3.27-1.24l.51-5a8.83,8.83,0,0,0,3.09,1.83,12.75,12.75,0,0,0,4.5.76c2.87,0,4.3-.89,4.3-2.64a2.65,2.65,0,0,0-.36-1.37,3.88,3.88,0,0,0-.93-1.05,6.07,6.07,0,0,0-1.24-.76,10.64,10.64,0,0,0-1.32-.52l-3.25-1.14-1.37-.6a7.71,7.71,0,0,1-3.17-2.13,5.7,5.7,0,0,1-1.1-3.45,7.2,7.2,0,0,1,.51-2.67,6.3,6.3,0,0,1,1.59-2.3A7.65,7.65,0,0,1,94.25,208a11,11,0,0,1,3.89-.59,13.51,13.51,0,0,1,2.29.17,20.32,20.32,0,0,1,2.19.42,15.49,15.49,0,0,1,1.86.6,9.73,9.73,0,0,1,1.34.65l-.45,4.52a15.14,15.14,0,0,0-7.05-2.17,9.66,9.66,0,0,0-1.7.13,4.92,4.92,0,0,0-1.39.45,2.74,2.74,0,0,0-1,.79,1.89,1.89,0,0,0-.37,1.19,2.11,2.11,0,0,0,.43,1.39,3.66,3.66,0,0,0,1.28.88,19.92,19.92,0,0,0,2.12.78c.85.26,1.83.61,3,1l1.86.73a8.77,8.77,0,0,1,1.52.79,7.41,7.41,0,0,1,1.46,1.28,7,7,0,0,1,1.12,1.77,5.67,5.67,0,0,1,.45,2.29,11.12,11.12,0,0,1-.28,2.37,5.42,5.42,0,0,1-1.24,2.37,7.24,7.24,0,0,1-2.82,1.86A14.06,14.06,0,0,1,97.78,232.46Z" fill="#010101"/><path d="M120.05,232h-9.3V207.86h6.51a30.16,30.16,0,0,1,3.8.22,8,8,0,0,1,2.91.9,4.55,4.55,0,0,1,1.86,1.88,6.65,6.65,0,0,1,.66,3.2,6.22,6.22,0,0,1-2,5,6.91,6.91,0,0,1,3.19,2.17,5.81,5.81,0,0,1,1,3.61,7,7,0,0,1-.74,3.37,6.19,6.19,0,0,1-2,2.18,7.73,7.73,0,0,1-2.75,1.18A13.53,13.53,0,0,1,120.05,232Zm-1-20.36h-3.89v5.92h4.3a3.38,3.38,0,0,0,2.06-.64,2.5,2.5,0,0,0,.87-2.18,2.93,2.93,0,0,0-.84-2.43A4,4,0,0,0,119.08,211.61Zm.69,9.41h-4.58v7.2h4.34a6,6,0,0,0,3.44-.81,3.12,3.12,0,0,0,1.19-2.78c0-2.4-1.5-3.61-4.42-3.61Z" fill="#010101"/><path d="M151.3,229a11.34,11.34,0,0,1-8.55,3.45,12.59,12.59,0,0,1-4.77-.9,10.76,10.76,0,0,1-3.77-2.55,11.75,11.75,0,0,1-2.47-4,14.46,14.46,0,0,1-.88-5.13,14.06,14.06,0,0,1,.9-5.14,12,12,0,0,1,2.46-4,10.72,10.72,0,0,1,3.76-2.55,12.39,12.39,0,0,1,4.77-.89,12.19,12.19,0,0,1,4.77.91,11,11,0,0,1,3.77,2.57,11.75,11.75,0,0,1,2.47,4,14.07,14.07,0,0,1,.87,5.1A12.45,12.45,0,0,1,151.3,229ZM148,213.86a6.27,6.27,0,0,0-5.23-2.28,7.16,7.16,0,0,0-3,.59,6.13,6.13,0,0,0-2.21,1.7,7.26,7.26,0,0,0-1.36,2.63,12.7,12.7,0,0,0,0,6.81,7.34,7.34,0,0,0,1.36,2.63,6,6,0,0,0,2.21,1.69,7.77,7.77,0,0,0,6.06,0,6,6,0,0,0,2.2-1.69,7.5,7.5,0,0,0,1.36-2.63,11.83,11.83,0,0,0,.47-3.4,9.48,9.48,0,0,0-1.83-6Z" fill="#010101"/><path d="M176.9,232h-4.56l-2.07-5.82h-8.05L160.15,232h-4.58l8.58-24.11h4.14Zm-8.17-10.09-2.51-7.06-2.49,7.06Z" fill="#010101"/></g></svg>