<svg id="wclx19-symbol_01" xmlns="http://www.w3.org/2000/svg" viewBox="0 0 311.82 270.43"><title>wclx19-symbol_02</title><path d="M282,150.85c-.2-.23-20.46-22.79-31.25-35.81-.17-.2-.35-.4-.53-.59-6.39-6.68-12.78-8.08-17-8.08-7.06,0-12.63,3.6-16.65,7.76l-27.26-37h31.22c8.27,0,14-5.54,14-13.48V60.56c0-8-5.76-13.52-14-13.52H177.79a12.28,12.28,0,0,0-1.73-9.26,13.23,13.23,0,0,0-6.41-5V31.56c0-6.67-5.5-11.89-12.52-11.89s-12.49,5.22-12.49,11.89v1.21a13.39,13.39,0,0,0-6.26,5A12.23,12.23,0,0,0,136.64,47h-44a13.46,13.46,0,0,0-10,3.85,12.78,12.78,0,0,0-3.58,9.54V63.8a12.78,12.78,0,0,0,3.57,9.52,13.48,13.48,0,0,0,10,3.83h32.25L96.57,115.6c-4.07-4.76-10.1-9.23-18-9.23h0c-4.25,0-10.65,1.4-17.05,8.08-.2.2-.38.42-.57.64-10.7,13-30.94,35.55-31.14,35.78a11.25,11.25,0,0,0-.08,14.93l9.44,10.72a11.24,11.24,0,0,0,8.43,3.81l.84,0a11.17,11.17,0,0,0,5.38-1.87,12.5,12.5,0,0,0,12.73,11.32H76.2a79.76,79.76,0,0,0,17.22,24.72,15.07,15.07,0,0,0-7.63,13.09c0,.15,0,.35,0,.5a15.92,15.92,0,0,0,3.37,9.19c.13.17.27.34.41.5a38,38,0,0,0,28.65,13h.36a38.58,38.58,0,0,0,20-5.56,34.15,34.15,0,0,0,18.5,5.54h.11a34.36,34.36,0,0,0,18.72-5.59,38,38,0,0,0,19.89,5.59H196a38.91,38.91,0,0,0,28.81-13.15A15.09,15.09,0,0,0,219,213.52a82.09,82.09,0,0,0,17.26-23.83l11.6,0a13.1,13.1,0,0,0,13-9.93,11.28,11.28,0,0,0,2.61.51l.83,0a11.22,11.22,0,0,0,8.44-3.82l9.44-10.74A11.24,11.24,0,0,0,282,150.85Z" fill="#010101"/><path d="M213.47,223.72a3.59,3.59,0,0,0-2.5,1h0a23,23,0,0,1-16.22,6.72h-.38a22.22,22.22,0,0,1-15.9-6.58,3.94,3.94,0,0,0-2.75-1.15A3.36,3.36,0,0,0,173,225l-.08.08a21.2,21.2,0,0,1-15.39,6.58,20.77,20.77,0,0,1-15.33-6.45l-.08-.09a3.9,3.9,0,0,0-3-1.41,3.82,3.82,0,0,0-2.79,1.18l-.06.07a22.81,22.81,0,0,1-16.22,6.7,23.2,23.2,0,0,1-16.33-6.79,3.92,3.92,0,0,0-2.76-1.15A3.86,3.86,0,0,0,97,227.56v0a4.78,4.78,0,0,0,1,2.76,26.82,26.82,0,0,0,20.27,9.17,27.69,27.69,0,0,0,15.68-4.7,7.58,7.58,0,0,1,9.68.22,23.31,23.31,0,0,0,13.52,4.46,23,23,0,0,0,14-4.74,7.31,7.31,0,0,1,4.67-1.68,7.45,7.45,0,0,1,4.62,1.6,27,27,0,0,0,15.41,4.82,27.64,27.64,0,0,0,20.48-9.35,3.86,3.86,0,0,0-2.89-6.44Z" fill="#ffc91f"/><path d="M247.88,157.52H234.6l-67.53-91.6h53.46c2.55,0,2.8-1,2.8-2.25V60.56c0-1.27-.25-2.28-2.8-2.28H92.63c-2.54,0-2.32,1-2.32,2.28v3.11c0,1.28-.22,2.25,2.32,2.25H147.1l-67.44,91.6H66.54c-1.43,0-1.65-.16-1.65,1.4v17.24c0,1.56.22,2.36,1.65,2.36H83.69c10.16,27.16,26,36.67,46.4,45.25a18.71,18.71,0,0,0,3.42-2.71,7.63,7.63,0,0,1,10.78-.3c.21.21.41.42.6.64a17.14,17.14,0,0,0,12.57,5.22,17.49,17.49,0,0,0,12.64-5.41,7.13,7.13,0,0,1,5.58-2.53,7.57,7.57,0,0,1,5.35,2.21,30.06,30.06,0,0,0,2.75,2.29c19.81-8.84,36.23-21.73,45.08-44.74l19,.05c1.44,0,2.17-.8,2.17-2.36V158.92C250.05,157.36,249.32,157.52,247.88,157.52Zm-86.44-91.6,20.28,37.47a54.33,54.33,0,0,0-16.38-5.22s-2.18-23.11-3.9-32.28Zm-8.69,0c-1.8,9.08-4.18,31.87-4.18,31.87a54,54,0,0,0-15.72,5l19.89-36.83Zm-70.21,91.6,67.39-91.6L129,104.84a56.56,56.56,0,0,0-27.53,48.42c0,1.2,0,1.68.12,4.22Zm28.33-4.76a46,46,0,0,1,4-18.81l22,60.37a46.19,46.19,0,0,1-26.05-41.56ZM157.09,199A45.85,45.85,0,0,1,144,197.08l13.87-40.28,14.21,38.91a4.71,4.71,0,0,0,.33.63A46,46,0,0,1,157.07,199Zm6.36-67.87c2.79-.14,5.29-.43,5.29-.43a1.92,1.92,0,0,0-.3-3.82s-7.48.6-12.31.6c-4.54,0-12.17-.6-12.17-.6-2.49-.14-2.78,3.66-.3,3.82,0,0,2.36.29,4.85.43l7.2,19.72-10.08,30.33-16.88-50c2.79-.14,5.29-.43,5.29-.43a1.92,1.92,0,0,0-.29-3.82s-7.49.6-12.33.6c-.86,0-1.89,0-3-.06a46.19,46.19,0,0,1,69.81-8.72h-.59a8,8,0,0,0-7.76,8.2c0,3.81,2.19,7.06,4.54,10.85a24.29,24.29,0,0,1,3.81,12.74q0,5.93-3.52,14.93l-4.6,15.4Zm16.87,61.6,14.12-40.8A43.63,43.63,0,0,0,198,135.34a35.86,35.86,0,0,0-.31-4.75,46.2,46.2,0,0,1-17.32,62.1Zm32-35.17c.07-2.54.11-3,.11-4.19a56,56,0,0,0-26.77-47.73L164.25,65.92l67.52,91.6Z" fill="#ffc91f"/><path d="M151.54,53.67c.53,1.17,1,2.07,2.14,2.07h6.62c1.2,0,1.62-1,2.14-2.16L166.73,45c.54-1.24-1-2-2.14-2h-6.17V31.56c0-.86-2.54-.89-2.54,0V43h-6.06c-1.18,0-2.6.88-2.13,2Z" fill="#ffc91f"/><path d="M74.12,150c2.52-2.65,6.4-20.27,6.4-20.27l10.29.49s1.46-.14,1-1.33c-.68-1.9-9.94-19.47-22.19-6.7-11,13.36-31.46,36.16-31.46,36.16l9.43,10.72,11.46-17.83S68.55,155.89,74.12,150Z" fill="#ffc91f"/><path d="M220,128.93c-.42,1.19,1,1.33,1,1.33l10.31-.5s3.9,17.61,6.42,20.26c5.57,5.87,15.07,1.27,15.07,1.27l11.46,17.81,9.43-10.74s-20.47-22.8-31.54-36.15C229.92,109.46,220.66,127,220,128.93Z" fill="#ffc91f"/></svg>