<?xml version="1.0" encoding="utf-8"?>
<svg version="1.1" id="Wapuussoa" xmlns="http://www.w3.org/2000/svg" xmlns:xlink="http://www.w3.org/1999/xlink" x="0px" y="0px"
	 width="340.157px" height="340.156px" viewBox="0 0 340.157 340.156" enable-background="new 0 0 340.157 340.156"
	 xml:space="preserve">
<g id="Wapuussoa">
	<path id="Offset" fill="#FFFFFF" d="M145.688,313.852c-18.041,0-34.408-8.123-43.71-15.725
		c-9.293-7.599-14.266-16.291-14.002-24.482c0.251-7.76,3.869-14.307,9.625-18.016c-15.03-6.844-30.948-25.676-33.46-37.813
		c-1.564-7.553,0.016-14.711,4.45-20.153c3.023-3.714,7.164-6.261,11.79-7.341c-0.049-1.118-0.073-2.26-0.073-3.393
		c0-1.381,0.039-2.787,0.121-4.299c0.021-0.363,0.048-0.717,0.078-1.068l0.026-0.342c0.067-0.93,0.145-1.891,0.249-2.844
		c0.051-0.461,0.108-0.896,0.167-1.332l0.039-0.291c0.108-0.836,0.231-1.709,0.374-2.578c0.094-0.564,0.191-1.096,0.291-1.631
		c0.161-0.859,0.334-1.717,0.524-2.568c0.106-0.483,0.228-1.012,0.355-1.537c0.213-0.873,0.442-1.729,0.681-2.584l0.085-0.303
		c0.106-0.381,0.215-0.766,0.331-1.15c0.278-0.928,0.59-1.875,0.915-2.815l0.087-0.258c0.08-0.246,0.177-0.531,0.279-0.816
		c0.439-1.225,0.911-2.443,1.4-3.613l0.059-0.146c0.558-1.326,1.152-2.639,1.788-3.941c0.026-0.057,0.092-0.186,0.149-0.297
		c0.552-1.119,1.14-2.244,1.749-3.344l0.431-0.75c0.258-0.453,0.512-0.894,0.765-1.318c-0.189-2.141,0.022-4.309,0.623-6.442
		c-3.697-3.031-6.775-5.621-9.183-7.724c-2.641-2.02-4.641-3.701-6.112-5.135c-8.346-8.143-16.42-19.189-19.637-26.867
		c-1.803-4.297-0.651-8.903,2.934-11.733c0.793-0.627,2.903-2.295,6.199-2.295c1.613,0,3.255,0.405,4.88,1.211
		c4.592,2.271,11.264,7.006,17.311,12.1c-0.009-0.799,0.035-1.615,0.131-2.445c1.482-12.801,21.113-21.014,29.183-23.866
		c3.223-8.011,9.263-23.976,10.062-30.558c1.184-9.723,20.951-15.121,31.238-16.617c1.949-0.282,3.986-0.422,6.228-0.422
		c5.528,0,11.475,0.867,17.77,1.785c3.451,0.502,7.02,1.021,10.787,1.445l1.262,0.141c7.312,0.805,14.871,1.637,17.601,7.705
		c2.146,4.764,6.921,17.037,9.207,22.961c8.729,1.049,27.642,4.568,33.011,15.629c1.27,2.611,1.793,5.219,1.604,7.691
		c1.745-0.006,3.401-0.013,4.942-0.013c7.402,0,9.682,0.132,10.934,0.259c6.742,0.682,11.828,6.309,11.828,13.09
		c0,1.99-0.414,5.188-2.387,9.115c-3.429,6.819-11.764,15.51-24.877,19.444c-1.729,0.519-3.509,0.896-5.322,1.131
		c5.482,16.558,7.875,40.459,6.107,61.529c-2.865,34.133-15.082,51.293-25.4,59.805l-0.493,1.556
		c-0.038,0.119-0.079,0.242-0.122,0.36c-10.266,29.021-40.234,54.695-72.878,62.424C154.521,313.352,150.15,313.852,145.688,313.852
		z"/>
	<path id="Contour" fill="#FFFFFF" d="M271.653,89.551c-1.044-0.107-3.166-0.229-10.361-0.229c-2.748,0-5.875,0.017-9.201,0.031
		c-1.707,0.01-3.471,0.021-5.26,0.025c3.744-2.738,5.035-6.357,2.814-10.931c-5.246-10.805-31.949-12.811-31.949-12.811
		s-7.561-19.758-10.34-25.93c-1.499-3.332-7.848-3.81-14.326-4.537c-13.332-1.5-24.166-4.166-33.333-2.834
		c-13.8,2.008-25.94,7.694-26.427,11.69c-1.178,9.705-11.421,34.42-11.421,34.42s-26.474,8.36-27.819,19.976
		c-1.259,10.873,10.16,14.303,20.253,13.365l-2.394,1.664c-4.815,3.348-9.345,5.498-10.521,5.76c-0.72,0.158-1.39,0.41-2.011,0.733
		c-0.667-0.813-1.338-1.618-2.011-2.409c-1.494-1.927-3.007-3.738-4.485-5.304c-6.707-7.096-18.089-15.903-24.417-19.035
		c-2.757-1.362-4.288-0.153-5.054,0.451c-0.719,0.566-2.397,2.281-1.217,5.097c2.741,6.543,10.187,17.02,18.365,24.995
		c1.427,1.394,3.446,3.052,5.745,4.804c3.636,3.182,8.399,7.106,12.425,10.371c-1.61,2.869-2.198,5.912-1.654,8.805
		c0.036,0.191,0.075,0.383,0.119,0.57c-0.072,0.112-0.143,0.223-0.209,0.33c-0.537,0.858-1.055,1.733-1.563,2.627l-0.384,0.668
		c-0.578,1.045-1.128,2.096-1.653,3.164c-0.033,0.063-0.085,0.164-0.109,0.215c-0.592,1.215-1.144,2.43-1.641,3.612
		c-0.022,0.056-0.045,0.109-0.066,0.164c-0.449,1.076-0.889,2.209-1.303,3.361c-0.084,0.234-0.163,0.469-0.24,0.703l-0.102,0.303
		c-0.3,0.867-0.587,1.74-0.849,2.613c-0.104,0.344-0.201,0.688-0.298,1.035l-0.082,0.291c-0.222,0.795-0.436,1.592-0.633,2.399
		c-0.117,0.482-0.229,0.968-0.331,1.437c-0.176,0.787-0.336,1.578-0.484,2.375c-0.093,0.496-0.185,0.99-0.27,1.502
		c-0.132,0.807-0.246,1.617-0.35,2.418l-0.04,0.299c-0.053,0.389-0.104,0.777-0.149,1.187c-0.097,0.885-0.168,1.776-0.232,2.67
		l-0.03,0.387c-0.025,0.295-0.049,0.592-0.065,0.889c-0.076,1.408-0.113,2.713-0.113,3.992c0,1.213,0.03,2.441,0.092,3.658
		c0.023,0.475,0.062,0.942,0.1,1.412l0.078,1.016c0.026,0.387,0.055,0.775,0.093,1.154c0.043,0.424,0.092,0.848,0.146,1.27
		c-5.263-0.313-10.268,1.836-13.498,5.804c-3.336,4.096-4.506,9.573-3.294,15.426c2.435,11.764,20.891,32.078,34.888,35.438
		c1.417,0.343,2.771,0.515,4.027,0.515c3.857,0,7.044-1.625,8.975-4.58c0.197-0.301,0.377-0.609,0.54-0.924
		c10.483,7.043,22.636,11.229,35.311,12.108c0.618,1.342,1.403,2.498,2.364,3.492c2.471,2.553,5.915,3.846,10.236,3.846
		c0.895,0,1.804-0.059,2.787-0.18c0.247-0.031,0.484-0.07,0.701-0.109l0.104-0.018c0.68-0.111,1.297-0.24,1.864-0.391
		c0.281-0.072,0.563-0.148,0.82-0.229c0.627-0.193,1.252-0.42,1.813-0.654c0.19-0.073,0.383-0.151,0.576-0.239
		c0.771-0.353,1.508-0.744,2.131-1.132c0.129-0.077,0.252-0.157,0.373-0.239c0.529-0.342,1.062-0.726,1.553-1.115
		c0.144-0.113,0.281-0.229,0.492-0.408c0.428-0.36,0.845-0.744,1.217-1.117c0.01-0.008,0.087-0.084,0.096-0.092l0.316-0.322
		c0.227-0.237,0.445-0.479,0.66-0.727l1.865,0.006c3.336,0,6.732-0.264,10.133-0.779c-11.588,12.996-28.548,22.005-43.617,22.291
		c-0.208,0.005-0.416,0.007-0.621,0.007c-5.689,0-13.329-1.443-17.418-8.32c-5.419-9.113-14.12-14.773-22.708-14.773
		c-1.464,0-2.885,0.175-4.227,0.519c-6.723,1.731-11.054,7.59-11.303,15.289c-0.205,6.387,4.029,13.457,11.924,19.912
		c8.544,6.981,23.571,14.442,40.122,14.442c4.022,0,7.955-0.449,11.687-1.334c30.872-7.309,59.182-31.492,68.844-58.807
		c0.021-0.06,0.039-0.117,0.059-0.176l1.018-3.203c10.037-7.658,21.84-23.658,24.633-56.916c1.765-21.025-0.729-44.881-6.354-60.773
		c-0.707-1.996-1.473-3.957-2.293-5.875c4.161,0.482,8.152,0.15,11.881-0.967c11.387-3.418,18.541-10.795,21.439-16.561
		c1.475-2.935,1.783-5.193,1.783-6.57C278.383,93.141,275.491,89.938,271.653,89.551z"/>
	<g id="Wapuu_background_2_">
		<path d="M271.084,95.146c-1.316-0.135-4.521-0.199-9.793-0.199c-2.74,0-5.856,0.017-9.17,0.031
			c-3.766,0.021-7.783,0.041-11.797,0.041c-7.139,0-17.24-0.059-23.811-0.539c-0.008-0.006-0.016-0.012-0.023-0.018
			c-0.531-0.404-1.068-0.805-1.615-1.195c-0.737-0.531-1.485-1.055-2.26-1.559c-0.002,0-0.004-0.002-0.006-0.002
			c-0.002-0.002-0.004-0.004-0.006-0.004c-8.705-5.576-18.512-8.566-29.15-8.89l0,0c-0.875-0.024-1.76-0.039-2.631-0.039
			c-25.338-0.002-47.61,11.33-59.578,30.314c-0.258,0.406-0.499,0.811-0.73,1.215l0,0l-5.414,3.764
			c-4.64,3.228-10.021,6.078-12.519,6.636c-0.397,0.088-0.735,0.248-1.007,0.475c-0.555,0.459-0.801,1.197-0.631,1.885
			c0.078,0.318,0.238,0.609,0.464,0.847c0.269,0.299,0.53,0.522,0.846,0.737c2.421,1.633,7.317,1.681,13.709-0.026l1.703-0.455
			c0.024,0.086,0.043,0.174,0.067,0.258c0.49,1.608,1.281,2.914,2.174,3.934c-1.176,0.832-2.327,1.697-3.445,2.603
			c-0.197-0.115-0.4-0.215-0.611-0.301c-0.412-0.162-0.888-0.244-1.42-0.244c-2.882,0-6.982,2.321-9.541,5.403
			c-1.096,1.322-2.851,3.972-2.307,6.865c0.167,0.889,0.457,1.668,0.841,2.344c-0.422,0.611-0.827,1.232-1.229,1.855
			c-0.152,0.24-0.309,0.477-0.459,0.719c-0.496,0.793-0.974,1.603-1.438,2.418c-0.117,0.207-0.24,0.41-0.357,0.619
			c-0.539,0.975-1.057,1.963-1.549,2.965c-0.024,0.051-0.053,0.103-0.078,0.152c-0.533,1.096-1.039,2.205-1.513,3.332
			c-0.007,0.018-0.013,0.037-0.021,0.055c-0.442,1.053-0.855,2.121-1.243,3.201c-0.111,0.309-0.209,0.621-0.315,0.93
			c-0.275,0.799-0.539,1.601-0.783,2.41c-0.121,0.4-0.23,0.803-0.344,1.205c-0.205,0.736-0.404,1.475-0.586,2.219
			c-0.107,0.443-0.209,0.888-0.307,1.33c-0.161,0.726-0.309,1.451-0.445,2.185c-0.086,0.461-0.171,0.92-0.248,1.383
			c-0.122,0.744-0.227,1.492-0.324,2.244c-0.06,0.448-0.123,0.899-0.174,1.354c-0.089,0.816-0.154,1.642-0.214,2.467
			c-0.028,0.394-0.067,0.781-0.089,1.177c-0.066,1.221-0.105,2.446-0.105,3.686c0,1.131,0.028,2.254,0.084,3.371
			c0.03,0.592,0.086,1.176,0.131,1.762c0.041,0.517,0.067,1.033,0.119,1.545c0.08,0.797,0.188,1.584,0.295,2.371
			c0.039,0.289,0.066,0.582,0.11,0.871c0.138,0.92,0.304,1.828,0.478,2.734c0.027,0.147,0.05,0.299,0.078,0.444
			c0.199,0.998,0.426,1.984,0.668,2.966c0.013,0.051,0.022,0.104,0.037,0.153c0.069,0.281,0.14,0.562,0.213,0.843
			c-2.67-1.931-5.549-2.957-8.359-2.957c-3.205,0-6.16,1.37-8.107,3.762c-2.246,2.758-3.009,6.57-2.146,10.731
			c2.041,9.865,18.859,28.271,30.695,31.109c0.986,0.238,1.898,0.357,2.711,0.357c1.949,0,3.385-0.685,4.266-2.031
			c1.544-2.363,1.061-6.244,0.314-8.89c11.729,10.813,27.319,17.484,44.442,17.695c0.354,2.043,1.015,3.801,2.209,5.035
			c1.39,1.436,3.415,2.133,6.194,2.133c0.662,0,1.345-0.045,2.085-0.137c0.155-0.021,0.304-0.045,0.454-0.07l0.143-0.024
			c0.5-0.082,0.946-0.175,1.366-0.285c0.196-0.051,0.392-0.104,0.582-0.162c0.448-0.137,0.896-0.299,1.328-0.48l0.088-0.034
			c0.098-0.037,0.194-0.076,0.289-0.119c0.555-0.252,1.077-0.531,1.557-0.828c0.057-0.033,0.109-0.07,0.162-0.107
			c0.395-0.25,0.805-0.545,1.199-0.86c0.096-0.074,0.186-0.15,0.275-0.229l0.057-0.047c0.313-0.266,0.615-0.543,0.896-0.824
			l0.068-0.065c0.072-0.072,0.146-0.146,0.215-0.22c0.318-0.334,0.617-0.678,0.893-1.02c0.033-0.037,0.066-0.076,0.1-0.117
			c0.295-0.373,0.574-0.762,0.854-1.188c0.037-0.058,0.071-0.111,0.104-0.166l0,0l1.887,0.012l2.602,0.008h0.166
			c6.102,0,14.332-0.953,23.547-4.512l-0.318,0.584c-11.213,20.516-35.553,36.289-56.61,36.688
			c-10.498,0.191-18.631-3.756-22.976-11.063c-5.76-9.688-14.771-13.205-20.696-11.685c-4.332,1.117-6.914,4.771-7.084,10.021
			c-0.146,4.529,3.448,10.133,9.861,15.377c8.749,7.15,22.531,13.174,36.563,13.174c3.472,0,6.961-0.369,10.391-1.182
			c29.116-6.896,55.777-29.599,64.836-55.211l1.576-4.963c9.361-6.474,21.071-21.078,23.83-53.927
			c1.702-20.291-0.673-43.225-6.053-58.426c-1.568-4.436-3.436-8.656-5.568-12.598c-0.711-1.313-1.451-2.594-2.22-3.844
			l-0.288-0.468c6.156,2.92,11.131,3.746,14.744,3.746c2.29,0,4.512-0.315,6.605-0.944c9.677-2.904,15.66-8.979,18.031-13.695
			c1.031-2.055,1.186-3.418,1.186-4.047C272.758,96.043,272.036,95.242,271.084,95.146"/>
		
			<path fill="none" stroke="#000000" stroke-width="11.25" stroke-linecap="round" stroke-linejoin="round" stroke-miterlimit="10" d="
			M271.084,95.146c-1.316-0.135-4.521-0.199-9.793-0.199c-2.74,0-5.856,0.017-9.17,0.031c-3.766,0.021-7.783,0.041-11.797,0.041
			c-7.139,0-17.24-0.059-23.811-0.539c-0.008-0.006-0.016-0.012-0.023-0.018c-0.531-0.404-1.068-0.805-1.615-1.195
			c-0.737-0.531-1.485-1.055-2.26-1.559c-0.002,0-0.004-0.002-0.006-0.002c-0.002-0.002-0.004-0.004-0.006-0.004
			c-8.705-5.576-18.512-8.566-29.15-8.89l0,0c-0.875-0.024-1.76-0.039-2.631-0.039c-25.338-0.002-47.61,11.33-59.578,30.314
			c-0.258,0.406-0.499,0.811-0.73,1.215l0,0l-5.414,3.764c-4.64,3.228-10.021,6.078-12.519,6.636
			c-0.397,0.088-0.735,0.248-1.007,0.475c-0.555,0.459-0.801,1.197-0.631,1.885c0.078,0.318,0.238,0.609,0.464,0.847
			c0.269,0.299,0.53,0.522,0.846,0.737c2.421,1.633,7.317,1.681,13.709-0.026l1.703-0.455c0.024,0.086,0.043,0.174,0.067,0.258
			c0.49,1.608,1.281,2.914,2.174,3.934c-1.176,0.832-2.327,1.697-3.445,2.603c-0.197-0.115-0.4-0.215-0.611-0.301
			c-0.412-0.162-0.888-0.244-1.42-0.244c-2.882,0-6.982,2.321-9.541,5.403c-1.096,1.322-2.851,3.972-2.307,6.865
			c0.167,0.889,0.457,1.668,0.841,2.344c-0.422,0.611-0.827,1.232-1.229,1.855c-0.152,0.24-0.309,0.477-0.459,0.719
			c-0.496,0.793-0.974,1.603-1.438,2.418c-0.117,0.207-0.24,0.41-0.357,0.619c-0.539,0.975-1.057,1.963-1.549,2.965
			c-0.024,0.051-0.053,0.103-0.078,0.152c-0.533,1.096-1.039,2.205-1.513,3.332c-0.007,0.018-0.013,0.037-0.021,0.055
			c-0.442,1.053-0.855,2.121-1.243,3.201c-0.111,0.309-0.209,0.621-0.315,0.93c-0.275,0.799-0.539,1.601-0.783,2.41
			c-0.121,0.4-0.23,0.803-0.344,1.205c-0.205,0.736-0.404,1.475-0.586,2.219c-0.107,0.443-0.209,0.888-0.307,1.33
			c-0.161,0.726-0.309,1.451-0.445,2.185c-0.086,0.461-0.171,0.92-0.248,1.383c-0.122,0.744-0.227,1.492-0.324,2.244
			c-0.06,0.448-0.123,0.899-0.174,1.354c-0.089,0.816-0.154,1.642-0.214,2.467c-0.028,0.394-0.067,0.781-0.089,1.177
			c-0.066,1.221-0.105,2.446-0.105,3.686c0,1.131,0.028,2.254,0.084,3.371c0.03,0.592,0.086,1.176,0.131,1.762
			c0.041,0.517,0.067,1.033,0.119,1.545c0.08,0.797,0.188,1.584,0.295,2.371c0.039,0.289,0.066,0.582,0.11,0.871
			c0.138,0.92,0.304,1.828,0.478,2.734c0.027,0.147,0.05,0.299,0.078,0.444c0.199,0.998,0.426,1.984,0.668,2.966
			c0.013,0.051,0.022,0.104,0.037,0.153c0.069,0.281,0.14,0.562,0.213,0.843c-2.67-1.931-5.549-2.957-8.359-2.957
			c-3.205,0-6.16,1.37-8.107,3.762c-2.246,2.758-3.009,6.57-2.146,10.731c2.041,9.865,18.859,28.271,30.695,31.109
			c0.986,0.238,1.898,0.357,2.711,0.357c1.949,0,3.385-0.685,4.266-2.031c1.544-2.363,1.061-6.244,0.314-8.89
			c11.729,10.813,27.319,17.484,44.442,17.695c0.354,2.043,1.015,3.801,2.209,5.035c1.39,1.436,3.415,2.133,6.194,2.133
			c0.662,0,1.345-0.045,2.085-0.137c0.155-0.021,0.304-0.045,0.454-0.07l0.143-0.024c0.5-0.082,0.946-0.175,1.366-0.285
			c0.196-0.051,0.392-0.104,0.582-0.162c0.448-0.137,0.896-0.299,1.328-0.48l0.088-0.034c0.098-0.037,0.194-0.076,0.289-0.119
			c0.555-0.252,1.077-0.531,1.557-0.828c0.057-0.033,0.109-0.07,0.162-0.107c0.395-0.25,0.805-0.545,1.199-0.86
			c0.096-0.074,0.186-0.15,0.275-0.229l0.057-0.047c0.313-0.266,0.615-0.543,0.896-0.824l0.068-0.065
			c0.072-0.072,0.146-0.146,0.215-0.22c0.318-0.334,0.617-0.678,0.893-1.02c0.033-0.037,0.066-0.076,0.1-0.117
			c0.295-0.373,0.574-0.762,0.854-1.188c0.037-0.058,0.071-0.111,0.104-0.166l0,0l1.887,0.012l2.602,0.008h0.166
			c6.102,0,14.332-0.953,23.547-4.512l-0.318,0.584c-11.213,20.516-35.553,36.289-56.61,36.688
			c-10.498,0.191-18.631-3.756-22.976-11.063c-5.76-9.688-14.771-13.205-20.696-11.685c-4.332,1.117-6.914,4.771-7.084,10.021
			c-0.146,4.529,3.448,10.133,9.861,15.377c8.749,7.15,22.531,13.174,36.563,13.174c3.472,0,6.961-0.369,10.391-1.182
			c29.116-6.896,55.777-29.599,64.836-55.211l1.576-4.963c9.361-6.474,21.071-21.078,23.83-53.927
			c1.702-20.291-0.673-43.225-6.053-58.426c-1.568-4.436-3.436-8.656-5.568-12.598c-0.711-1.313-1.451-2.594-2.22-3.844
			l-0.288-0.468c6.156,2.92,11.131,3.746,14.744,3.746c2.29,0,4.512-0.315,6.605-0.944c9.677-2.904,15.66-8.979,18.031-13.695
			c1.031-2.055,1.186-3.418,1.186-4.047C272.758,96.043,272.036,95.242,271.084,95.146z"/>
		<path fill="#650231" d="M158.464,253.791c-36.868,0-66.861-29.994-66.861-66.861c0-36.869,29.993-66.863,66.861-66.863
			c36.869,0,66.863,29.994,66.863,66.863C225.327,223.797,195.333,253.791,158.464,253.791"/>
		<path fill="#761B47" d="M137.948,131.635c-7.455,0-14.529,1.615-20.911,4.496c-15.098,12.27-24.769,30.973-24.769,51.897
			c0,8.939,1.777,17.468,4.974,25.269c9.297,12.35,24.067,20.338,40.706,20.338c28.135,0,50.943-22.834,50.943-51
			C188.892,154.467,166.083,131.635,137.948,131.635"/>
	</g>
	<g id="Logo_WCLisboa_2_">
		<path fill="#FFFFFF" d="M145.362,215.785c-0.26,0.039-0.574,0.223-0.867,0.495l0,0c-1.928,1.828-3.801,2.992-5.361,3.128
			c-0.033,0.002-0.066,0.006-0.1,0.008c-1.538,0.141-2.72-0.752-3.522-2.424c-0.14-0.287-0.383-0.453-0.666-0.464
			c-0.295-0.024-0.61,0.142-0.854,0.459c-0.009,0.011-0.018,0.021-0.026,0.029c-1.403,1.584-2.94,2.369-4.42,2.133
			c-1.477-0.196-2.84-1.397-3.953-3.205c-0.008-0.014-0.016-0.026-0.022-0.041c-0.207-0.383-0.517-0.645-0.839-0.715
			c-0.288-0.067-0.56,0.023-0.741,0.261c-0.006,0.006-0.012,0.01-0.018,0.016c-1.09,1.311-2.454,1.695-3.997,1.065
			c-1.55-0.618-3.224-2.17-4.807-4.133c-0.267-0.33-0.573-0.582-0.855-0.709c-0.586-0.26-0.87,0.086-0.63,0.777
			c0.002,0.006,0.003,0.01,0.007,0.018c0.123,0.334,0.324,0.695,0.57,1.039c1.987,2.601,4.022,4.769,5.823,5.621
			c1.31,0.646,2.481,0.588,3.542-0.192c0.647-0.597,1.711-0.289,2.393,0.782c0.974,1.322,2.039,2.187,3.176,2.406
			c1.183,0.221,2.408-0.283,3.632-1.406c0.404-0.395,0.87-0.6,1.301-0.582c0.424,0.013,0.79,0.234,1.014,0.64
			c0.818,1.227,1.839,1.828,3.134,1.682c1.83-0.221,4.175-1.897,6.695-4.41c0.68-0.678,1.125-1.59,0.938-2.041
			c-0.081-0.198-0.276-0.289-0.545-0.242C145.362,215.781,145.362,215.783,145.362,215.785z"/>
		<path fill="#FFFFFF" d="M166.705,189.814c-1.79,0.092-3.574,0.174-5.351,0.246c-6.813-10.977-18.406-24.451-27.574-36.457
			c6.372-0.396,12.808-0.092,19.308,0.916c0.928,0.146,0.896-0.231,0.736-0.721c-0.133-0.41-0.27-0.818-0.409-1.229
			c-0.17-0.5-0.402-0.922-1.296-1.088c-14.994-2.668-29.693-0.887-44.093,5.326c-0.855,0.371-0.854,0.672-0.944,1.09
			c-0.072,0.338-0.143,0.676-0.211,1.015c-0.083,0.416-0.221,0.754,0.661,0.42c6.312-2.396,12.689-4.062,19.135-4.998
			c-7.714,13.36-18.111,26.112-24.667,34.594c-1.595-0.137-3.182-0.285-4.763-0.439c-0.521-0.051-0.609-0.104-0.506,0.32
			c0.379,1.562,0.843,3.121,1.391,4.68c0.149,0.425,0.305,0.66,0.795,0.775c-0.009,0.029,5.694,1.26,5.893,1.268
			c5.758,9.062,11.649,14.39,17.468,19.063c0.315-0.182,0.608-0.432,0.872-0.742c0.361-0.471,0.921-0.662,1.522-0.531
			c0.646,0.136,1.266,0.623,1.671,1.354c0.925,1.459,2.099,2.404,3.37,2.549c1.279,0.176,2.594-0.469,3.744-1.758
			c0.488-0.611,1.143-0.947,1.765-0.92c0.582,0.021,1.078,0.338,1.362,0.885c0.174,0.318,0.36,0.615,0.562,0.887
			c6.238-3.508,13.864-9.422,20.007-18.311c2.376-0.201,4.765-0.443,7.165-0.729c0.542-0.067,0.937-0.383,1.157-0.938
			c0.798-2.019,1.458-4.041,1.981-6.07C167.599,189.713,167.288,189.785,166.705,189.814z M131.768,153.75
			c2.781,4.881,5.83,9.932,8.809,15c-2.109-1.056-4.322-1.736-6.563-2.002c0.03,0.006-1.333-9.326-2.246-13.013
			C131.767,153.74,131.768,153.746,131.768,153.75z M128.668,154.07c-0.445,3.759-1.161,12.898-1.176,12.884
			c-2.108,0.483-4.151,1.323-6.066,2.44C123.997,164.457,126.522,159.303,128.668,154.07L128.668,154.07z M103.052,189.018
			c6.629-8.666,17.018-21.494,24.614-34.817c-2.308,5.534-5.021,10.965-7.745,16.133c-6.613,4.61-10.752,11.16-10.072,17.768
			c0.039,0.406,0.054,0.566,0.187,1.43C107.693,189.377,105.365,189.207,103.052,189.018z M113.367,188.082
			c-0.165-2.277,0.241-4.521,1.199-6.67c3.044,7.153,6.395,14.819,9.114,22.682c-5.344-3.68-9.831-9.879-10.32-16.012
			C113.362,188.082,113.364,188.082,113.367,188.082z M130.339,206.574c-1.453-0.115-2.878-0.507-4.276-1.146
			c1.5-4.922,3.322-10.035,5.204-15.279c1.714,5.127,3.199,10.291,4.182,15.414c0.018,0.09,0.044,0.172,0.079,0.25
			c-1.741,0.64-3.474,0.896-5.193,0.756C130.335,206.572,130.337,206.572,130.339,206.574z M133.561,179.982
			c1.101-0.069,2.105-0.194,2.105-0.194c0.416-0.035,0.732-0.408,0.698-0.826c-0.03-0.422-0.402-0.732-0.818-0.695l0,0
			c0,0-2.989,0.264-4.905,0.299c-1.797,0.025-4.806-0.123-4.805-0.121c-0.979-0.03-1.077,1.443-0.097,1.479
			c0,0,0.927,0.096,1.905,0.141c0.966,2.556,1.917,5.135,2.819,7.728c-1.348,3.955-2.672,7.838-3.863,11.619
			c-1.997-6.539-4.396-12.984-6.694-19.188c1.08-0.084,2.057-0.219,2.057-0.219c0.408-0.039,0.713-0.398,0.678-0.797
			c-0.038-0.4-0.403-0.691-0.809-0.646c0,0-2.924,0.318-4.798,0.396c-0.339,0.014-0.731,0.028-1.152,0.026
			c5.403-8.067,16.423-11.75,25.189-5.881c0.84,0.547,1.646,1.16,2.399,1.836c-0.083,0-0.16-0.002-0.243-0.002
			c-1.778,0.043-3.136,1.529-3.086,3.306c0.009,1.528,0.878,2.834,1.78,4.352c0.938,1.523,1.39,3.287,1.296,5.09
			c-0.096,1.576-0.724,3.562-1.854,5.947c-0.785,2.039-1.586,4.072-2.388,6.098C137.756,193.189,135.777,186.563,133.561,179.982z
			 M138.401,204.43c2.421-5.34,4.926-10.756,7.221-16.176c1.056-2.092,1.672-4.326,1.766-6.599c0.02-0.635-0.005-1.266-0.086-1.896
			c5.044,8.734-0.657,19.592-8.9,24.664C138.401,204.426,138.401,204.428,138.401,204.43z M152.483,190.365
			c0.16-0.989,0.203-1.18,0.257-1.633c1-7.549-3.622-14.877-10.536-19.102c-3.161-5.373-6.439-10.754-9.436-15.959
			c9.037,11.887,20.578,25.361,27.45,36.442C157.626,190.217,155.047,190.301,152.483,190.365z"/>
		<path fill="#FFFFFF" d="M128.031,149.191c0.203,0.447,0.362,0.767,0.765,0.709c0.752-0.106,1.505-0.203,2.259-0.285
			c0.405-0.043,0.515-0.467,0.652-0.954c0.376-1.209,0.727-2.418,1.046-3.63c0.108-0.528-0.406-0.807-0.779-0.762
			c-0.654,0.07-1.309,0.152-1.963,0.248c-0.13-1.561-0.268-3.125-0.412-4.69c-0.034-0.355-0.774-0.229-0.747,0.139
			c0.125,1.561,0.242,3.117,0.353,4.672c-0.641,0.104-1.282,0.221-1.923,0.348c-0.372,0.074-0.815,0.523-0.65,0.923
			C127.079,146.99,127.547,148.086,128.031,149.191z"/>
		<path fill="#FFFFFF" d="M91.443,190.436c0.735-1.106,1.646-2.391,2.701-3.834c0.011-0.045,3.694,1.535,5.456-0.029
			c0.719-0.67,1.732-6.008,1.799-6.045c1.296-0.022,2.596-0.041,3.898-0.053c0,0,0.557-0.072,0.369-0.447
			c-0.324-0.771-3.854-5.735-8.442-1.373c-1.826,1.937-3.928,3.855-5.739,5.412L91.443,190.436z"/>
		<path fill="#FFFFFF" d="M156.444,179.225c-0.188,0.455,0.407,0.527,0.407,0.527c1.417-0.041,2.839-0.074,4.266-0.104
			c0.105,0.021,1.245,6.666,1.986,7.592c1.891,2.093,6.068,0.255,6.088,0.277c1.141,2.037,2.086,3.976,2.781,5.793
			c1.735-1.332,3.457-2.623,5.146-3.861c0.285,0.193-6.375-7.034-11.492-12.448C160.35,171.9,156.818,178.418,156.444,179.225z"/>
	</g>
	<g id="Wapuu_body_2_">
		<path fill="none" stroke="#000000" stroke-width="3.725" stroke-miterlimit="10" d="M158.464,253.791
			c-36.868,0-66.861-29.994-66.861-66.861c0-36.869,29.993-66.863,66.861-66.863c36.869,0,66.863,29.994,66.863,66.863
			C225.327,223.797,195.333,253.791,158.464,253.791z"/>
		<path fill="#FF8800" d="M222.438,241.238c-5.333,3.673-10.549,6.314-15.486,8.222l-0.32,0.584
			c-11.213,20.516-35.551,36.289-56.609,36.688c-10.497,0.191-18.631-3.756-22.975-11.063c-5.76-9.688-14.771-13.205-20.697-11.685
			c-4.332,1.117-6.914,4.771-7.083,10.021c-0.146,4.529,3.448,10.133,9.86,15.377c8.748,7.15,22.53,13.174,36.562,13.174
			c3.472,0,6.962-0.369,10.392-1.183c29.115-6.895,55.777-29.598,64.837-55.21l1.574-4.963
			C222.474,241.213,222.456,241.227,222.438,241.238"/>
		
			<path fill="none" stroke="#000000" stroke-width="3.725" stroke-linecap="round" stroke-linejoin="round" stroke-miterlimit="10" d="
			M222.438,241.238c-5.333,3.673-10.549,6.314-15.486,8.222l-0.32,0.584c-11.213,20.516-35.551,36.289-56.609,36.688
			c-10.497,0.191-18.631-3.756-22.975-11.063c-5.76-9.688-14.771-13.205-20.697-11.685c-4.332,1.117-6.914,4.771-7.083,10.021
			c-0.146,4.529,3.448,10.133,9.86,15.377c8.748,7.15,22.53,13.174,36.562,13.174c3.472,0,6.962-0.369,10.392-1.183
			c29.115-6.895,55.777-29.598,64.837-55.21l1.574-4.963C222.474,241.213,222.456,241.227,222.438,241.238z"/>
		<path fill="#FF8800" d="M120.515,114.303l-5.414,3.768c-4.64,3.226-10.021,6.076-12.519,6.634
			c-0.397,0.088-0.735,0.246-1.007,0.475c-0.557,0.459-0.8,1.195-0.631,1.885c0.078,0.318,0.238,0.609,0.464,0.847
			c0.269,0.299,0.53,0.522,0.847,0.735c2.42,1.635,7.317,1.681,13.709-0.026l1.702-0.453
			C116.566,124.211,117.546,119.449,120.515,114.303"/>
		
			<path fill="none" stroke="#000000" stroke-width="3.725" stroke-linecap="round" stroke-linejoin="round" stroke-miterlimit="10" d="
			M120.515,114.303l-5.414,3.768c-4.64,3.226-10.021,6.076-12.519,6.634c-0.397,0.088-0.735,0.246-1.007,0.475
			c-0.557,0.459-0.8,1.195-0.631,1.885c0.078,0.318,0.238,0.609,0.464,0.847c0.269,0.299,0.53,0.522,0.847,0.735
			c2.42,1.635,7.317,1.681,13.709-0.026l1.702-0.453C116.566,124.211,117.546,119.449,120.515,114.303z"/>
		<path fill="#FFD200" d="M183.581,124.98c5.861,0.06,11.545,1.101,16.461,3.041c-5.062-1.998-10.932-3.053-16.978-3.053
			c-11.3,0-22.163,3.621-29.054,9.688c-5.342,4.699-5.623,8.318-4.918,10.525c1.012,3.182,4.732,5.562,9.477,6.059
			c0.428,0.046,0.892,0.066,1.381,0.066c3.13,0,7.188-0.9,11.484-1.854c5.242-1.164,11.188-2.484,16.718-2.484
			c2.067,0,3.923,0.178,5.67,0.539c11.563,2.393,19.411,9.488,31.291,20.231l1.476,1.334l-1.475-1.334
			c-1.279-1.157-2.506-2.264-3.701-3.336c2.526,7.043,3.914,14.623,3.914,22.525c0,6.527-0.959,12.834-2.711,18.803
			c2.195,1.07,3.998,2.422,5.213,3.992c-3.131-4.051-10.146-6.668-17.873-6.668c-1.113,0-2.235,0.057-3.334,0.168
			c-6.262,0.635-17.735,3.631-24.244,16.562l-1.133,2.247c0.142,0.4,0.266,0.783,0.363,1.136c0.217,0.744,0.417,1.485,0.613,2.266
			l0.037,0.15l0.021,0.094c0.186,0.746,0.34,1.422,0.473,2.063c1.619,7.785,0.764,13.089-1.144,19.125
			c-0.007,0.021-0.012,0.046-0.021,0.087c-0.006,0.03-0.143,0.782-0.481,1.889c-0.071,0.229-0.151,0.479-0.245,0.746l-0.02,0.055
			c-0.122,0.348-0.274,0.74-0.467,1.203c-0.078,0.186-0.154,0.371-0.241,0.563c-0.05,0.109-0.104,0.222-0.158,0.334l-0.052,0.105
			c-0.112,0.234-0.23,0.469-0.356,0.705c-0.073,0.139-0.147,0.275-0.226,0.414c-0.163,0.291-0.34,0.582-0.523,0.873l-0.048,0.078
			c-0.007,0.012-0.015,0.022-0.022,0.035l0,0l1.887,0.012l2.602,0.008h0.166c9.371,0,23.75-2.209,39.034-12.732
			c9.371-6.45,21.121-21.051,23.884-53.963c1.703-20.291-0.672-43.225-6.052-58.426c-1.569-4.436-3.437-8.656-5.567-12.598
			c-0.711-1.313-1.451-2.597-2.222-3.844l-0.287-0.468l-0.006,0.017c-4.457-7.146-9.521-12.791-15.674-17.478h0.001
			c-0.008-0.006-0.016-0.012-0.023-0.018c-0.531-0.404-1.068-0.806-1.615-1.193c-0.737-0.533-1.485-1.057-2.26-1.561
			c-0.002-0.002-0.004-0.002-0.006-0.004c-0.002,0-0.004-0.002-0.006-0.004c-8.705-5.574-18.512-8.563-29.15-8.888v0.002l0,0
			c-0.875-0.026-1.76-0.041-2.631-0.041c-25.338,0-47.61,11.332-59.578,30.313c-3.607,5.723-4.821,11.024-3.512,15.334
			c1.018,3.35,3.338,5.412,5.168,6.229c0.447,0.197,0.979,0.293,1.63,0.293c4.509,0,22.655-4.227,27.082-12.271
			c4.385,2.692,6.24,3.5,11.792,3.5c6.32,0,10.899-2.101,16.729-3.965c-0.767,0.246-1.542,0.487-2.323,0.725"/>
		
			<path fill="none" stroke="#000000" stroke-width="3.725" stroke-linecap="round" stroke-linejoin="round" stroke-miterlimit="10" d="
			M183.581,124.98c5.861,0.06,11.545,1.101,16.461,3.041c-5.062-1.998-10.932-3.053-16.978-3.053c-11.3,0-22.163,3.621-29.054,9.688
			c-5.342,4.699-5.623,8.318-4.918,10.525c1.012,3.182,4.732,5.562,9.477,6.059c0.428,0.046,0.892,0.066,1.381,0.066
			c3.13,0,7.188-0.9,11.484-1.854c5.242-1.164,11.188-2.484,16.718-2.484c2.067,0,3.923,0.178,5.67,0.539
			c11.563,2.393,19.411,9.488,31.291,20.231l1.476,1.334l-1.475-1.334c-1.279-1.157-2.506-2.264-3.701-3.336
			c2.526,7.043,3.914,14.623,3.914,22.525c0,6.527-0.959,12.834-2.711,18.803c2.195,1.07,3.998,2.422,5.213,3.992
			c-3.131-4.051-10.146-6.668-17.873-6.668c-1.113,0-2.235,0.057-3.334,0.168c-6.262,0.635-17.735,3.631-24.244,16.562l-1.133,2.247
			c0.142,0.4,0.266,0.783,0.363,1.136c0.217,0.744,0.417,1.485,0.613,2.266l0.037,0.15l0.021,0.094
			c0.186,0.746,0.34,1.422,0.473,2.063c1.619,7.785,0.764,13.089-1.144,19.125c-0.007,0.021-0.012,0.046-0.021,0.087
			c-0.006,0.03-0.143,0.782-0.481,1.889c-0.071,0.229-0.151,0.479-0.245,0.746l-0.02,0.055c-0.122,0.348-0.274,0.74-0.467,1.203
			c-0.078,0.186-0.154,0.371-0.241,0.563c-0.05,0.109-0.104,0.222-0.158,0.334l-0.052,0.105c-0.112,0.234-0.23,0.469-0.356,0.705
			c-0.073,0.139-0.147,0.275-0.226,0.414c-0.163,0.291-0.34,0.582-0.523,0.873l-0.048,0.078c-0.007,0.012-0.015,0.022-0.022,0.035
			l0,0l1.887,0.012l2.602,0.008h0.166c9.371,0,23.75-2.209,39.034-12.732c9.371-6.45,21.121-21.051,23.884-53.963
			c1.703-20.291-0.672-43.225-6.052-58.426c-1.569-4.436-3.437-8.656-5.567-12.598c-0.711-1.313-1.451-2.597-2.222-3.844
			l-0.287-0.468l-0.006,0.017c-4.457-7.146-9.521-12.791-15.674-17.478h0.001c-0.008-0.006-0.016-0.012-0.023-0.018
			c-0.531-0.404-1.068-0.806-1.615-1.193c-0.737-0.533-1.485-1.057-2.26-1.561c-0.002-0.002-0.004-0.002-0.006-0.004
			c-0.002,0-0.004-0.002-0.006-0.004c-8.705-5.574-18.512-8.563-29.15-8.888v0.002l0,0c-0.875-0.026-1.76-0.041-2.631-0.041
			c-25.338,0-47.61,11.332-59.578,30.313c-3.607,5.723-4.821,11.024-3.512,15.334c1.018,3.35,3.338,5.412,5.168,6.229
			c0.447,0.197,0.979,0.293,1.63,0.293c4.509,0,22.655-4.227,27.082-12.271c4.385,2.692,6.24,3.5,11.792,3.5
			c6.32,0,10.899-2.101,16.729-3.965c-0.767,0.246-1.542,0.487-2.323,0.725"/>
		<path fill="#FF8800" d="M214.763,94.385c-0.263,0-0.49,0.01-0.677,0.023c-0.644,0.055-1.213,0.438-1.506,1.016
			c-0.293,0.576-0.266,1.262,0.071,1.813c0.714,1.171,2.204,2.752,3.981,4.234l0.469,0.396
			c13.395,11.422,23.618,13.819,29.835,13.819c2.29,0,4.513-0.317,6.606-0.944c9.676-2.902,15.658-8.979,18.031-13.695
			c1.03-2.055,1.184-3.418,1.184-4.047c0-0.957-0.723-1.758-1.674-1.854c-1.316-0.135-4.521-0.199-9.793-0.199
			c-2.74,0-5.856,0.017-9.17,0.033c-3.765,0.021-7.783,0.039-11.797,0.039c-7.398,0-17.988-0.063-24.521-0.592
			C215.442,94.398,215.094,94.385,214.763,94.385"/>
		
			<path fill="none" stroke="#000000" stroke-width="3.725" stroke-linecap="round" stroke-linejoin="round" stroke-miterlimit="10" d="
			M214.763,94.385c-0.263,0-0.49,0.01-0.677,0.023c-0.644,0.055-1.213,0.438-1.506,1.016c-0.293,0.576-0.266,1.262,0.071,1.813
			c0.714,1.171,2.204,2.752,3.981,4.234l0.469,0.396c13.395,11.422,23.618,13.819,29.835,13.819c2.29,0,4.513-0.317,6.606-0.944
			c9.676-2.902,15.658-8.979,18.031-13.695c1.03-2.055,1.184-3.418,1.184-4.047c0-0.957-0.723-1.758-1.674-1.854
			c-1.316-0.135-4.521-0.199-9.793-0.199c-2.74,0-5.856,0.017-9.17,0.033c-3.765,0.021-7.783,0.039-11.797,0.039
			c-7.398,0-17.988-0.063-24.521-0.592C215.442,94.398,215.094,94.385,214.763,94.385z"/>
		<path fill="#FFD200" d="M114.431,134.412c-2.881,0-6.982,2.323-9.541,5.405c-1.096,1.322-2.851,3.97-2.308,6.863
			c0.62,3.305,2.813,5.203,6.015,5.203c2.58,0,5.444-1.326,7.666-3.549c2.541-2.541,3.67-5.939,3.022-9.092
			c-0.45-2.191-1.733-3.908-3.437-4.589C115.438,134.494,114.964,134.412,114.431,134.412"/>
		
			<path fill="none" stroke="#000000" stroke-width="3.725" stroke-linecap="round" stroke-linejoin="round" stroke-miterlimit="10" d="
			M114.431,134.412c-2.881,0-6.982,2.323-9.541,5.405c-1.096,1.322-2.851,3.97-2.308,6.863c0.62,3.305,2.813,5.203,6.015,5.203
			c2.58,0,5.444-1.326,7.666-3.549c2.541-2.541,3.67-5.939,3.022-9.092c-0.45-2.191-1.733-3.908-3.437-4.589
			C115.438,134.494,114.964,134.412,114.431,134.412z"/>
		<path fill="#FFD200" d="M162.474,201.941c-1.391,0-2.727,0.42-3.973,1.25c-7.399,4.935-5.155,14.302-2.986,23.361
			c0.604,2.527,1.23,5.141,1.6,7.543c0.469,3.045,0.353,6.549,0.239,9.938c-0.192,5.807-0.392,11.795,2.486,14.771
			c1.39,1.437,3.416,2.133,6.194,2.133c0.662,0,1.345-0.045,2.086-0.137c0.153-0.021,0.304-0.045,0.453-0.07l0.144-0.024
			c0.499-0.082,0.944-0.175,1.364-0.285c0.197-0.051,0.392-0.104,0.582-0.162c0.449-0.137,0.896-0.299,1.33-0.48l0.086-0.034
			c0.098-0.037,0.195-0.076,0.289-0.119c0.555-0.252,1.078-0.531,1.557-0.828c0.057-0.033,0.109-0.07,0.162-0.107
			c0.395-0.25,0.806-0.545,1.201-0.86c0.094-0.074,0.185-0.15,0.274-0.229l0.056-0.047c0.314-0.266,0.616-0.543,0.897-0.824
			l0.067-0.065c0.072-0.072,0.146-0.146,0.217-0.22c0.316-0.334,0.617-0.678,0.892-1.02c0.033-0.037,0.067-0.076,0.101-0.117
			c0.293-0.373,0.572-0.762,0.854-1.188c0.045-0.068,0.087-0.136,0.128-0.201l0.048-0.078c0.186-0.291,0.36-0.582,0.523-0.873
			c0.078-0.139,0.152-0.275,0.226-0.414c0.126-0.236,0.244-0.471,0.356-0.705l0.052-0.104c0.054-0.113,0.108-0.226,0.158-0.334
			c0.087-0.191,0.163-0.378,0.241-0.563c0.191-0.463,0.345-0.855,0.467-1.203l0.02-0.053c0.094-0.271,0.174-0.519,0.245-0.748
			c0.341-1.105,0.478-1.857,0.481-1.889c0.009-0.041,0.014-0.064,0.021-0.086c1.906-6.037,2.763-11.341,1.144-19.125
			c-0.133-0.642-0.287-1.316-0.473-2.063l-0.021-0.094l-0.037-0.15c-0.196-0.779-0.396-1.521-0.613-2.266
			C179.812,216.701,170.709,201.941,162.474,201.941"/>
		
			<path fill="none" stroke="#000000" stroke-width="3.725" stroke-linecap="round" stroke-linejoin="round" stroke-miterlimit="10" d="
			M162.474,201.941c-1.391,0-2.727,0.42-3.973,1.25c-7.399,4.935-5.155,14.302-2.986,23.361c0.604,2.527,1.23,5.141,1.6,7.543
			c0.469,3.045,0.353,6.549,0.239,9.938c-0.192,5.807-0.392,11.795,2.486,14.771c1.39,1.437,3.416,2.133,6.194,2.133
			c0.662,0,1.345-0.045,2.086-0.137c0.153-0.021,0.304-0.045,0.453-0.07l0.144-0.024c0.499-0.082,0.944-0.175,1.364-0.285
			c0.197-0.051,0.392-0.104,0.582-0.162c0.449-0.137,0.896-0.299,1.33-0.48l0.086-0.034c0.098-0.037,0.195-0.076,0.289-0.119
			c0.555-0.252,1.078-0.531,1.557-0.828c0.057-0.033,0.109-0.07,0.162-0.107c0.395-0.25,0.806-0.545,1.201-0.86
			c0.094-0.074,0.185-0.15,0.274-0.229l0.056-0.047c0.314-0.266,0.616-0.543,0.897-0.824l0.067-0.065
			c0.072-0.072,0.146-0.146,0.217-0.22c0.316-0.334,0.617-0.678,0.892-1.02c0.033-0.037,0.067-0.076,0.101-0.117
			c0.293-0.373,0.572-0.762,0.854-1.188c0.045-0.068,0.087-0.136,0.128-0.201l0.048-0.078c0.186-0.291,0.36-0.582,0.523-0.873
			c0.078-0.139,0.152-0.275,0.226-0.414c0.126-0.236,0.244-0.471,0.356-0.705l0.052-0.104c0.054-0.113,0.108-0.226,0.158-0.334
			c0.087-0.191,0.163-0.378,0.241-0.563c0.191-0.463,0.345-0.855,0.467-1.203l0.02-0.053c0.094-0.271,0.174-0.519,0.245-0.748
			c0.341-1.105,0.478-1.857,0.481-1.889c0.009-0.041,0.014-0.064,0.021-0.086c1.906-6.037,2.763-11.341,1.144-19.125
			c-0.133-0.642-0.287-1.316-0.473-2.063l-0.021-0.094l-0.037-0.15c-0.196-0.779-0.396-1.521-0.613-2.266
			C179.812,216.701,170.709,201.941,162.474,201.941z"/>
		<path fill="#FFD200" d="M85.456,201.033c2.977,0,6.029,1.139,8.832,3.293c5.414,4.166,15.375,23.295,18.248,29.862
			c0.965,2.207,2.318,7.744,0.338,10.773c-0.881,1.348-2.316,2.031-4.266,2.031c-0.813,0-1.725-0.119-2.712-0.357
			c-11.835-2.84-28.653-21.244-30.694-31.109c-0.861-4.161-0.1-7.975,2.146-10.731C79.296,202.404,82.251,201.033,85.456,201.033"/>
		
			<path fill="none" stroke="#000000" stroke-width="3.725" stroke-linecap="round" stroke-linejoin="round" stroke-miterlimit="10" d="
			M85.456,201.033c2.977,0,6.029,1.139,8.832,3.293c5.414,4.166,15.375,23.295,18.248,29.862c0.965,2.207,2.318,7.744,0.338,10.773
			c-0.881,1.348-2.316,2.031-4.266,2.031c-0.813,0-1.725-0.119-2.712-0.357c-11.835-2.84-28.653-21.244-30.694-31.109
			c-0.861-4.161-0.1-7.975,2.146-10.731C79.296,202.404,82.251,201.033,85.456,201.033"/>
	</g>
	<g id="Face_1_">
		<path fill="#FFD215" d="M205.532,95.172c-0.75-7.5-5.084-15.084-8.168-16c-5.505-1.637-27.598,4.59-46.583,6.75
			c-13.058,1.488-22.203,0.58-26.834,3.666c-4.631,3.088-8.704,13.223-6.917,21.834c1.054,5.076,4.064,10.354,14.584,9.084
			C157.71,117.348,205.769,97.545,205.532,95.172z"/>
		<g id="Face">
			
				<line fill="none" stroke="#000000" stroke-width="5" stroke-linecap="round" stroke-linejoin="round" stroke-miterlimit="10" x1="181.976" y1="99.488" x2="212.913" y2="88.48"/>
			<g>
				<path d="M140.871,109.705c-0.264,0-0.527-0.091-0.757-0.279c-0.587-0.48-0.725-1.414-0.307-2.088
					c0.163-0.262,4.041-6.42,9.769-6.984c5.401-0.521,10.253,4.765,10.455,4.99c0.52,0.574,0.533,1.525,0.033,2.121
					c-0.504,0.596-1.329,0.613-1.849,0.037c-0.041-0.045-4.201-4.574-8.416-4.16c-4.508,0.445-7.831,5.684-7.864,5.736
					C141.681,109.488,141.278,109.705,140.871,109.705z"/>
			</g>
			<path d="M163.163,91.863c0,0,3.563-3.071,9.447-4.146c8.148-1.482,13.471,4.537,13.471,4.537l-3.779,1.463
				c0,0-3.477-3.471-9.803-3.316c-3.315,0.156-5.682,2.088-7.563,2.935C163.244,94.094,163.163,91.863,163.163,91.863z"/>
			<path d="M139.165,96.254c0,0-3.563-3.074-9.453-4.148c-8.143-1.481-13.465,4.537-13.465,4.537l3.779,1.463
				c0,0,3.475-3.469,9.803-3.313c3.316,0.153,5.675,2.086,7.563,2.932C139.077,98.484,139.165,96.254,139.165,96.254z"/>
			<path d="M144.968,114.984c0,0,2.748,0.564,5.563,0.25c3.038-0.34,5.813-1.938,5.813-1.938s2,7,14,7.875
				c2.186,0.158,0.25,1.313-6.875,1.563c-7.138,0.25-9.358-4.401-12.604-3.729c-3.209,0.666-2.572,4.012-9.56,7.063
				c-9.875,4.313-10.655,2.806-8.899,2.039C144.862,122.678,144.968,114.984,144.968,114.984z"/>
			<circle cx="173.394" cy="100.871" r="3.395"/>
			<circle cx="132.652" cy="105.443" r="3.396"/>
			
				<ellipse transform="matrix(0.2084 -0.978 0.978 0.2084 32.1216 250.5118)" fill="none" stroke="#000000" stroke-width="4" stroke-miterlimit="10" cx="170.818" cy="105.412" rx="10.114" ry="12.021"/>
			
				<ellipse transform="matrix(0.2084 -0.978 0.978 0.2084 -5.1815 213.0889)" fill="none" stroke="#000000" stroke-width="4" stroke-miterlimit="10" cx="129.048" cy="109.745" rx="10.114" ry="12.02"/>
		</g>
	</g>
	<g id="Hat">
		<path d="M249.646,78.449c-5.246-10.806-31.949-12.812-31.949-12.812s-7.562-19.758-10.34-25.93
			c-1.499-3.332-7.849-3.81-14.326-4.537c-13.333-1.5-24.166-4.166-33.333-2.834c-13.8,2.008-25.94,7.694-26.427,11.69
			c-1.178,9.705-11.421,34.42-11.421,34.42s-26.475,8.359-27.82,19.975c-1.375,11.875,12.375,14.875,23,13
			c0.484-0.086,0.558-2.617,1.43-5.994c0.955-6.205,3.395-12.988,6.785-15.248c3.447-2.299,8.898-1.977,16.843-2.275
			c0.567-0.034,1.147-0.061,1.742-0.075c2.261-0.111,4.699-0.281,7.345-0.582c18.985-2.16,42.883-9.312,46.167-4.601
			c0.978,1.404,3.492,4.345,4.882,8.394c1.332,3.637,2.549,8.418,2.724,12.633c0.124,2.979,6.637-0.26,7.114-1.781
			c0.151-0.479,0.53-4.344,0.563-5.799C236.545,96.041,255.563,90.635,249.646,78.449z"/>
		<path opacity="0.5" fill="#FFFFFF" enable-background="new    " d="M126.405,77.131c0,0,17.852-5.014,35.469-7.789
			c19.654-3.098,43.302-4.211,51.781-3.816l-3.469-8.821c0,0-16.625-1.906-45.324,1.217c-20.819,2.268-33.75,6.75-33.75,6.75
			L126.405,77.131z"/>
	</g>
	<g id="Pen">
		<g>
			<path d="M80.539,123.74c6.896,6.728,27.547,19.664,27.547,19.664l3.477-4.123c0,0-9.961-17.799-18.701-27.049
				c-6.707-7.096-18.089-15.903-24.417-19.035c-2.757-1.362-4.288-0.153-5.054,0.451c-0.719,0.566-2.397,2.281-1.217,5.097
				C64.915,105.287,72.36,115.764,80.539,123.74z"/>
			<g>
				<path fill="#FFFFFF" d="M106.745,144.081c-2.75-2.185-13.066-10.407-19.668-16.172l9.601-9.619
					c6.81,8.016,13.65,17.809,15.474,20.455L106.745,144.081z"/>
				<path d="M96.615,119.768c6.047,7.221,11.987,15.618,14.235,18.855l-4.178,4.123c-3.343-2.659-12.028-9.613-18.131-14.89
					L96.615,119.768 M96.733,116.818l-11.117,11.14c7.623,6.737,21.201,17.457,21.201,17.457l6.631-6.545
					C113.448,138.869,105,126.398,96.733,116.818L96.733,116.818z"/>
			</g>
		</g>
		<g>
			<g>
				<path fill="#FFFFFF" d="M120.911,155.036c-0.042-0.036-4.204-3.662-7.874-3.688l-0.298-0.002l-0.179-0.238
					c-2.146-2.876-4.834-6.668-4.861-6.706l-0.293-0.414l4.657-4.636l0.417,0.321c0,0,5.067,3.908,6.748,5.217l0.295,0.23
					l-0.077,0.365c-0.482,2.307,2.364,6.157,3.502,7.446l0.363,0.412l-1.966,2.071L120.911,155.036z"/>
				<path d="M112.113,140.15c0,0,5.065,3.906,6.745,5.215c-0.65,3.109,3.64,7.968,3.64,7.968l-1.19,1.254
					c0,0-4.322-3.812-8.267-3.836c-2.167-2.902-4.853-6.693-4.853-6.693L112.113,140.15 M112.013,138.558l-0.746,0.742l-3.925,3.906
					l-0.719,0.716l0.587,0.828c0.027,0.038,2.719,3.837,4.87,6.718l0.357,0.479l0.597,0.005c3.441,0.021,7.441,3.501,7.481,3.535
					l0.868,0.764l0.795-0.837l1.19-1.254l0.756-0.797l-0.726-0.823c-1.504-1.707-3.748-5.099-3.365-6.928l0.153-0.731l-0.59-0.46
					c-1.681-1.311-6.75-5.219-6.75-5.219L112.013,138.558L112.013,138.558z"/>
			</g>
			
				<line fill="none" stroke="#000000" stroke-width="1.2" stroke-miterlimit="10" x1="121.957" y1="154.102" x2="114.55" y2="146.533"/>
			<g>
				<path fill="#761B47" d="M114.595,147.254c-0.054,0-0.108-0.006-0.161-0.02c-0.37-0.088-0.602-0.464-0.515-0.838
					c0.075-0.313,0.353-0.533,0.674-0.533c0.054,0,0.108,0.007,0.161,0.02c0.373,0.088,0.605,0.461,0.518,0.834
					C115.198,147.033,114.919,147.254,114.595,147.254z"/>
				<path d="M114.593,145.364c-0.542,0-1.029,0.371-1.161,0.922c-0.148,0.643,0.249,1.284,0.889,1.438
					c0.092,0.021,0.184,0.031,0.274,0.031c0.543,0,1.034-0.371,1.164-0.924c0.149-0.642-0.247-1.283-0.89-1.435
					C114.776,145.375,114.684,145.364,114.593,145.364L114.593,145.364z"/>
			</g>
		</g>
		<g>
			
				<line fill="none" stroke="#FFFFFF" stroke-width="2" stroke-linecap="round" stroke-miterlimit="10" x1="66.769" y1="97.355" x2="82.72" y2="113.791"/>
			<path fill="#FFFFFF" d="M86.81,115.576c-0.198,1.53-1.6,2.612-3.129,2.418c-1.531-0.199-2.612-1.599-2.417-3.13
				c0.199-1.528,1.599-2.612,3.128-2.415C85.923,112.646,87.004,114.047,86.81,115.576z"/>
		</g>
	</g>
</g>
</svg>
