<svg xmlns="http://www.w3.org/2000/svg" width="133" height="31" fill-rule="evenodd"><path d="M28.93 17.327c-.222 0-.42.05-.566.148-1.083 1.802-2.044 2.592-3.67 2.592-1.403 0-2.364-.568-2.905-1.654 1.674-3.135 2.832-5.7 2.832-9.23C24.622 3.085 21.175 0 15.044 0S5.466 3.085 5.466 9.182c0 3.53 1.157 6.096 2.832 9.23-.542 1.086-1.502 1.654-2.905 1.654-1.625 0-2.585-.8-3.67-2.592-.148-.1-.345-.148-.566-.148C.443 17.327 0 17.87 0 19.03c0 2.814 2.487 5.134 6.082 5.134.936 0 1.92-.148 3.004-.543-1.428 3.554-3.004 4.295-5.12 3.776-.542.27-.714.84-.714 1.283 0 1.185 1.23 2.32 3.767 2.32 3.644 0 6.5-2.295 7.608-7.182.123-.123.222-.222.42-.222s.295.1.42.222C16.57 28.705 19.427 31 23.07 31c2.536 0 3.767-1.135 3.767-2.32 0-.444-.172-1.012-.714-1.283-2.118.518-3.693-.222-5.12-3.776 1.083.395 2.068.543 3.004.543 3.595 0 6.082-2.32 6.082-5.134 0-1.16-.443-1.703-1.157-1.703z" fill="#108f64"/><path d="M52.172 10.293h-7.327v3.764h6.592v2.695h-6.592v4.03h7.127V23.5H41.637V8.9c0-.802.646-1.292 1.36-1.292h9.176v2.695zm6.882 1.782c2.94 0 4.922 1.648 4.922 4.632V23.5h-2.673v-1.448c-.78 1.047-1.982 1.715-3.608 1.715-2.294 0-3.83-1.36-3.83-3.452 0-2.74 2.606-3.675 5.434-3.675a13.07 13.07 0 0 1 1.893.134v-.156c0-1.448-.98-2.138-2.36-2.138-1.047 0-2.227.38-3.385 1.27l-1.292-1.893c1.203-1.136 3.05-1.782 4.9-1.782zm-.624 9.443c1.648 0 2.65-1.247 2.762-2.962l-1.67-.067c-1.448 0-2.65.423-2.65 1.626 0 .824.6 1.403 1.56 1.403zm11.87 2.227c-1.76 0-3.497-.58-4.655-1.693l1.203-1.915c1.18.958 2.428 1.314 3.318 1.314.935 0 1.737-.38 1.737-1.1 0-.9-1.203-1.136-2.405-1.537-1.782-.6-3.23-1.38-3.23-3.252 0-2.25 1.938-3.497 4.5-3.497 1.58 0 3.118.512 4.187 1.292l-1.158 1.893c-1.024-.624-2.027-.935-2.895-.935-1.002 0-1.626.423-1.626 1.002 0 .757.935 1.024 1.96 1.36 1.826.6 3.83 1.247 3.83 3.497 0 2.338-2.25 3.563-4.766 3.563zm13.964-11.38h3.096L82.794 23.8c-.757 1.893-1.982 4.165-4.543 4.165-1.024 0-1.982-.356-2.695-1.002l1.07-2.093c.423.334.9.535 1.47.535.9 0 1.425-.557 1.87-1.58l.3-.713L76 12.367h3.118l2.628 7.483 2.54-7.483zM105.5 7.598h3.252l-3.63 14.855c-.245 1.002-1.314 1.292-2.25 1.292s-2.05-.245-2.294-1.292l-2.316-8.597-2.316 8.597c-.245 1.024-1.38 1.292-2.294 1.292-.935 0-2.004-.3-2.227-1.292L87.83 7.598h3.363l2.65 12.405 2.962-10.646h2.962l3.007 10.712 2.726-12.47zm11.567 0c3.675 0 5.48 2.36 5.48 5.234 0 3.363-2.004 5.234-5.7 5.234h-2.695V23.5h-3.207V8.9c0-.735.58-1.292 1.314-1.292h4.8zm-.388 7.817c1.648 0 2.583-.757 2.583-2.606 0-1.58-.935-2.54-2.606-2.54h-2.56v5.145h2.583zm11.298-7.7V8.3h-1.272V12h-.7V8.3h-1.278v-.594h3.24zm4.58-.024c.216 0 .378.096.378.27V12h-.684V8.928l-1.194 2.28h-.606l-1.206-2.274V12h-.672V7.968c0-.18.168-.276.384-.276.282 0 .354.102.474.33l1.326 2.514 1.332-2.514c.12-.228.18-.33.468-.33z" fill="#2b3a47"/></svg>