<svg id="Layer_2" xmlns="http://www.w3.org/2000/svg" viewBox="0 0 2126 591"><style>.st0{fill:#2f48b0}.st1{fill:#fff}</style><path class="st0" d="M582.9 252.1c-7.4-52.5-28.1-99.7-62.5-139.9-70.3-82-159.7-116-266.6-100.8-59.3 8.4-110.9 34.8-153.3 77-70.8 70.4-98.6 155.8-83.8 254.4 8.4 56 32.8 105 71.1 146.7 51.9 56.4 116.3 87.3 192.8 93.2.1.1.3.1.4.1H281.3c.5 0 .9.1 1.4.1h5.3c1.7.2 3.5-.2 5.2.2.4 0 .7-.1 1.1-.1.5 0 1 .1 1.4.1h.5c.4 0 .7.1 1.1.1.4 0 .7-.1 1.1-.1.3 0 .6.1.9.1.3 0 .6-.1.9-.1.4 0 .8.1 1.2.1.4 0 .7-.1 1.2-.1.3 0 .7-.1 1-.1.4 0 .8.1 1.3.1h.8c1.8-.4 3.6 0 5.4-.2h4.7c.4 0 .8-.1 1.2-.1h.3c.4 0 .7-.1 1.1-.1h.1c10.8-.8 21.6-2 32.3-4 68.9-13 126.1-46.3 170.3-100.7 53.4-66 73.7-141.8 61.8-225.9zM2113.1 341.6c-.2 0-.5-.1-.7-.1-1.6-4.4-1.6-8.8 0-13.2.2 0 .5-.1.7-.1v13.4zM1351.7 138.2c19 0 37.9.1 56.9-.1 3 0 4.1.7 4.6 3.9 12.7 76.3-41.2 128.6-88.7 141.2-82.7 21.9-144.5-36.6-155.7-93.9-16-81.7 42.3-137 92.9-147.6 43.5-9.2 81.7 1.4 114.6 31.2 1.9 1.8 1.8 2.7 0 4.4-10.3 10.2-20.5 20.4-30.7 30.7-1.8 1.9-2.8 1.8-4.7 0-39.8-36.9-105.9-20.8-122.1 34.7-12.1 41.5 13.9 84.2 55.9 93.4 35.1 7.7 71.3-11.5 84.9-44.9 1-2.6.9-3.3-2.2-3.3-21.2.1-42.4 0-63.6.1-2.8 0-3.5-.8-3.5-3.5.1-14.5.1-28.9 0-43.4 0-2.4.7-3 3-3 19.6.2 39 .1 58.4.1zM793.5 287.3c-2.1-4-98.4-246.1-99.1-248.8h29c7.1 0 14.1.1 21.2-.1 2.3-.1 3.2.7 4.1 2.8 14.3 35.3 28.6 70.5 42.9 105.8.5 1.2 1 2.5 1.8 4.2 15.3-37.6 30.4-74.8 45.8-112.7 15.3 37.8 30.5 75 45.8 112.8 2.7-6.5 5.2-12.6 7.6-18.7 12.2-30.2 24.4-60.4 36.5-90.6 1.1-2.8 2.5-3.5 5.4-3.5 15.3.2 30.5.1 45.8.1h4.1c-33.1 83-66.1 165.8-99.3 249.2-15.5-38.7-30.7-76.8-46.3-115.7-15.4 38.8-30.3 76.9-45.3 115.2zM1725.1 38.5c67.1-1.4 124.7 57.4 124.5 124.9-.2 67.2-57.3 124.6-124.9 124.5-67.7-.1-124.4-57.9-124.3-125.1.1-66.5 56.8-125.7 124.7-124.3zM994.9 163c0-40.3 0-80.6-.1-120.8 0-2.9.6-3.7 3.6-3.7 47.2.1 94.5.1 141.7 0 3 0 4 .6 3.9 3.8-.2 14.1-.2 28.3 0 42.4 0 2.9-.6 3.8-3.7 3.8-30.6-.1-61.3 0-91.9-.1-3 0-3.9.7-3.8 3.8.2 14.2.2 28.5 0 42.7 0 2.7.6 3.5 3.4 3.5 22.4-.1 44.9 0 67.3-.1 2.9 0 4 .5 3.9 3.8-.2 14.1-.2 28.3 0 42.4 0 3.2-1 3.8-3.9 3.8-22.4-.1-44.9 0-67.3-.1-2.9 0-3.5.7-3.4 3.5.1 14.4.1 28.7 0 43.1 0 2.7.7 3.3 3.3 3.3 30.7-.1 61.5 0 92.2-.1 3.1 0 3.9.8 3.8 3.9-.2 14.2-.2 28.5 0 42.7 0 2.9-.8 3.4-3.6 3.4-47.5-.1-94.9-.1-142.4 0-2.6 0-3.3-.7-3.3-3.3.3-40.7.3-81.2.3-121.7z"/><path class="st0" d="M2112.4 328.2v13.2c-1.3 0-2.7.1-4 .1H644.9c-4.7 0-4.7 0-4.7-4.5 0-2.1.1-4.3 0-6.4-.2-2.2.7-2.8 2.7-2.5.8.1 1.6 0 2.4 0h1462.8c1.4 0 2.9.1 4.3.1zM1925.9 188.1c0-31.9 0-63.7.1-95.6 0-3.2-.5-4.3-4.1-4.3-18.3.2-36.6 0-54.8.2-2.6 0-3.4-.6-3.4-3.3.1-14.5.1-28.9 0-43.4 0-2.5.5-3.2 3.1-3.2 56.1.1 112.2.1 168.2 0 2.5 0 2.9.8 2.9 3-.1 14.6-.1 29.2 0 43.7 0 2.6-.7 3.1-3.2 3.1-18.4-.1-36.8 0-55.2-.1-3 0-3.9.7-3.9 3.8.1 63.8 0 127.6.2 191.5 0 3.7-1.1 4.3-4.4 4.3-14-.2-28-.2-42.1 0-2.8 0-3.5-.6-3.5-3.5.1-32.1.1-64.1.1-96.2zM1429.2 163.2c0-40.4 0-80.8-.1-121.2 0-2.7.5-3.6 3.4-3.6 14.4.2 28.7.2 43.1 0 2.8 0 3.5.8 3.5 3.5-.1 63.9 0 127.9-.1 191.8 0 3.2.7 4.1 4 4 30.6-.1 61.3 0 91.9-.2 3 0 3.7.8 3.6 3.7-.2 14.2-.1 28.5 0 42.7 0 2.7-.5 3.6-3.4 3.6-47.6-.1-95.1-.1-142.7 0-2.8 0-3.2-.9-3.2-3.4V163.2zM642.8 402.5c1.2 1.6 2 2.5 2.7 3.4 15.2 20.4 30.4 40.8 45.5 61.3 1.7 2.3 2.4 2.7 4.3.1 15.2-20.6 30.5-41.1 45.8-61.6.6-.9 1.1-2 2.6-2.6v2.7c0 32.4 0 64.9.1 97.3 0 2.8-.7 3.6-3.5 3.5-4.9-.2-9.9-.2-14.8 0-2.2.1-2.6-.7-2.6-2.7.1-12.7 0-25.3 0-38.1-1.2.1-1.5 1.1-2 1.7-8.6 11.6-17.3 23.2-25.8 34.9-1.7 2.3-2.3 2-3.9-.1-8.9-12.2-18-24.3-27.1-36.5-1.1.8-.6 1.9-.6 2.8 0 11.7-.1 23.3 0 35 0 2.3-.5 3.1-2.9 3-4.9-.2-9.9-.2-14.8 0-2.5.1-3.2-.5-3.2-3.1.1-12.8.1-25.6.1-38.4v-58.6c.1-1.1.1-2.1.1-4zM1955.6 464.8c-8.9 0-17.5-.1-26.2 0-2.1 0-2.9-.4-2.8-2.7.2-5.2.1-10.3 0-15.5 0-2 .4-2.7 2.6-2.7 15.3.1 30.5.1 45.8 0 2.2 0 2.6 1 2.9 2.7 5.1 33.1-22.3 62.6-55.6 59.7-24.8-2.1-44.1-21.4-47.1-47-2.7-23.6 12.8-47.5 35.9-54.6 18.8-5.7 35.6-1.6 50.5 11.2 1.4 1.2 1.6 2 .1 3.4-3.9 3.7-7.7 7.5-11.4 11.5-1.4 1.5-2.1 1.1-3.4 0-9.2-7.7-19.6-9.8-30.8-5.6-11.2 4.2-18 12.7-20 24.6-2.6 15.4 7.3 30.7 22.5 34.9 15 4.1 31.1-3.9 36.9-18.4-.1-.4-.1-.7.1-1.5zM1309.8 464.8c-9.1 0-17.8-.1-26.4 0-2.2 0-2.9-.5-2.9-2.8.2-5.2.1-10.3 0-15.5 0-2 .6-2.7 2.7-2.7 15.1.1 30.3.1 45.4 0 2.2 0 2.8.7 3.1 2.8 4.8 26.4-14.6 54.2-41.5 59-27.6 5-54-12.5-60.1-39.8-5-22.2 5-45.1 24.8-56.8 18.6-11 43-8.5 59.6 5.9 2.2 1.9 2.6 3 .2 5.1-3.5 3-6.6 6.4-9.7 9.8-1.6 1.7-2.6 2.2-4.8.4-18.1-14.9-44.8-5.5-49.9 17.4-3.4 15.4 5.7 31.6 20.6 36.4 15.2 4.9 31.7-2.5 38.1-17.1.3-.4.5-1.1.8-2.1zM2016.2 402.4c20.8 19.1 41.1 37.7 62 56.9v-3.9c0-16.6.1-33.2-.1-49.8 0-2.7.8-3.4 3.4-3.3 5 .2 10.1.1 15.1 0 1.7 0 2.4.4 2.4 2.2-.1 33.7-.1 67.3-.1 101 0 .1-.1.2-.4.7-20.3-18.7-40.6-37.3-61-56-1 1.1-.5 2.4-.5 3.5 0 16.6-.1 33.2 0 49.8 0 2.5-.6 3.3-3.2 3.2-5-.2-10.1-.1-15.1 0-1.7 0-2.6-.2-2.6-2.3.1-33.8.1-67.5.1-102zM1217 506c-20.3-18.7-40.6-37.2-61.3-56.3-.1 1.7-.2 2.9-.2 4 0 16.5-.1 33 .1 49.5 0 2.7-.8 3.4-3.4 3.3-4.6-.2-9.2-.2-13.8 0-2.9.2-3.7-.5-3.7-3.6.1-27.5.1-55 .1-82.5v-18.1c20.8 19.1 41.1 37.7 61.4 56.3 1-1 .6-2.1.6-3 0-16.7.1-33.4 0-50.1 0-2.6.5-3.5 3.3-3.4 5 .2 10.1.1 15.1 0 1.6 0 2.4.3 2.4 2.2-.1 33.5-.1 67.1-.1 100.6.1.3-.1.5-.5 1.1zM836 436.3c0 9.8.1 19.5 0 29.3-.2 21.1-16.4 38.7-37.3 40.8-20.7 2.1-40-11.9-44.5-32.3-.7-3.1-1-6.2-1-9.3 0-19.7.1-39.5-.1-59.2 0-2.8.9-3.3 3.4-3.2 4.7.2 9.4.2 14.1 0 2.6-.1 3.4.6 3.4 3.3-.1 20-.1 39.9 0 59.9.1 11.3 9.3 20.2 20.5 20.2 11.3 0 20.6-9 20.6-20.4.1-19.6.1-39.2-.1-58.9 0-3.6 1-4.3 4.3-4.1 4.5.3 9 .2 13.4 0 2.5-.1 3.3.5 3.2 3.1 0 10.1.1 20.5.1 30.8zM1338.6 437.2c0-10.4.1-20.9-.1-31.3-.1-3.1.9-3.8 3.8-3.6 4 .2 8.1.1 12.1.1 4.9 0 4.9 0 4.9 4.7v57.2c0 12.5 9.4 21.7 21.5 21.4 11.2-.3 19.9-9.6 19.9-21.6.1-19.3.1-38.6 0-57.9 0-3 .6-4.1 3.8-3.9 4.7.3 9.4.2 14.1 0 1.9 0 2.8.4 2.8 2.6-.1 20.6.2 41.3-.2 61.9-.4 20.9-17.5 38.4-38 39.7-21.6 1.4-40.7-13.6-44-34.6-.5-3-.5-6-.5-9.1-.2-8.6-.1-17.1-.1-25.6zM1864.8 437.4c0 10.4.4 20.9-.1 31.3-1.1 21.1-19.8 37.9-41.5 37.8-21.3-.1-40.1-17.3-40.7-38.3-.6-21.2-.2-42.4-.3-63.6 0-2.1.9-2.4 2.6-2.4 5 .1 10.1.2 15.1 0 2.5-.1 2.9.8 2.9 3.1-.1 19.5-.1 39 0 58.6 0 10.6 6.3 18.9 15.8 21.2 13.3 3.1 25.5-6.6 25.6-20.6.1-19.4.1-38.8-.1-58.2 0-3.4 1-4.1 4.1-4 4.6.3 9.2.2 13.8 0 2.2-.1 2.9.6 2.9 2.8-.1 10.8 0 21.5 0 32.3h-.1zM1630.5 454c0-16.1.1-32.3-.1-48.4 0-2.7.7-3.4 3.3-3.3 12.7.4 25.4-.8 38 .6 18.5 1.9 33 20.2 31.1 38.7-2 19.9-16.4 33.2-36.4 33.8-3.9.1-7.9.2-11.8 0-2.9-.2-3.5.9-3.4 3.6.2 8.3 0 16.6.1 24.9 0 2.4-.7 3-3 2.9-5-.2-10.1-.2-15.1 0-2.3.1-2.8-.7-2.8-2.8.1-16.9.1-33.4.1-50zM1429.7 506.5c15.5-34.8 30.8-69.1 46.4-104.2 15.6 35 31 69.4 46.6 104.2h-20.9c-1.3 0-1.6-.9-2-1.8-1.7-3.9-3.6-7.7-5.2-11.7-.7-1.6-1.5-2.2-3.2-2.1-10.1.1-20.2.1-30.3 0-1.9 0-2.8.7-3.5 2.3-1.6 3.8-3.4 7.5-5 11.4-.6 1.4-1.4 2-3 2-6.4-.2-12.9-.1-19.9-.1zM963.9 464.8c0 12.9-.1 25.8.1 38.7 0 2.6-.7 3.2-3.2 3.1-4.9-.2-9.9-.2-14.8 0-2.5.1-2.9-.7-2.9-3 .1-25.6 0-51.2.1-76.7 0-3.2-.9-3.9-3.9-3.8-6.5.2-13 0-19.5.1-1.9 0-2.5-.5-2.5-2.4.1-5.4.1-10.8 0-16.2 0-1.7.6-2.3 2.3-2.3h67.7c1.6 0 2.4.3 2.4 2.2-.1 5.5-.1 11 0 16.5 0 1.9-.7 2.2-2.4 2.2-6.8-.1-13.7.1-20.5-.1-2.4-.1-3 .7-3 3 .1 12.8.1 25.8.1 38.7zM1710.8 454.3c0-16.1.1-32.3-.1-48.4 0-3 .9-3.8 3.8-3.7 4.7.2 9.4.3 14.1 0 2.9-.2 2.9 1.2 2.9 3.4 0 25.3 0 50.7-.1 76 0 3.2.6 4.1 4 4.1 11.4-.2 22.9 0 34.3-.1 2.4 0 3.4.4 3.3 3.1-.2 5.1-.1 10.3 0 15.5 0 1.9-.6 2.4-2.5 2.4-19.1-.1-38.1-.1-57.2 0-2.7 0-2.5-1.4-2.5-3.1v-49.2zM1526.9 454.4v-48.8c0-2.5.4-3.6 3.2-3.5 4.8.3 9.6.2 14.5 0 2.5-.1 3.2.6 3.2 3.1-.1 25.6 0 51.1-.1 76.7 0 3 .8 3.7 3.7 3.6 11.4-.2 22.9 0 34.3-.1 2.5 0 3.5.4 3.4 3.2-.3 5.1-.1 10.3 0 15.5 0 1.8-.5 2.3-2.3 2.3-19.2-.1-38.4-.1-57.5 0-2.6 0-2.2-1.4-2.2-3-.2-16.2-.2-32.6-.2-49zM845.8 454.5c0-16.3.1-32.5-.1-48.8 0-2.8.8-3.6 3.6-3.5 4.6.2 9.2.2 13.8 0 2.6-.1 3.4.6 3.4 3.3-.1 21.4-.1 42.8-.1 64.2 0 4.4.1 8.7 0 13.1-.1 2.2.6 2.8 2.8 2.8 11.9-.1 23.8 0 35.6-.1 2.3 0 3.1.5 3 2.9-.2 5.1-.1 10.3 0 15.5 0 1.7-.3 2.6-2.3 2.6-19.2-.1-38.3-.1-57.5 0-2.6 0-2.2-1.4-2.2-3v-49zM1031.8 454.5c0-16.4.1-32.7-.1-49.1 0-2.5.7-3.3 3.2-3.2 4.5.2 9 .3 13.4 0 3.2-.2 4.2.6 4.1 4-.2 25.2 0 50.4-.2 75.7 0 3.1.8 3.9 3.8 3.9 11.5-.2 23.1 0 34.6-.1 2.3 0 3.1.4 3 2.9-.2 5.1-.1 10.3 0 15.5 0 1.7-.2 2.6-2.3 2.6-19.2-.1-38.3-.1-57.5 0-2.6 0-2.2-1.4-2.2-3 .2-16.5.2-32.8.2-49.2zM1984.5 454.3c0-16.3.1-32.5-.1-48.8 0-2.7.8-3.4 3.4-3.3 4.8.2 9.6.2 14.5 0 2.3-.1 3.1.6 3 3-.1 14.2-.1 28.5-.1 42.7 0 18.5-.1 37 .1 55.5 0 2.7-.9 3.1-3.3 3.1-4.8-.2-9.7-.2-14.5 0-2.5.1-3.2-.5-3.2-3.1.3-16.3.2-32.7.2-49.1zM1123.9 454.7c0 16.1-.1 32.3.1 48.4 0 2.9-.8 3.6-3.6 3.4-4.9-.2-9.9-.1-14.8 0-1.9 0-2.5-.4-2.5-2.4.1-33.1.1-66.2 0-99.2 0-2 .5-2.7 2.6-2.7 5 .1 10.1.2 15.1 0 2.8-.1 3 1.1 3 3.3.1 16.4.1 32.8.1 49.2zM1000.1 454.7c0-16.3.1-32.5-.1-48.8 0-3.1.9-3.8 3.8-3.6 4.5.2 9 .2 13.5 0 2.8-.1 3.6.7 3.5 3.5-.1 29.7 0 59.5-.1 89.2 0 3.8 1.6 8.7-.7 11-2.1 2.1-7 .6-10.7.5-3 0-7 1.3-8.7-.6-1.5-1.7-.5-5.5-.5-8.4v-42.8z"/><path class="st1" d="M252.8 289.3c5-12.2 9.7-23.8 14.4-35.4 8.8-21.7 17.6-43.3 26.3-65.1.9-2.3 2-2.9 4.4-2.9 15.2.1 30.5.1 46.2.1-4.3 10.7-8.5 21.2-12.6 31.6 1.3.4 1.7-.8 2.4-1.4 17-15.6 36.8-25.5 59.7-28.5 36.7-4.8 68.6 5.7 95.9 30.7 1.5 1.3 1.3 2.1 0 3.4-9.7 9.6-19.4 19.3-29 29.1-2 2-2.7.6-3.9-.5-34.6-32.5-94.6-21-111.4 29.8-12.7 38.4 11.1 79.2 50.3 87.9 32.7 7.3 66.7-10.9 78.7-42.1.2-.5.3-1 .6-1.9-1.4-.1-2.6-.2-3.7-.2-19.1 0-38.1-.1-57.2.1-2.8 0-3.5-.8-3.5-3.5.1-13.1.1-26.3 0-39.4 0-2.4.7-2.9 3-2.9 35.3.1 70.7.1 106 0 2.6 0 3.2 1 3.5 3.1 5.6 37.8-3.6 71.1-30.3 99-18.5 19.3-40.8 31.4-67.5 34.4-38.9 4.4-72.1-7.5-98.9-36.3-18.1-19.5-28.1-42.6-29.9-69.2 0-.7-.1-1.3-.3-3-14.5 36.4-28.7 71.8-43.2 108.1-14.3-35.6-28.2-70.5-42.5-106-14 35.5-27.7 70.4-41.7 106-30.6-76.4-60.8-152.1-91.1-227.9 1.3-.7 2.4-.4 3.5-.4 14 0 28 .1 42.1-.1 2.7 0 3.9.7 4.9 3.2 13.1 32.5 26.3 64.9 39.5 97.4l1.2 2.8c14-34.5 27.9-68.5 42.1-103.3 14 34.7 27.9 68.7 42 103.3zM1799.6 163.1c0 41.4-33.2 74.7-74.5 74.7-41.6 0-74.6-33.1-74.5-74.9.1-41.5 33.2-74.6 74.6-74.5 41.2 0 74.4 33.3 74.4 74.7zM1651.3 438.5c0-4.4.1-8.7 0-13.1 0-1.7.4-2.4 2.2-2.3 4.6.1 9.2-.1 13.8.1 8.1.3 14.6 6.9 15 14.9.4 8.1-5.4 15.3-13.5 16.1-5.2.5-10.5.2-15.8.3-1.7 0-1.6-1.1-1.6-2.2-.1-4.6-.1-9.2-.1-13.8zM1475.8 452.6c1.2.4 1.2 1.2 1.5 1.7 2.3 5.1 4.5 10.1 6.9 15.5h-16c2.5-5.7 5.1-11.4 7.6-17.2z"/></svg>