<svg id="Layer_1" data-name="Layer 1" xmlns="http://www.w3.org/2000/svg" viewBox="0 0 300 300"><title>banner_EN_attender</title><rect width="300" height="260" fill="#ffc81e"/><g opacity="0.07"><path d="M315.24,155.57H235.87v37.51a11.72,11.72,0,0,1-5.92-4.29,11.44,11.44,0,0,1-1.34-2.39,11.7,11.7,0,0,1-.89-4.48,11.7,11.7,0,0,1-1,4.66,12,12,0,0,1-1,1.9,11.75,11.75,0,0,1-6.17,4.61H219V155.57H85v37.52H83.8l-.43-.14-.48-.19c-.18-.08-.36-.15-.54-.24l-.12-.06a9.75,9.75,0,0,1-.9-.49l-.07,0-.36-.22-.19-.13-.37-.26-.18-.15a11.91,11.91,0,0,1-1.19-1c-.26-.27-.51-.56-.75-.85h0a11.3,11.3,0,0,1-.67-.92h0c-.13-.19-.25-.38-.36-.58L77,187.5c-.1-.18-.19-.36-.28-.55a10,10,0,0,1-.4-.95l-.12-.34a12.34,12.34,0,0,1-.38-1.39c0-.14,0-.28-.08-.43a12.23,12.23,0,0,1-.15-1.92,11.71,11.71,0,0,1-2.75,7.54c-.14.17-.29.34-.44.5a11.87,11.87,0,0,1-4.3,2.89V155.57H-11.23a79,79,0,0,0,37.15-9.21A79.36,79.36,0,0,0,68.14,76.2v6.11H85V76.2a80.88,80.88,0,0,0,14.5,46.44,78.7,78.7,0,0,0,13.91,15.22,75.24,75.24,0,0,0,38.21,17l.38-.06.39.06C190,149.77,219,116.49,219,76.2v6.11h16.86V76.2c0,2.07.07,4.12.23,6.15A79.38,79.38,0,0,0,315.24,155.57Z" fill="#ffc81e" stroke="#000" stroke-linecap="round" stroke-linejoin="round" stroke-width="1.1"/><path d="M85,82.3V193.09H83.81a11.71,11.71,0,0,1-8.18-11.17,11.73,11.73,0,0,1-7.49,10.93V82.3Z" fill="none" stroke="#000" stroke-linecap="round" stroke-linejoin="round" stroke-width="1.1"/><line x1="68.14" y1="155.57" x2="68.14" y2="72.31" fill="none" stroke="#000" stroke-linecap="round" stroke-linejoin="round" stroke-width="1.1"/><line x1="60.7" y1="155.57" x2="60.7" y2="110.65" fill="none" stroke="#000" stroke-linecap="round" stroke-linejoin="round" stroke-width="1.1"/><line x1="53.75" y1="155.57" x2="53.75" y2="123.04" fill="none" stroke="#000" stroke-linecap="round" stroke-linejoin="round" stroke-width="1.1"/><line x1="46.79" y1="155.57" x2="46.79" y2="130.73" fill="none" stroke="#000" stroke-linecap="round" stroke-linejoin="round" stroke-width="1.1"/><line x1="39.83" y1="155.57" x2="39.83" y2="136.99" fill="none" stroke="#000" stroke-linecap="round" stroke-linejoin="round" stroke-width="1.1"/><line x1="32.88" y1="155.57" x2="32.88" y2="142.54" fill="none" stroke="#000" stroke-linecap="round" stroke-linejoin="round" stroke-width="1.1"/><line x1="25.92" y1="155.57" x2="25.92" y2="146.28" fill="none" stroke="#000" stroke-linecap="round" stroke-linejoin="round" stroke-width="1.1"/><line x1="212.25" y1="155.57" x2="212.25" y2="109.25" fill="none" stroke="#000" stroke-linecap="round" stroke-linejoin="round" stroke-width="1.1"/><line x1="205.3" y1="155.57" x2="205.3" y2="122.4" fill="none" stroke="#000" stroke-linecap="round" stroke-linejoin="round" stroke-width="1.1"/><line x1="198.34" y1="155.57" x2="198.34" y2="131.38" fill="none" stroke="#000" stroke-linecap="round" stroke-linejoin="round" stroke-width="1.1"/><line x1="191.38" y1="155.57" x2="191.38" y2="137.48" fill="none" stroke="#000" stroke-linecap="round" stroke-linejoin="round" stroke-width="1.1"/><line x1="184.43" y1="155.57" x2="184.43" y2="142.89" fill="none" stroke="#000" stroke-linecap="round" stroke-linejoin="round" stroke-width="1.1"/><line x1="177.47" y1="155.57" x2="177.47" y2="147.69" fill="none" stroke="#000" stroke-linecap="round" stroke-linejoin="round" stroke-width="1.1"/><line x1="92.55" y1="155.57" x2="92.55" y2="110.65" fill="none" stroke="#000" stroke-miterlimit="10" stroke-width="1.1"/><line x1="99.5" y1="155.57" x2="99.5" y2="122.64" fill="none" stroke="#000" stroke-miterlimit="10" stroke-width="1.1"/><line x1="106.46" y1="155.57" x2="106.46" y2="131.89" fill="none" stroke="#000" stroke-miterlimit="10" stroke-width="1.1"/><line x1="113.42" y1="155.57" x2="113.42" y2="137.86" fill="none" stroke="#000" stroke-miterlimit="10" stroke-width="1.1"/><line x1="120.37" y1="155.57" x2="120.37" y2="143.15" fill="none" stroke="#000" stroke-miterlimit="10" stroke-width="1.1"/><line x1="127.33" y1="155.57" x2="127.33" y2="147.8" fill="none" stroke="#000" stroke-miterlimit="10" stroke-width="1.1"/><line x1="242.19" y1="155.57" x2="242.19" y2="108.67" fill="none" stroke="#000" stroke-linecap="round" stroke-linejoin="round" stroke-width="1.1"/><line x1="249.15" y1="155.57" x2="249.15" y2="121.67" fill="none" stroke="#000" stroke-linecap="round" stroke-linejoin="round" stroke-width="1.1"/><line x1="256.1" y1="155.57" x2="256.1" y2="129.68" fill="none" stroke="#000" stroke-linecap="round" stroke-linejoin="round" stroke-width="1.1"/><line x1="263.06" y1="155.57" x2="263.06" y2="136.21" fill="none" stroke="#000" stroke-linecap="round" stroke-linejoin="round" stroke-width="1.1"/><line x1="270.02" y1="155.57" x2="270.02" y2="141.99" fill="none" stroke="#000" stroke-linecap="round" stroke-linejoin="round" stroke-width="1.1"/><line x1="276.97" y1="155.57" x2="276.97" y2="146.72" fill="none" stroke="#000" stroke-linecap="round" stroke-linejoin="round" stroke-width="1.1"/><line x1="85" y1="155.57" x2="85" y2="72.31" fill="none" stroke="#000" stroke-linecap="round" stroke-linejoin="round" stroke-width="1.1"/><line x1="219.15" y1="155.57" x2="219.15" y2="72.31" fill="none" stroke="#000" stroke-linecap="round" stroke-linejoin="round" stroke-width="1.1"/><line x1="235.86" y1="155.57" x2="235.86" y2="72.31" fill="none" stroke="#000" stroke-linecap="round" stroke-linejoin="round" stroke-width="1.1"/><line x1="68.14" y1="82.31" x2="85" y2="99.16" fill="none" stroke="#000" stroke-linecap="round" stroke-linejoin="round" stroke-width="1.1"/><line x1="85" y1="99.16" x2="68.31" y2="115.85" fill="none" stroke="#000" stroke-linecap="round" stroke-linejoin="round" stroke-width="1.1"/><line x1="68.31" y1="115.85" x2="84.89" y2="132.43" fill="none" stroke="#000" stroke-linecap="round" stroke-linejoin="round" stroke-width="1.1"/><line x1="84.89" y1="132.43" x2="68.43" y2="148.9" fill="none" stroke="#000" stroke-linecap="round" stroke-linejoin="round" stroke-width="1.1"/><line x1="68.43" y1="148.9" x2="84.91" y2="165.37" fill="none" stroke="#000" stroke-linecap="round" stroke-linejoin="round" stroke-width="1.1"/><line x1="84.91" y1="165.37" x2="68.58" y2="181.69" fill="none" stroke="#000" stroke-linecap="round" stroke-linejoin="round" stroke-width="1.1"/><line x1="84.91" y1="181.45" x2="78.12" y2="187.85" fill="none" stroke="#000" stroke-linecap="round" stroke-linejoin="round" stroke-width="1.1"/><line x1="85" y1="82.31" x2="68.39" y2="98.91" fill="none" stroke="#000" stroke-linecap="round" stroke-linejoin="round" stroke-width="1.1"/><line x1="68.39" y1="98.91" x2="85" y2="115.51" fill="none" stroke="#000" stroke-linecap="round" stroke-linejoin="round" stroke-width="1.1"/><line x1="85" y1="115.51" x2="68.23" y2="132.28" fill="none" stroke="#000" stroke-linecap="round" stroke-linejoin="round" stroke-width="1.1"/><line x1="68.23" y1="132.28" x2="84.68" y2="148.72" fill="none" stroke="#000" stroke-linecap="round" stroke-linejoin="round" stroke-width="1.1"/><line x1="84.68" y1="148.72" x2="68.4" y2="165.01" fill="none" stroke="#000" stroke-linecap="round" stroke-linejoin="round" stroke-width="1.1"/><line x1="68.4" y1="165.01" x2="84.64" y2="181.25" fill="none" stroke="#000" stroke-linecap="round" stroke-linejoin="round" stroke-width="1.1"/><line x1="68.4" y1="181.92" x2="73.71" y2="187.23" fill="none" stroke="#000" stroke-linecap="round" stroke-linejoin="round" stroke-width="1.1"/><line x1="219.29" y1="82.31" x2="235.52" y2="98.53" fill="none" stroke="#000" stroke-linecap="round" stroke-linejoin="round" stroke-width="1.1"/><line x1="235.68" y1="99.63" x2="219.46" y2="115.85" fill="none" stroke="#000" stroke-linecap="round" stroke-linejoin="round" stroke-width="1.1"/><line x1="219.46" y1="115.85" x2="235.73" y2="132.12" fill="none" stroke="#000" stroke-linecap="round" stroke-linejoin="round" stroke-width="1.1"/><line x1="235.21" y1="133.27" x2="219.58" y2="148.9" fill="none" stroke="#000" stroke-linecap="round" stroke-linejoin="round" stroke-width="1.1"/><line x1="219.58" y1="148.9" x2="235.39" y2="164.71" fill="none" stroke="#000" stroke-linecap="round" stroke-linejoin="round" stroke-width="1.1"/><line x1="235.64" y1="165.79" x2="219.73" y2="181.69" fill="none" stroke="#000" stroke-linecap="round" stroke-linejoin="round" stroke-width="1.1"/><polyline points="219.73 181.69 223.09 184.03 223.48 184.3 224.62 185.09 226.76 186.57" fill="none" stroke="#000" stroke-linecap="round" stroke-linejoin="round" stroke-width="1.1"/><line x1="236.15" y1="82.31" x2="219.54" y2="98.91" fill="none" stroke="#000" stroke-linecap="round" stroke-linejoin="round" stroke-width="1.1"/><line x1="219.54" y1="98.91" x2="235.19" y2="114.56" fill="none" stroke="#000" stroke-linecap="round" stroke-linejoin="round" stroke-width="1.1"/><line x1="235.44" y1="116.22" x2="219.38" y2="132.28" fill="none" stroke="#000" stroke-linecap="round" stroke-linejoin="round" stroke-width="1.1"/><line x1="219.38" y1="132.28" x2="235.83" y2="148.72" fill="none" stroke="#000" stroke-linecap="round" stroke-linejoin="round" stroke-width="1.1"/><line x1="235.83" y1="148.72" x2="219.55" y2="165.01" fill="none" stroke="#000" stroke-linecap="round" stroke-linejoin="round" stroke-width="1.1"/><line x1="219.55" y1="165.01" x2="235.79" y2="181.25" fill="none" stroke="#000" stroke-linecap="round" stroke-linejoin="round" stroke-width="1.1"/><polyline points="228.61 186.4 231.41 184.4 232.22 183.81 232.67 183.49 235.79 181.25" fill="none" stroke="#000" stroke-linecap="round" stroke-linejoin="round" stroke-width="1.1"/><path d="M204.29,181.92a11.72,11.72,0,0,1-18.21,9.76" fill="none" stroke="#000" stroke-linecap="round" stroke-linejoin="round" stroke-width="1.1"/><path d="M227.72,181.92a11.7,11.7,0,0,1-1,4.66,12,12,0,0,1-1,1.9,11.75,11.75,0,0,1-6.17,4.61,11.55,11.55,0,0,1-3.54.55,11.72,11.72,0,0,1-11.72-11.72" fill="none" stroke="#000" stroke-linecap="round" stroke-linejoin="round" stroke-width="1.1"/><path d="M251.16,181.92A11.72,11.72,0,0,1,230,188.79a11.44,11.44,0,0,1-1.34-2.39,11.7,11.7,0,0,1-.89-4.48" fill="none" stroke="#000" stroke-linecap="round" stroke-linejoin="round" stroke-width="1.1"/><path d="M271.17,190.2a11.72,11.72,0,0,1-20-8.28" fill="none" stroke="#000" stroke-linecap="round" stroke-linejoin="round" stroke-width="1.1"/><path d="M52.19,181.92A11.72,11.72,0,0,1,34,191.68" fill="none" stroke="#000" stroke-linecap="round" stroke-linejoin="round" stroke-width="1.1"/><path d="M75.63,181.92a11.73,11.73,0,0,1-7.49,10.93h0a11.72,11.72,0,0,1-16-10.93" fill="none" stroke="#000" stroke-linecap="round" stroke-linejoin="round" stroke-width="1.1"/><path d="M99.06,181.92a11.72,11.72,0,0,1-11.71,11.72,11.45,11.45,0,0,1-3.54-.55h0a11.72,11.72,0,0,1-8.17-11.17" fill="none" stroke="#000" stroke-linecap="round" stroke-linejoin="round" stroke-width="1.1"/><path d="M119.07,190.2a11.72,11.72,0,0,1-20-8.28" fill="none" stroke="#000" stroke-linecap="round" stroke-linejoin="round" stroke-width="1.1"/></g><path d="M180.43,178.93a1.87,1.87,0,0,0-1.32.54h0a12.2,12.2,0,0,1-8.58,3.55h-.2a11.73,11.73,0,0,1-8.4-3.48,2.15,2.15,0,0,0-1.46-.61,1.81,1.81,0,0,0-1.46.67l0,0a11.18,11.18,0,0,1-8.14,3.48,11,11,0,0,1-8.1-3.41l0-.05a2.06,2.06,0,0,0-1.6-.74,2,2,0,0,0-1.48.62l0,0a12,12,0,0,1-8.58,3.54,12.27,12.27,0,0,1-8.63-3.59,2.1,2.1,0,0,0-1.46-.61,2,2,0,0,0-2,2v0a2.57,2.57,0,0,0,.53,1.45,14.22,14.22,0,0,0,10.72,4.85,14.58,14.58,0,0,0,8.29-2.49,4,4,0,0,1,5.12.12,12.25,12.25,0,0,0,7.15,2.36,12.13,12.13,0,0,0,7.39-2.51,3.93,3.93,0,0,1,4.91,0,14.28,14.28,0,0,0,8.15,2.55A14.61,14.61,0,0,0,182,182.34a2.05,2.05,0,0,0-.16-2.89,2.08,2.08,0,0,0-1.36-.52Z"/><path d="M198.62,143.93h-7L155.9,95.51h28.26c1.35,0,1.48-.53,1.48-1.19V92.68c0-.67-.13-1.21-1.48-1.21H116.55c-1.35,0-1.23.53-1.23,1.21v1.64c0,.68-.12,1.19,1.23,1.19h28.79l-35.65,48.42h-6.93c-.76,0-.88-.08-.88.75v9.11c0,.83.12,1.25.88,1.25h9.06c5.37,14.36,13.75,19.38,24.53,23.92a10.45,10.45,0,0,0,1.81-1.43,4,4,0,0,1,5.7-.16,3.28,3.28,0,0,1,.31.34,9.09,9.09,0,0,0,6.65,2.76,9.26,9.26,0,0,0,6.68-2.86,3.77,3.77,0,0,1,2.95-1.34,4,4,0,0,1,2.83,1.16,15.34,15.34,0,0,0,1.45,1.22C175.2,174,183.89,167.16,188.56,155l10,0c.77,0,1.15-.42,1.15-1.25v-9.09C199.77,143.85,199.38,143.93,198.62,143.93Zm-45.7-48.42,10.72,19.81a28.92,28.92,0,0,0-8.66-2.76s-1.15-12.22-2.06-17.07Zm-4.59,0c-1,4.8-2.21,16.85-2.21,16.85a28.54,28.54,0,0,0-8.31,2.62l10.51-19.47Zm-37.12,48.42,35.63-48.42-11.07,20.58a29.9,29.9,0,0,0-14.56,25.59c0,.64,0,.89.07,2.23Zm15-2.51a24.29,24.29,0,0,1,2.13-9.94L140,163.39a24.42,24.42,0,0,1-13.77-22Zm24.43,24.43a24.4,24.4,0,0,1-6.9-1l7.33-21.29,7.51,20.56a3.59,3.59,0,0,0,.17.34,24.4,24.4,0,0,1-8.12,1.39ZM154,130c1.47-.07,2.79-.23,2.79-.23a1,1,0,0,0-.15-2s-4,.31-6.52.31c-2.4,0-6.43-.31-6.43-.31a1,1,0,0,0-.16,2s1.25.16,2.57.23l3.81,10.43-5.34,16L135.64,130c1.47-.07,2.8-.23,2.8-.23a1,1,0,0,0-.16-2s-4,.31-6.52.31c-.45,0-1,0-1.56,0A24.42,24.42,0,0,1,164,121a23.88,23.88,0,0,1,3.09,2.4h-.31a4.23,4.23,0,0,0-4.1,4.34c0,2,1.16,3.73,2.4,5.73a12.89,12.89,0,0,1,2,6.74,22.67,22.67,0,0,1-1.86,7.89l-2.43,8.14Zm8.91,32.57L170.37,141a23.11,23.11,0,0,0,1.86-8.75,17.54,17.54,0,0,0-.17-2.51,24.43,24.43,0,0,1-9.15,32.83Zm16.94-18.6c0-1.34.06-1.59.06-2.21a29.6,29.6,0,0,0-14.16-25.23l-11.33-21,35.69,48.42Z"/><path d="M147.69,89c.28.61.5,1.09,1.13,1.09h3.5c.63,0,.86-.53,1.13-1.14l2.27-4.53c.28-.65-.51-1-1.13-1h-3.27V77.35c0-.46-1.34-.47-1.34,0V83.4h-3.2c-.62,0-1.37.46-1.13,1Z"/><path d="M106.76,140c1.33-1.4,3.39-10.72,3.39-10.72l5.43.26s.77-.07.53-.7c-.36-1-5.25-10.29-11.73-3.54-5.81,7.06-16.63,19.11-16.63,19.11l5,5.67,6.05-9.43S103.82,143.08,106.76,140Z"/><path d="M183.86,128.82c-.22.63.53.71.53.71l5.45-.27s2.07,9.31,3.4,10.71c2.94,3.1,8,.67,8,.67l6,9.42,5-5.68s-10.82-12-16.68-19.11C189.12,118.53,184.23,127.81,183.86,128.82Z"/><path d="M88.59,220.43,85.19,232H83.31l-2.58-7.75L78.16,232h-2l-3.29-11.61h2.21l2.32,8.24L80,220.43h1.47l2.69,8,2.22-8Z"/><path d="M99,230.61a5.49,5.49,0,0,1-4.12,1.66,6.09,6.09,0,0,1-2.3-.43,5.34,5.34,0,0,1-1.81-1.23,5.56,5.56,0,0,1-1.18-1.91,6.73,6.73,0,0,1-.43-2.47,7,7,0,0,1,.43-2.47,5.74,5.74,0,0,1,1.19-1.91,5.13,5.13,0,0,1,1.8-1.22,5.91,5.91,0,0,1,2.3-.43,6,6,0,0,1,2.3.43A5.45,5.45,0,0,1,99,221.87a5.56,5.56,0,0,1,1.18,1.91,6.8,6.8,0,0,1,.43,2.45A6.06,6.06,0,0,1,99,230.61Zm-1.6-7.29a3,3,0,0,0-2.52-1.1,3.34,3.34,0,0,0-1.46.28,3,3,0,0,0-1.06.82,3.52,3.52,0,0,0-.65,1.26,6.09,6.09,0,0,0,0,3.28,3.56,3.56,0,0,0,.65,1.27,3,3,0,0,0,1.06.82,3.79,3.79,0,0,0,2.92,0,2.84,2.84,0,0,0,1.06-.82,3.54,3.54,0,0,0,.66-1.26,5.69,5.69,0,0,0,.22-1.64A4.53,4.53,0,0,0,97.39,223.32Z"/><path d="M111.34,232h-2.2l-2.41-4.32h-2.15V232h-2.13V220.43h4.25c2.66,0,4,1.11,4,3.35a3.59,3.59,0,0,1-.52,2,4.52,4.52,0,0,1-1.46,1.36Zm-5.13-9.84h-1.63v3.53h1.56a2.8,2.8,0,0,0,1.84-.45,1.78,1.78,0,0,0,.5-1.35,1.68,1.68,0,0,0-.48-1.3,2.74,2.74,0,0,0-1.78-.43Z"/><path d="M117.18,232h-4.34V220.43h4.34a6.29,6.29,0,0,1,2.31.41A5,5,0,0,1,121.3,222a5.49,5.49,0,0,1,1.18,1.82,7.18,7.18,0,0,1,0,4.84,5.06,5.06,0,0,1-3,3A6.28,6.28,0,0,1,117.18,232Zm0-9.59H115V230h2.22a3.2,3.2,0,0,0,2.53-1,4.91,4.91,0,0,0,0-5.58A3.2,3.2,0,0,0,117.18,222.45Z"/><path d="M129.8,232.27a6,6,0,0,1-2.3-.43,5.34,5.34,0,0,1-1.81-1.23,5.44,5.44,0,0,1-1.19-1.91,6.9,6.9,0,0,1-.42-2.47,6.53,6.53,0,0,1,.43-2.47,5.82,5.82,0,0,1,1.18-1.91,5.17,5.17,0,0,1,1.81-1.22,5.84,5.84,0,0,1,2.3-.43,7.38,7.38,0,0,1,3.3.68l-.23,2a7.93,7.93,0,0,0-3.07-.68,3.34,3.34,0,0,0-1.46.28,2.94,2.94,0,0,0-1.06.82,3.54,3.54,0,0,0-.66,1.26,6.09,6.09,0,0,0,0,3.28,3.5,3.5,0,0,0,.66,1.27,2.94,2.94,0,0,0,1.06.82,3.49,3.49,0,0,0,1.46.28,7.93,7.93,0,0,0,3.07-.68l.23,2A7.64,7.64,0,0,1,129.8,232.27Z"/><path d="M143.91,232h-2.2l-1-2.81h-3.86l-1,2.81h-2.22l4.13-11.61h2ZM140,227.18l-1.22-3.4-1.19,3.4Z"/><path d="M157,232h-2.2l-1-7.78-3,5.34-3-5.33-1,7.76h-2.2l1.6-11.61h1.74l2.84,5.3,2.82-5.3h1.74Z"/><path d="M163.17,228.22h-2.08V232H159V220.43h3.28a14.78,14.78,0,0,1,2.2.14,3.86,3.86,0,0,1,1.53.55,2.44,2.44,0,0,1,.92,1.14,4.78,4.78,0,0,1,.31,1.87,4.71,4.71,0,0,1-.38,2,3.5,3.5,0,0,1-2.3,1.93A5.86,5.86,0,0,1,163.17,228.22Zm-.34-6h-1.74v4h1.79a2.47,2.47,0,0,0,1.69-.47,2.19,2.19,0,0,0,.5-1.63,2.87,2.87,0,0,0-.11-.88,1.28,1.28,0,0,0-.36-.6,1.66,1.66,0,0,0-.69-.34A4.36,4.36,0,0,0,162.83,222.2Z"/><path d="M179.59,232h-6.9V220.42h2.12V230h4.78Z"/><path d="M183.1,232H181V220.42h2.12Z"/><path d="M189,232.27a10.34,10.34,0,0,1-2.28-.25,5.54,5.54,0,0,1-1.57-.6l.25-2.42a4.19,4.19,0,0,0,1.48.88,6.13,6.13,0,0,0,2.16.36c1.39,0,2.08-.42,2.08-1.26a1.28,1.28,0,0,0-.18-.66,1.69,1.69,0,0,0-.45-.51,3.25,3.25,0,0,0-.59-.37c-.21-.09-.42-.18-.64-.25l-1.56-.55-.66-.28a3.71,3.71,0,0,1-1.53-1,2.81,2.81,0,0,1-.53-1.66,3.51,3.51,0,0,1,.25-1.28,3.14,3.14,0,0,1,.76-1.11,3.83,3.83,0,0,1,1.31-.79,5.47,5.47,0,0,1,1.88-.29,6.71,6.71,0,0,1,1.1.09,9.35,9.35,0,0,1,1.05.2,6.75,6.75,0,0,1,.9.29,5.51,5.51,0,0,1,.65.31l-.22,2.18a7.31,7.31,0,0,0-3.4-1.05,4.43,4.43,0,0,0-.81.07,2.18,2.18,0,0,0-.67.21,1.26,1.26,0,0,0-.47.38.91.91,0,0,0-.17.57,1,1,0,0,0,.2.67,1.87,1.87,0,0,0,.62.43,8.84,8.84,0,0,0,1,.37c.41.13.88.3,1.42.51l.9.35a3.38,3.38,0,0,1,.73.38,3.13,3.13,0,0,1,.7.61,3.06,3.06,0,0,1,.54.85,2.82,2.82,0,0,1,.22,1.11,6.32,6.32,0,0,1-.13,1.14,2.67,2.67,0,0,1-.6,1.14,3.43,3.43,0,0,1-1.36.89A6.74,6.74,0,0,1,189,232.27Z"/><path d="M199.75,232h-4.47V220.42h3.13a16,16,0,0,1,1.83.11,4,4,0,0,1,1.4.43,2.32,2.32,0,0,1,.9.91,3.16,3.16,0,0,1,.31,1.54,3,3,0,0,1-1,2.42,3.35,3.35,0,0,1,1.54,1,2.83,2.83,0,0,1,.49,1.74,3.4,3.4,0,0,1-.36,1.62,3,3,0,0,1-.94,1,4,4,0,0,1-1.32.57A7.1,7.1,0,0,1,199.75,232Zm-.46-9.8h-1.88v2.85h2.08a1.62,1.62,0,0,0,1-.3,1.23,1.23,0,0,0,.43-1.06,1.43,1.43,0,0,0-.41-1.17A2,2,0,0,0,199.29,222.23Zm.33,4.53h-2.21v3.47h2.09a2.92,2.92,0,0,0,1.66-.39,1.51,1.51,0,0,0,.57-1.34c0-1.16-.72-1.74-2.12-1.74Z"/><path d="M214.8,230.61a5.49,5.49,0,0,1-4.12,1.66,6.22,6.22,0,0,1-2.3-.43,5.34,5.34,0,0,1-1.81-1.23,5.59,5.59,0,0,1-1.19-1.91,6.94,6.94,0,0,1-.42-2.47,6.73,6.73,0,0,1,.43-2.47,5.74,5.74,0,0,1,1.19-1.91,5,5,0,0,1,1.8-1.22,5.84,5.84,0,0,1,2.3-.43,6,6,0,0,1,2.3.43,5.51,5.51,0,0,1,1.81,1.24,5.59,5.59,0,0,1,1.19,1.91,6.79,6.79,0,0,1,.42,2.45A6,6,0,0,1,214.8,230.61Zm-1.6-7.29a3,3,0,0,0-2.52-1.1,3.49,3.49,0,0,0-1.46.28,3,3,0,0,0-1.06.82,3.52,3.52,0,0,0-.65,1.26,6.13,6.13,0,0,0,0,3.29,3.52,3.52,0,0,0,.65,1.26,3,3,0,0,0,1.06.82,3.79,3.79,0,0,0,2.92,0,2.94,2.94,0,0,0,1.06-.82,3.54,3.54,0,0,0,.66-1.26,5.74,5.74,0,0,0,.22-1.64,4.53,4.53,0,0,0-.88-2.91Z"/><path d="M227.12,232h-2.2l-1-2.8h-3.88l-1,2.8h-2.21L221,220.42h2Zm-3.93-4.85-1.21-3.4-1.2,3.4Z"/><path d="M74.82,211.1V203a3.57,3.57,0,0,1-1.41.67l-.18-1.55a3.74,3.74,0,0,0,2-1.66h1.37V211.1Z"/><path d="M78.77,208.27a3.39,3.39,0,0,1,1.77-2.9,3,3,0,0,1-1.16-2.45c0-1.35.75-2.67,3.18-2.67s3.09,1.2,3.09,2.44a3.05,3.05,0,0,1-1.46,2.54,3,3,0,0,1,2,2.8c0,1.49-1.15,3.28-3.86,3.28C79.84,211.31,78.77,209.79,78.77,208.27Zm1.77-.1c0,1.08.71,1.67,1.88,1.67a1.79,1.79,0,0,0,2-1.78,2,2,0,1,0-3.89.11Zm.42-5.1c0,.63.38,1.27,1.45,1.58,1.14-.31,1.55-1,1.55-1.68s-.43-1.26-1.48-1.26S81,202.3,81,203.07Z"/><path d="M92.27,207.6a2.31,2.31,0,0,0,2.43,2.21,5.76,5.76,0,0,0,2.29-.56l.12,1.43a5.84,5.84,0,0,1-2.53.57,3.77,3.77,0,0,1-4.09-3.93,3.62,3.62,0,0,1,3.65-3.91,3.11,3.11,0,0,1,3.3,3.25,4.45,4.45,0,0,1-.11.94Zm.08-1.17h3.33a1.43,1.43,0,0,0-1.51-1.56A1.76,1.76,0,0,0,92.35,206.43Z"/><path d="M103.06,211.1V203a3.57,3.57,0,0,1-1.41.67l-.18-1.55a3.74,3.74,0,0,0,2-1.66h1.37V211.1Z"/><path d="M113.84,204.23c0,4.1-2.73,6.87-4.53,6.87l-1.2-.7c1.13-.21,3.63-1.85,3.85-4.21a3.1,3.1,0,0,1-1.95.67c-1.9,0-3.21-1-3.21-3a3.51,3.51,0,0,1,3.71-3.57C112.32,200.25,113.84,201.3,113.84,204.23Zm-1.75-.7a1.59,1.59,0,0,0-1.71-1.7,1.81,1.81,0,0,0-1.81,1.91,1.51,1.51,0,0,0,1.61,1.64A1.77,1.77,0,0,0,112.09,203.53Z"/><path d="M127.72,211.1l-.94-7.42L124,208.77l-2.8-5.07-.94,7.4H118.4l1.46-10.64h1.49l2.66,5,2.63-5h1.49l1.46,10.64Z"/><path d="M137.13,211.25h-.52a1.71,1.71,0,0,1-1.76-.94,3.1,3.1,0,0,1-2.31.94A2.13,2.13,0,0,1,130.3,209c0-2.13,2.75-2.66,4.34-2.69,0-1-.46-1.4-1.46-1.4a4.06,4.06,0,0,0-2,.61l-.18-1.4a5.57,5.57,0,0,1,2.69-.71c1.76,0,2.72.86,2.72,3.22v1.89c0,1.12.11,1.32.73,1.32h.2Zm-2.49-3.77c-1.4.06-2.54.49-2.54,1.45,0,.68.36,1,1.06,1a2.15,2.15,0,0,0,1.48-.68Z"/><path d="M138.15,202.24v-1.78h1.73v1.78Zm0,8.86v-7.56h1.73v7.56Z"/><path d="M141,207.33a3.8,3.8,0,1,1,3.8,3.92A3.7,3.7,0,0,1,141,207.33Zm1.77,0c0,1.51.74,2.48,2,2.48s2-1,2-2.48-.74-2.46-2-2.46S142.77,205.84,142.77,207.33Z"/><path d="M152.74,211.1c4-5.7,4.33-6.95,4.33-7.74a1.46,1.46,0,0,0-1.59-1.58,3.08,3.08,0,0,0-2.45,1.57l-.23-1.61a3.59,3.59,0,0,1,3.07-1.49,2.69,2.69,0,0,1,2.92,2.87c0,1.4-.82,3.16-2.93,6.28h3.32v1.7Z"/><path d="M160.73,206c0-3.39,2-5.7,4.57-5.7s4.37,2.22,4.37,5.44c0,3.39-1.82,5.62-4.56,5.62S160.73,209.18,160.73,206Zm1.83,0c0,2.6,1.09,3.75,2.58,3.75s2.74-1.2,2.74-4c0-2.59-1.23-3.85-2.61-3.85S162.56,203.16,162.56,206Z"/><path d="M172.59,211.1V203a3.7,3.7,0,0,1-1.41.67l-.19-1.55a3.76,3.76,0,0,0,2.06-1.66h1.37V211.1Z"/><path d="M183.37,204.23c0,4.1-2.74,6.87-4.53,6.87l-1.2-.7c1.12-.21,3.63-1.85,3.84-4.21a3.09,3.09,0,0,1-1.94.67c-1.9,0-3.21-1-3.21-3a3.51,3.51,0,0,1,3.71-3.57C181.85,200.25,183.37,201.3,183.37,204.23Zm-1.75-.7a1.6,1.6,0,0,0-1.72-1.7,1.82,1.82,0,0,0-1.81,1.91,1.51,1.51,0,0,0,1.61,1.64A1.78,1.78,0,0,0,181.62,203.53Z"/><path d="M188.43,211.1V200.46h1.79V211.1Z"/><path d="M191.93,210.57l.22-2a5.11,5.11,0,0,0,3.33,1.11c1.19,0,2.1-.35,2.1-1.31,0-1.13-1.18-1.52-2.55-2-1.6-.53-3.26-1.06-3.26-2.93,0-1.4,1-3.16,3.85-3.16A7.31,7.31,0,0,1,199,201l-.18,1.85a6.58,6.58,0,0,0-3.1-1c-.91,0-2.08.29-2.08,1.27s1,1.24,2.19,1.61c1.72.51,3.75,1.11,3.75,3.45,0,1.18-.51,3.05-4.13,3.05A7.33,7.33,0,0,1,191.93,210.57Z"/><path d="M200.38,205.78c0-3.36,2.22-5.53,5.27-5.53a7.31,7.31,0,0,1,3,.62l-.2,1.69a7.63,7.63,0,0,0-2.8-.63c-2.19,0-3.31,1.65-3.31,3.85s1.12,3.85,3.31,3.85a7.24,7.24,0,0,0,2.8-.63l.2,1.69a7.22,7.22,0,0,1-3,.62C202.6,211.31,200.38,209.14,200.38,205.78Z"/><path d="M214,202.16v8.94h-1.79v-8.94h-3v-1.7h7.87v1.7Z"/><path d="M218.28,211.1V200.46H225v1.7h-4.88v2.54h3.81v1.7h-3.81v3h5v1.7Z"/><rect width="300" height="57" fill="#212c36"/><text transform="translate(64.45 38)" font-size="25" fill="#fff0c1" font-family="Cabin-Bold, Cabin" font-weight="700">I<tspan x="7.05" y="0" letter-spacing="-0.02em">’</tspan><tspan x="11.3" y="0">M </tspan><tspan x="37.75" y="0" letter-spacing="-0.05em">A</tspan><tspan x="52.05" y="0" letter-spacing="0.01em">T</tspan><tspan x="66.05" y="0">TENDING</tspan></text><rect y="260" width="300" height="40" fill="#212c36"/><text transform="translate(105.65 287)" font-size="20" fill="#fff0c1" font-family="Cabin-Bold, Cabin" font-weight="700">#<tspan x="14.2" y="0" letter-spacing="-0.01em">w</tspan><tspan x="28.6" y="0">clisboa</tspan></text></svg>