<svg xmlns="http://www.w3.org/2000/svg" viewBox="0 0 613.26 206.8"><defs><style>.cls-1,.cls-2,.cls-6{fill:#231f20;}.cls-2{font-size:58.22px;font-family:Cabin-Bold, Cabin;font-weight:700;}.cls-3{letter-spacing:-0.01em;}.cls-4{letter-spacing:0em;}.cls-5{letter-spacing:-0.01em;}.cls-6{font-size:35.58px;font-family:Cabin-Regular, Cabin;}.cls-7{letter-spacing:-0.01em;}.cls-8{letter-spacing:0em;}</style></defs><title>Asset 8</title><g id="Layer_2" data-name="Layer 2"><g id="Layer_1-2" data-name="Layer 1"><path class="cls-1" d="M173.8,191.15a3.48,3.48,0,0,0-2.48,1h0a22.8,22.8,0,0,1-16.07,6.67h-.38a22,22,0,0,1-15.77-6.52,3.9,3.9,0,0,0-2.73-1.14,3.34,3.34,0,0,0-2.73,1.25l-.08.09A21,21,0,0,1,118.3,199a20.62,20.62,0,0,1-15.2-6.39l-.08-.09a3.83,3.83,0,0,0-3-1.4,3.75,3.75,0,0,0-2.76,1.17l-.07.07A22.56,22.56,0,0,1,81.11,199a23,23,0,0,1-16.18-6.73,3.91,3.91,0,0,0-2.73-1.14A3.83,3.83,0,0,0,58.36,195a4.77,4.77,0,0,0,1,2.74,26.62,26.62,0,0,0,20.11,9.08A27.3,27.3,0,0,0,95,202.16a7.55,7.55,0,0,1,9.6.22A23,23,0,0,0,118,206.8a22.74,22.74,0,0,0,13.86-4.71,7.26,7.26,0,0,1,4.63-1.66,7.35,7.35,0,0,1,4.58,1.57,26.63,26.63,0,0,0,15.28,4.78,27.37,27.37,0,0,0,20.3-9.27,3.83,3.83,0,0,0-2.86-6.38Z"/><path class="cls-1" d="M207.91,125.52H194.74L127.8,34.71h53c2.52,0,2.77-1,2.77-2.22V29.4c0-1.26-.25-2.27-2.77-2.27H54c-2.52,0-2.3,1-2.3,2.27v3.08c0,1.26-.22,2.22,2.3,2.22H108L41.14,125.52h-13c-1.42,0-1.64-.17-1.64,1.39V144c0,1.55.22,2.35,1.64,2.35,0,0,16.45,0,17,0,10.06,26.93,25.78,36.35,46,44.86a18.79,18.79,0,0,0,3.4-2.69,7.42,7.42,0,0,1,5.49-2.37,7.53,7.53,0,0,1,5.79,2.7A16.94,16.94,0,0,0,118.3,194a17.34,17.34,0,0,0,12.54-5.37,7.07,7.07,0,0,1,5.52-2.52,7.61,7.61,0,0,1,5.32,2.19,27.87,27.87,0,0,0,2.71,2.27c19.64-8.75,35.93-21.53,44.7-44.35l18.83.05c1.42,0,2.14-.79,2.14-2.35V126.91C210.06,125.36,209.34,125.52,207.91,125.52ZM122.22,34.71l20.09,37.15a54,54,0,0,0-16.24-5.18s-2.16-22.91-3.85-32Zm-8.63,0c-1.78,9-4.13,31.61-4.13,31.61a53.36,53.36,0,0,0-15.6,4.91l19.73-36.52ZM44,125.52,110.8,34.71,90,73.3a56.09,56.09,0,0,0-27.29,48c0,1.19,0,1.66.12,4.18Zm28.08-4.72a45.64,45.64,0,0,1,4-18.64L97.89,162A45.81,45.81,0,0,1,72.06,120.8Zm45.81,45.81a45.85,45.85,0,0,1-12.94-1.87l13.75-39.93,14.08,38.57a4.28,4.28,0,0,0,.33.63A45.7,45.7,0,0,1,117.88,166.61Zm6.32-67.28c2.75-.15,5.24-.44,5.24-.44a1.89,1.89,0,0,0-.29-3.77s-7.42.58-12.21.58c-4.5,0-12.06-.58-12.06-.58-2.47-.15-2.76,3.63-.29,3.77,0,0,2.34.29,4.8.44l7.14,19.55-10,30.07L89.81,99.32c2.76-.15,5.24-.44,5.24-.44a1.89,1.89,0,0,0-.29-3.77s-7.42.58-12.21.58c-.86,0-1.87,0-2.95-.06A45.81,45.81,0,0,1,148.81,87c-.2,0-.39,0-.59,0a7.93,7.93,0,0,0-7.69,8.13c0,3.77,2.18,7,4.5,10.74a24.12,24.12,0,0,1,3.78,12.63q0,5.88-3.49,14.81l-4.57,15.26Zm16.72,61.07,14-40.45a43.26,43.26,0,0,0,3.48-16.41,35,35,0,0,0-.31-4.71,45.81,45.81,0,0,1-17.17,61.56Zm31.76-34.86c.07-2.52.12-3,.12-4.15A55.5,55.5,0,0,0,146.24,74L125,34.71l66.94,90.82Z"/><path class="cls-1" d="M112.4,22.57c.53,1.17.95,2,2.12,2h6.58c1.17,0,1.59-1,2.12-2.14L127.46,14c.53-1.24-.95-2-2.12-2h-6.11V.65c0-.85-2.52-.88-2.52,0V12h-6c-1.17,0-2.58.87-2.12,1.93Z"/><path class="cls-1" d="M35.65,118.1C38.15,115.47,42,98,42,98l10.19.49s1.45-.15,1-1.32c-.69-1.9-9.87-19.31-22-6.64C20.3,103.77,0,126.37,0,126.37L9.35,137l11.36-17.67S30.13,123.91,35.65,118.1Z"/><path class="cls-1" d="M180.23,97.18c-.43,1.17,1,1.32,1,1.32L191.45,98s3.86,17.46,6.36,20.09c5.52,5.81,14.94,1.25,14.94,1.25L224.12,137l9.35-10.65s-20.3-22.6-31.27-35.82C190.1,77.88,180.92,95.29,180.23,97.18Z"/><text class="cls-2" transform="translate(267.15 130.32)"><tspan class="cls-3">W</tspan><tspan x="55.66" y="0">ORDCA</tspan><tspan class="cls-4" x="250.11" y="0">M</tspan><tspan x="298.32" y="0">P </tspan><tspan x="0" y="56.93">LISB</tspan><tspan class="cls-5" x="115.74" y="56.93">O</tspan><tspan x="159.35" y="56.93">A</tspan></text><text class="cls-6" transform="translate(266.5 70.49)">18 e 19 <tspan class="cls-7" x="109.44" y="0">M</tspan><tspan class="cls-8" x="138.11" y="0">aio, 2019</tspan></text></g></g></svg>